<svg width="541" height="1051" viewBox="0 0 541 1051" fill="none" xmlns="http://www.w3.org/2000/svg">
<path d="M488.5 371C460.051 371 437 347.949 437 319.5C437 291.051 460.051 268 488.5 268C516.949 268 540 291.051 540 319.5C540 347.949 516.949 371 488.5 371Z" fill="#36BCF8"/>
<path d="M337.5 371C309.051 371 286 347.949 286 319.5C286 291.051 309.051 268 337.5 268C365.949 268 389 291.051 389 319.5C389 347.949 365.949 371 337.5 371Z" fill="#36BCF8"/>
<path d="M234.5 371C206.051 371 183 347.949 183 319.5C183 291.051 206.051 268 234.5 268C262.949 268 286 291.051 286 319.5C286 347.949 262.949 371 234.5 371Z" fill="#36BCF8"/>
<path d="M198.433 320.053L183 320V365.878C183 367.769 185.33 368.714 186.693 367.366L235 320.193L198.433 320.053Z" fill="#36BCF8"/>
<path d="M488.079 0C516.482 0 539.495 23.0132 539.495 51.416L539.494 51.417H539.512V97.8682C539.512 99.783 537.207 100.74 535.859 99.375L524.345 87.8652C515.048 97.1149 502.234 102.832 488.079 102.832V103H235.079V102.827C234.858 102.83 234.637 102.832 234.416 102.832C206.013 102.832 183 79.8188 183 51.416C183 23.0132 206.013 0 234.416 0C234.637 6.87601e-07 234.858 0.00014188 235.079 0.00292969V0H488.079Z" fill="#36BCF8"/>
<path d="M235 268H488V371H235V268Z" fill="#36BCF8"/>
<path d="M385.139 232C413.588 232 436.639 208.949 436.639 180.5C436.639 152.051 413.588 129 385.139 129C356.689 129 333.639 152.051 333.639 180.5C333.639 208.949 356.689 232 385.139 232Z" fill="#36BCF8"/>
<path d="M337.5 500C309.051 500 286 476.949 286 448.5C286 420.051 309.051 397 337.5 397C365.95 397 389 420.051 389 448.5C389 476.949 365.95 500 337.5 500Z" fill="#36BCF8"/>
<path d="M488.139 232C516.588 232 539.639 208.949 539.639 180.5C539.639 152.051 516.588 129 488.139 129C459.689 129 436.639 152.051 436.639 180.5C436.639 208.949 459.689 232 488.139 232Z" fill="#36BCF8"/>
<path d="M234.5 500C206.051 500 183 476.949 183 448.5C183 420.051 206.051 397 234.5 397C262.95 397 286 420.051 286 448.5C286 476.949 262.95 500 234.5 500Z" fill="#36BCF8"/>
<path d="M524.205 181.054L539.639 181V227.833C539.639 229.764 537.308 230.729 535.946 229.353L487.639 181.197L524.205 181.054Z" fill="#36BCF8"/>
<path d="M198.434 449.054L183 449V495.833C183 497.764 185.331 498.729 186.693 497.353L235 449.197L198.434 449.054Z" fill="#36BCF8"/>
<path d="M487.639 129H385.639V232H487.639V129Z" fill="#36BCF8"/>
<path d="M235 397H337V500H235V397Z" fill="#36BCF8"/>
<path d="M503.399 528.442C523.443 531.924 538.9 548.74 540.308 569.424L540.417 569.424L540.416 930.342L540.273 971.541L540.013 1037.93C539.968 1049.49 525.987 1055.24 517.817 1047.06L445.886 975.07L227.39 975.07C227.365 975.07 227.339 975.071 227.313 975.071C227.287 975.071 227.261 975.07 227.236 975.07L225.77 975.07L225.77 975.042C201.776 974.229 182.584 954.535 182.583 930.343L182.583 569.424L182.692 569.424C184.241 546.662 202.804 528.586 225.77 527.809L225.77 527.779L503.399 527.779L503.399 528.442Z" fill="#36BCF8"/>
<path d="M70.5 141C109.43 141 141 109.43 141 70.5C141 31.5698 109.43 -1.37996e-06 70.5 -3.08165e-06C65.868 -3.28413e-06 61.3408 0.4647 56.9486 1.31915C24.4944 7.64512 -3.78299e-06 36.2019 -5.28221e-06 70.5C-6.1301e-06 89.8976 7.83999 107.451 20.5069 120.193L7.39028 133.31C4.55708 136.143 6.56579 140.985 10.5682 140.985L17.9285 140.985L43.3973 140.985L70.5 141ZM21.7211 104.933C21.7211 103.254 22.2008 101.695 22.9953 100.361C16.9242 91.7564 13.3565 81.2781 13.3565 69.9603C13.3565 56.469 18.4232 44.1318 26.7579 34.7928C27.9422 33.4586 29.9958 33.4736 31.255 34.7478C32.5142 36.022 32.4993 38.0607 31.315 39.3949C24.1496 47.5496 19.8173 58.2528 19.8173 69.9603C19.8173 79.7941 22.8904 88.9082 28.1071 96.4185C28.9015 96.1936 29.726 96.0587 30.5955 96.0587C35.4973 96.0587 39.4848 100.031 39.4848 104.948C39.4848 109.85 35.5123 113.837 30.5955 113.837C25.6936 113.822 21.7211 109.85 21.7211 104.933Z" fill="#36BCF8"/>
<path d="M98.3357 209.748L98.3357 171.842C98.3357 169.642 96.5669 167.856 94.3875 167.856L37.3996 167.856C35.2202 167.856 33.4515 169.642 33.4515 171.842L33.4515 178.6C33.4515 180.8 35.2202 182.585 37.3996 182.585L59.312 182.585L59.312 206.56C59.312 208.759 61.0808 210.545 63.2601 210.545L67.1057 210.545C69.2851 210.545 71.0538 208.759 71.0538 206.56L71.0538 182.593L85.8832 182.593L85.8832 209.756C85.8832 211.955 87.6519 213.741 89.8313 213.741L94.3875 213.741C96.5669 213.733 98.3357 211.955 98.3357 209.748Z" fill="#36BCF8"/>
<path d="M98.3357 278.823L98.3357 272.064C98.3357 269.865 96.5669 268.079 94.3875 268.079L61.5466 268.079C58.0802 268.079 55.0874 267.474 52.5606 266.262C50.0338 265.051 48.0992 263.313 46.7568 261.042C45.4144 258.77 44.7432 256.02 44.7432 252.904C44.7432 249.788 45.4144 247.094 46.7568 244.822C48.0992 242.551 50.0338 240.797 52.5606 239.57C55.0795 238.343 58.0802 237.729 61.5466 237.729L94.3875 237.729C96.5669 237.729 98.3357 235.944 98.3357 233.744L98.3357 226.985C98.3357 224.785 96.5669 223 94.3875 223L61.5466 223C55.7507 223 50.6339 224.243 46.2041 226.738C41.7663 229.225 38.3156 232.732 35.8756 237.259C33.4278 241.786 32.2038 246.966 32.2038 252.904C32.2038 258.842 33.4278 264.078 35.8756 268.605C38.3314 273.132 41.7742 276.631 46.2041 279.102C50.6418 281.573 55.7507 282.808 61.5466 282.808L94.3875 282.808C96.5669 282.808 98.3357 281.023 98.3357 278.823Z" fill="#36BCF8"/>
<path d="M98.1474 354.763L98.1474 347.853C98.1474 345.653 96.3786 343.868 94.1992 343.868L54.678 343.868C54.528 343.868 54.4095 343.748 54.4095 343.597C54.4095 343.509 54.449 343.43 54.5201 343.374L96.5128 312.84C97.5394 312.091 98.1553 310.887 98.1553 309.604L98.1553 298.797C98.1553 296.597 96.3865 294.812 94.2071 294.812L37.4087 294.812C35.2293 294.812 33.4605 296.597 33.4605 298.797L33.4605 305.707C33.4605 307.906 35.2293 309.692 37.4087 309.692L76.9931 309.692C77.2063 309.692 77.3721 309.859 77.3721 310.074C77.3721 310.202 77.3168 310.313 77.2142 310.385L35.103 340.871C34.0686 341.62 33.4526 342.824 33.4526 344.107L33.4526 354.763C33.4526 356.963 35.2214 358.748 37.4008 358.748L94.1992 358.748C96.3786 358.748 98.1474 356.963 98.1474 354.763Z" fill="#36BCF8"/>
<path d="M69.0893 421.212C70.9291 417.824 72.461 413.489 73.6849 408.18L74.4904 404.777C75.0589 402.378 75.659 400.465 76.2828 399.047C76.9066 397.636 77.6015 396.592 78.3675 395.946C79.1255 395.301 80.0494 394.974 81.1233 394.974C82.4973 394.974 83.7212 395.444 84.7793 396.377C85.8374 397.317 86.6665 398.616 87.2666 400.282C87.8668 401.948 88.1668 403.821 88.1668 405.885C88.1668 408.754 87.6378 411.472 86.5797 414.039C85.9558 415.553 85.1425 417.019 84.1318 418.462C82.9 420.215 82.9158 422.646 84.424 424.161L88.1747 427.93C89.7619 429.525 92.3677 429.477 93.6943 427.66C95.542 425.117 97.0502 422.359 98.211 419.371C99.885 415.083 100.714 410.795 100.714 405.885C100.714 400.983 99.8613 396.568 98.1794 392.647C96.4896 388.725 94.1444 385.657 91.1437 383.417C88.1431 381.178 84.7714 380.062 81.0443 380.062C76.5355 380.062 72.7058 381.831 69.5709 385.37C66.4282 388.909 64.0435 394.145 62.4011 401.087L61.5956 404.49C60.885 407.535 60.1585 409.902 59.4241 411.6C58.6898 413.297 57.8607 414.509 56.9368 415.226C56.005 415.943 54.8916 416.302 53.5729 416.302C52.0253 416.302 50.6592 415.832 49.4984 414.899C48.3298 413.967 47.4375 412.604 46.8058 410.827C46.182 409.041 45.8661 406.937 45.8661 404.498C45.8661 401.23 46.4426 398.17 47.5875 395.293C48.314 393.476 49.301 391.706 50.5408 389.977C51.7805 388.247 51.7726 385.832 50.2881 384.318L46.4899 380.444C44.9028 378.826 42.2812 378.866 40.9388 380.691C38.8542 383.521 37.188 386.597 35.9325 389.913L35.9325 389.881C34.1874 394.496 33.3109 399.23 33.3109 404.466C33.3109 409.703 34.1874 414.333 35.9325 418.374C37.6776 422.415 40.1018 425.555 43.213 427.811C46.3162 430.059 49.8538 431.19 53.8335 431.19C57.15 431.19 60.0637 430.377 62.5748 428.743C65.0779 427.11 67.2494 424.599 69.0893 421.212Z" fill="#36BCF8"/>
<path d="M99.3585 515.316L99.3585 503.297C99.3585 501.727 98.4425 500.301 97.0212 499.655L55.2653 480.814C55.1548 480.766 55.0837 480.654 55.0837 480.527C55.0837 480.399 55.1548 480.288 55.2653 480.24L97.0212 461.398C98.4425 460.753 99.3585 459.334 99.3585 457.764L99.3585 445.745C99.3585 443.545 97.5897 441.76 95.4103 441.76L38.612 441.76C36.4326 441.76 34.6638 443.545 34.6638 445.745L34.6638 452.264C34.6638 454.464 36.4326 456.25 38.612 456.25L74.4219 456.25C74.5482 456.25 74.6509 456.353 74.6509 456.481C74.6509 456.568 74.5956 456.656 74.5166 456.688L37.0169 473.346C35.5798 473.983 34.6559 475.41 34.6559 476.996L34.6559 484.089C34.6559 485.667 35.5798 487.102 37.0169 487.74L74.5166 504.397C74.5956 504.429 74.6509 504.517 74.6509 504.604C74.6509 504.724 74.5482 504.828 74.4298 504.828L38.612 504.828C36.4326 504.828 34.6638 506.613 34.6638 508.813L34.6638 515.332C34.6638 517.532 36.4326 519.317 38.612 519.317L95.4103 519.317C97.5897 519.301 99.3585 517.516 99.3585 515.316Z" fill="#36BCF8"/>
<path d="M62.5693 579.746C65.0724 578.112 67.2439 575.602 69.0838 572.215C70.9236 568.827 72.4555 564.484 73.6794 559.183L74.4849 555.78C75.0534 553.381 75.6535 551.468 76.2773 550.05C76.9011 548.631 77.596 547.595 78.362 546.949C79.12 546.304 80.0439 545.977 81.1178 545.977C82.4918 545.977 83.7157 546.447 84.7738 547.38C85.8319 548.312 86.661 549.619 87.2611 551.285C87.8613 552.951 88.1613 554.824 88.1613 556.888C88.1613 559.757 87.6323 562.475 86.5742 565.041C85.9504 566.548 85.137 568.022 84.1263 569.465C82.8945 571.218 82.9103 573.649 84.4185 575.172L88.1692 578.941C89.7564 580.535 92.3622 580.488 93.6888 578.67C95.5365 576.128 97.0447 573.37 98.2055 570.381C99.8795 566.093 100.709 561.806 100.709 556.896C100.709 551.994 99.8558 547.579 98.1739 543.658C96.4841 539.736 94.1389 536.66 91.1383 534.428C88.1376 532.188 84.7659 531.073 81.0388 531.073C76.53 531.073 72.7003 532.842 69.5654 536.381C66.4227 539.919 64.038 545.156 62.3956 552.09L61.5901 555.493C60.8795 558.53 60.153 560.905 59.4186 562.603C58.6843 564.3 57.8552 565.512 56.9313 566.229C55.9995 566.946 54.8861 567.305 53.5675 567.305C52.0198 567.305 50.6537 566.835 49.4929 565.902C48.3243 564.97 47.432 563.607 46.8003 561.829C46.1765 560.044 45.8606 557.94 45.8606 555.501C45.8606 552.233 46.4371 549.165 47.582 546.296C48.3085 544.478 49.2955 542.709 50.5353 540.98C51.775 539.25 51.7671 536.843 50.2826 535.321L46.4844 531.447C44.8973 529.829 42.2836 529.869 40.9412 531.694C38.8566 534.524 37.1904 537.6 35.9349 540.916L35.9349 540.884C34.1898 545.507 33.3133 550.233 33.3133 555.469C33.3133 560.706 34.1898 565.344 35.9349 569.377C37.68 573.418 40.1042 576.558 43.2153 578.814C46.3186 581.061 49.8562 582.193 53.8359 582.193C57.1445 582.193 60.0661 581.38 62.5693 579.746Z" fill="#36BCF8"/>
</svg>
