<?xml version="1.0" encoding="UTF-8"?>
<svg id="_레이어_1" data-name="레이어_1" xmlns="http://www.w3.org/2000/svg" version="1.1" viewBox="0 0 541 1051">
  <!-- Generator: Adobe Illustrator 30.2.0, SVG Export Plug-In . SVG Version: 2.1.1 Build 26)  -->
  <defs>
    <style>
      .st0 {
        fill: #36bcf8;
      }
    </style>
  </defs>
  <path class="st0" d="M488.5,371c-28.45,0-51.5-23.05-51.5-51.5s23.05-51.5,51.5-51.5,51.5,23.05,51.5,51.5-23.05,51.5-51.5,51.5Z"/>
  <path class="st0" d="M337.5,371c-28.45,0-51.5-23.05-51.5-51.5s23.05-51.5,51.5-51.5,51.5,23.05,51.5,51.5-23.05,51.5-51.5,51.5Z"/>
  <path class="st0" d="M234.5,371c-28.45,0-51.5-23.05-51.5-51.5s23.05-51.5,51.5-51.5,51.5,23.05,51.5,51.5-23.05,51.5-51.5,51.5Z"/>
  <path class="st0" d="M198.43,320.05l-15.43-.05v45.88c0,1.89,2.33,2.84,3.69,1.49l48.31-47.17-36.57-.14Z"/>
  <path class="st0" d="M488.08,0c28.4,0,51.42,23.01,51.42,51.42h0s.02,0,.02,0v46.45c0,1.91-2.31,2.87-3.65,1.51l-11.51-11.51c-9.3,9.25-22.11,14.97-36.27,14.97v.17h-253v-.17c-.22,0-.44,0-.66,0-28.4,0-51.42-23.01-51.42-51.42S206.01,0,234.42,0c.22,0,.44,0,.66,0h0s253,0,253,0Z"/>
  <path class="st0" d="M235,268h253v103h-253v-103Z"/>
  <path class="st0" d="M385.14,232c28.45,0,51.5-23.05,51.5-51.5s-23.05-51.5-51.5-51.5-51.5,23.05-51.5,51.5,23.05,51.5,51.5,51.5Z"/>
  <path class="st0" d="M337.5,500c-28.45,0-51.5-23.05-51.5-51.5s23.05-51.5,51.5-51.5,51.5,23.05,51.5,51.5-23.05,51.5-51.5,51.5Z"/>
  <path class="st0" d="M488.14,232c28.45,0,51.5-23.05,51.5-51.5s-23.05-51.5-51.5-51.5-51.5,23.05-51.5,51.5,23.05,51.5,51.5,51.5Z"/>
  <path class="st0" d="M234.5,500c-28.45,0-51.5-23.05-51.5-51.5s23.05-51.5,51.5-51.5,51.5,23.05,51.5,51.5-23.05,51.5-51.5,51.5Z"/>
  <path class="st0" d="M524.21,181.05l15.43-.05v46.83c0,1.93-2.33,2.9-3.69,1.52l-48.31-48.16,36.57-.14Z"/>
  <path class="st0" d="M198.43,449.05l-15.43-.05v46.83c0,1.93,2.33,2.9,3.69,1.52l48.31-48.16-36.57-.14Z"/>
  <path class="st0" d="M487.64,129h-102v103h102v-103Z"/>
  <path class="st0" d="M235,397h102v103h-102v-103Z"/>
  <path class="st0" d="M503.4,528.44c20.04,3.48,35.5,20.3,36.91,40.98h.11v360.92s-.14,41.2-.14,41.2l-.26,66.39c-.04,11.56-14.03,17.31-22.2,9.13l-71.93-71.99h-218.5s-.05,0-.08,0-.05,0-.08,0h-1.47v-.03c-23.99-.81-43.19-20.51-43.19-44.7v-360.92h.11c1.55-22.76,20.11-40.84,43.08-41.61v-.03h277.63v.66Z"/>
  <path class="st0" d="M132.53,261.27v-64.75c0-3.76-3.02-6.81-6.74-6.81H28.44c-3.72,0-6.74,3.05-6.74,6.81v11.54c0,3.76,3.02,6.81,6.74,6.81h37.43v40.95c0,3.76,3.02,6.81,6.74,6.81h6.57c3.72,0,6.74-3.05,6.74-6.81v-40.94h25.33v46.4c0,3.76,3.02,6.81,6.74,6.81h7.78c3.72-.01,6.74-3.05,6.74-6.82Z"/>
  <path class="st0" d="M132.53,379.27v-11.54c0-3.76-3.02-6.81-6.74-6.81h-56.1c-5.92,0-11.03-1.04-15.35-3.1-4.32-2.07-7.62-5.04-9.91-8.92-2.29-3.88-3.44-8.58-3.44-13.9s1.15-9.92,3.44-13.8c2.29-3.88,5.6-6.88,9.91-8.97,4.3-2.1,9.43-3.14,15.35-3.14h56.1c3.72,0,6.74-3.05,6.74-6.81v-11.55c0-3.76-3.02-6.81-6.74-6.81h-56.1c-9.9,0-18.64,2.12-26.21,6.38-7.58,4.25-13.48,10.24-17.64,17.97-4.18,7.73-6.27,16.58-6.27,26.73s2.09,19.09,6.27,26.82c4.19,7.73,10.08,13.71,17.64,17.93,7.58,4.22,16.31,6.33,26.21,6.33h56.1c3.72,0,6.74-3.05,6.74-6.81Z"/>
  <path class="st0" d="M132.21,508.99v-11.8c0-3.76-3.02-6.81-6.74-6.81H57.96c-.26,0-.46-.2-.46-.46,0-.15.07-.29.19-.38l71.73-52.16c1.75-1.28,2.81-3.33,2.81-5.53v-18.46c0-3.76-3.02-6.81-6.74-6.81H28.46c-3.72,0-6.74,3.05-6.74,6.81v11.8c0,3.76,3.02,6.81,6.74,6.81h67.62c.36,0,.65.28.65.65,0,.22-.09.41-.27.53l-71.94,52.08c-1.77,1.28-2.82,3.34-2.82,5.53v18.2c0,3.76,3.02,6.81,6.74,6.81h97.03c3.72,0,6.74-3.05,6.74-6.81Z"/>
  <path class="st0" d="M82.58,622.5c3.14-5.79,5.76-13.19,7.85-22.26l1.38-5.81c.97-4.1,2-7.37,3.06-9.79,1.07-2.41,2.25-4.19,3.56-5.3,1.29-1.1,2.87-1.66,4.71-1.66,2.35,0,4.44.8,6.25,2.4,1.81,1.61,3.22,3.83,4.25,6.67,1.03,2.85,1.54,6.05,1.54,9.57,0,4.9-.9,9.54-2.71,13.93-1.07,2.59-2.45,5.09-4.18,7.56-2.1,2.99-2.08,7.15.5,9.73l6.41,6.44c2.71,2.72,7.16,2.64,9.43-.46,3.16-4.34,5.73-9.05,7.72-14.16,2.86-7.33,4.28-14.65,4.28-23.04s-1.46-15.92-4.33-22.61c-2.89-6.7-6.89-11.94-12.02-15.77-5.13-3.83-10.89-5.73-17.25-5.73-7.7,0-14.24,3.02-19.6,9.07-5.37,6.04-9.44,14.99-12.25,26.85l-1.38,5.81c-1.21,5.2-2.46,9.24-3.71,12.15-1.25,2.9-2.67,4.97-4.25,6.19-1.59,1.23-3.49,1.84-5.75,1.84-2.64,0-4.98-.8-6.96-2.4-2-1.59-3.52-3.92-4.6-6.96-1.07-3.05-1.6-6.64-1.6-10.81,0-5.58.98-10.81,2.94-15.73,1.24-3.1,2.93-6.13,5.04-9.08,2.12-2.95,2.1-7.08-.43-9.67l-6.49-6.62c-2.71-2.76-7.19-2.7-9.48.42-3.56,4.83-6.41,10.09-8.55,15.75v-.05c-2.98,7.88-4.48,15.97-4.48,24.91s1.5,16.86,4.48,23.76c2.98,6.9,7.12,12.27,12.44,16.12,5.3,3.84,11.34,5.77,18.14,5.77,5.67,0,10.64-1.39,14.93-4.18,4.28-2.79,7.99-7.08,11.13-12.87Z"/>
  <path class="st0" d="M134.28,783.26v-20.53c0-2.68-1.56-5.12-3.99-6.22l-71.33-32.19c-.19-.08-.31-.27-.31-.49s.12-.41.31-.49l71.33-32.19c2.43-1.1,3.99-3.53,3.99-6.21v-20.53c0-3.76-3.02-6.81-6.74-6.81H30.51c-3.72,0-6.74,3.05-6.74,6.81v11.14c0,3.76,3.02,6.81,6.74,6.81h61.17c.22,0,.39.18.39.39,0,.15-.09.3-.23.35l-64.06,28.46c-2.46,1.09-4.03,3.53-4.03,6.24v12.12c0,2.7,1.58,5.15,4.03,6.23l64.06,28.46c.13.05.23.2.23.35,0,.2-.18.38-.38.38H30.51c-3.72,0-6.74,3.05-6.74,6.81v11.14c0,3.76,3.02,6.81,6.74,6.81h97.03c3.72-.03,6.74-3.08,6.74-6.84Z"/>
  <path class="st0" d="M71.44,893.32c4.28-2.79,7.99-7.08,11.13-12.87,3.14-5.79,5.76-13.21,7.85-22.26l1.38-5.81c.97-4.1,2-7.37,3.06-9.79,1.07-2.42,2.25-4.19,3.56-5.3,1.29-1.1,2.87-1.66,4.71-1.66,2.35,0,4.44.8,6.25,2.4,1.81,1.59,3.22,3.83,4.25,6.67,1.03,2.85,1.54,6.04,1.54,9.57,0,4.9-.9,9.55-2.71,13.93-1.07,2.57-2.46,5.09-4.18,7.56-2.1,2.99-2.08,7.15.5,9.75l6.41,6.44c2.71,2.72,7.16,2.64,9.43-.46,3.16-4.34,5.73-9.05,7.72-14.16,2.86-7.33,4.28-14.65,4.28-23.04s-1.46-15.92-4.33-22.61c-2.89-6.7-6.89-11.95-12.02-15.77-5.13-3.83-10.89-5.73-17.25-5.73-7.7,0-14.24,3.02-19.6,9.07-5.37,6.04-9.44,14.99-12.25,26.83l-1.38,5.81c-1.21,5.19-2.46,9.24-3.71,12.14-1.25,2.9-2.67,4.97-4.25,6.2-1.59,1.23-3.49,1.84-5.75,1.84-2.64,0-4.98-.8-6.96-2.4-2-1.59-3.52-3.92-4.6-6.96-1.07-3.05-1.61-6.64-1.61-10.81,0-5.58.99-10.82,2.94-15.73,1.24-3.1,2.93-6.13,5.04-9.08,2.12-2.95,2.11-7.07-.43-9.67l-6.49-6.62c-2.71-2.76-7.18-2.7-9.47.42-3.56,4.83-6.41,10.09-8.55,15.75v-.05c-2.98,7.9-4.48,15.97-4.48,24.91s1.5,16.87,4.48,23.76c2.98,6.9,7.12,12.27,12.44,16.12,5.3,3.84,11.34,5.77,18.14,5.77,5.65,0,10.64-1.39,14.92-4.18Z"/>
  <path class="st0" d="M155.6,76.92c.74,42.6-33.39,78.2-75.99,79.18-6.71.15-13.22-.55-19.46-2-1.47-.35-2.52-1.66-2.52-3.18v-39.73c0-1.49,1.02-2.75,2.45-3.16,4.12-1.15,7.14-4.93,7.14-9.41,0-2.7-1.1-5.15-2.86-6.91h0c-1.73-1.72-4.1-2.8-6.73-2.85-.07,0-.13-.01-.2-.01-5.4,0-9.79,4.38-9.79,9.79,0,1.8.48,3.48,1.33,4.93.75,1.28.61,2.9-.44,3.95l-23.45,23.42c-1.3,1.3-3.45,1.28-4.7-.09C7.73,116.99,0,98.55,0,78.31c0-21.34,8.59-40.68,22.51-54.73L5.11,6.18C3.05,4.12,4.51.6,7.42.6h66.35c1.34-.07,2.68-.1,4.04-.1,21.49,0,40.95,8.72,55.03,22.8,13.77,13.78,22.4,32.69,22.77,53.62Z"/>
</svg>