<?xml version="1.0" encoding="UTF-8"?>
<svg id="_레이어_1" data-name="레이어_1" xmlns="http://www.w3.org/2000/svg" version="1.1" xmlns:xlink="http://www.w3.org/1999/xlink" viewBox="0 0 897 606">
  <!-- Generator: Adobe Illustrator 30.2.0, SVG Export Plug-In . SVG Version: 2.1.1 Build 26)  -->
  <defs>
    <style>
      .st0 {
        stroke-width: 1.04px;
      }

      .st0, .st1, .st2, .st3, .st4, .st5 {
        fill: none;
      }

      .st0, .st1, .st2, .st4, .st5 {
        stroke: #111;
        stroke-miterlimit: 10;
      }

      .st1 {
        stroke-width: .89px;
      }

      .st6 {
        fill: #fff;
      }

      .st2 {
        stroke-width: .9px;
      }

      .st7 {
        fill: #36bcf8;
      }

      .st8 {
        fill: #36a7de;
      }

      .st4 {
        stroke-width: .91px;
      }

      .st5 {
        stroke-width: .52px;
      }

      .st9 {
        clip-path: url(#clippath);
      }
    </style>
    <clipPath id="clippath">
      <rect class="st3" x="170.25" y="92.25" width="556.5" height="443.23"/>
    </clipPath>
  </defs>
  <rect class="st6" width="897" height="606"/>
  <g class="st9">
    <g>
      <path class="st7" d="M171.95,392.85h19.53v86.84h-19.53v-86.84ZM191.21,392.85h41.56v16.67h-41.56v-16.67ZM191.21,429.37h37.34v15.71h-37.34v-15.71Z"/>
      <path class="st7" d="M263.97,476.45c-6.01-3.27-10.65-7.88-13.95-13.83-3.3-5.93-4.95-12.78-4.95-20.54v-49.24h19.53v49.24c0,4.64.81,8.65,2.44,12.02,1.62,3.38,3.95,5.97,6.96,7.77,3.01,1.79,6.58,2.7,10.72,2.7s7.77-.9,10.79-2.7c3.01-1.79,5.32-4.38,6.93-7.77s2.41-7.39,2.41-12.02v-49.24h19.53v49.24c0,7.76-1.64,14.6-4.92,20.54-3.27,5.93-7.92,10.54-13.92,13.83-6,3.28-12.94,4.92-20.82,4.92s-14.75-1.64-20.74-4.92Z"/>
      <path class="st7" d="M340.29,393.1h19.73v86.59h-19.73v-86.59ZM360.01,419.83l1.06,1.07h-1.33v-27.81h2.87l43,59.68-1.33-1.14h1.33v28.04h-2.67l-42.92-59.85ZM405.33,393.1h19.73v86.59h-19.73v-86.59Z"/>
      <path class="st7" d="M470.85,477.99c-6.12-2.34-11.62-5.75-16.49-10.23l12.67-12.54c3.49,3.24,7.14,5.63,10.95,7.17,3.81,1.54,7.87,2.31,12.2,2.31,3.23,0,6.02-.42,8.39-1.26,2.36-.84,4.17-2.04,5.4-3.6s1.86-3.38,1.86-5.46c0-1.76-.48-3.26-1.43-4.5-.95-1.24-2.55-2.35-4.81-3.33-2.25-.98-5.39-1.95-9.43-2.9l-4.51-1.08c-9.2-2.2-16.14-5.39-20.83-9.6-4.69-4.2-7.04-9.32-7.04-15.35,0-5,1.48-9.51,4.45-13.52,2.97-4.01,7.04-7.15,12.24-9.42,5.2-2.25,11.05-3.39,17.55-3.39s12.19,1.12,17.88,3.36c5.68,2.24,10.76,5.42,15.22,9.53l-12.47,12.54c-3.14-2.92-6.41-5.09-9.82-6.5-3.41-1.42-7.01-2.13-10.81-2.13-2.74,0-5.22.4-7.43,1.2-2.21.8-3.93,1.91-5.18,3.33-1.24,1.42-1.86,3.05-1.86,4.89,0,1.44.43,2.67,1.29,3.69.86,1.02,2.24,1.95,4.11,2.79,1.88.84,4.41,1.64,7.59,2.4l4.51,1.08c7.04,1.64,12.79,3.69,17.28,6.15,4.49,2.46,7.82,5.37,9.98,8.72,2.16,3.36,3.25,7.26,3.25,11.7,0,5.32-1.5,10.06-4.48,14.21-2.99,4.16-7.15,7.4-12.51,9.74-5.36,2.34-11.5,3.51-18.44,3.51s-13.21-1.17-19.34-3.51h.05Z"/>
      <path class="st7" d="M539.6,393.11h19.21v86.59h-19.21v-86.59ZM558.55,424.44l1.86,1.73h-1.86v-33.07h5.7l27.03,60.46-1.72-1.2h1.72v27.33h-8.42l-24.32-55.25ZM590.74,479.69v-27.33h1.72l-1.72,1.2,27.03-60.46h5.7v33.07h-1.86l1.86-1.73-24.32,55.25h-8.42ZM623.21,393.11h19.21v86.59h-19.21v-86.59Z"/>
      <path class="st7" d="M671.08,477.99c-6.12-2.34-11.63-5.75-16.49-10.23l12.67-12.54c3.49,3.24,7.14,5.63,10.95,7.17,3.81,1.54,7.87,2.31,12.2,2.31,3.23,0,6.02-.42,8.39-1.26,2.36-.84,4.17-2.04,5.4-3.6s1.86-3.38,1.86-5.46c0-1.76-.48-3.26-1.43-4.5-.96-1.24-2.55-2.35-4.81-3.33-2.25-.98-5.39-1.95-9.43-2.9l-4.51-1.08c-9.2-2.2-16.14-5.39-20.83-9.6-4.69-4.19-7.04-9.32-7.04-15.35,0-5,1.48-9.51,4.45-13.52,2.96-4.01,7.04-7.15,12.24-9.42,5.2-2.25,11.05-3.39,17.55-3.39s12.19,1.12,17.88,3.36c5.68,2.24,10.76,5.42,15.22,9.53l-12.47,12.54c-3.14-2.92-6.41-5.09-9.82-6.5-3.41-1.42-7.01-2.13-10.81-2.13-2.74,0-5.22.4-7.43,1.2-2.21.8-3.94,1.91-5.18,3.33-1.24,1.42-1.86,3.05-1.86,4.89,0,1.44.43,2.67,1.29,3.69.86,1.02,2.24,1.95,4.11,2.79,1.88.84,4.41,1.64,7.59,2.4l4.51,1.08c7.04,1.64,12.79,3.69,17.28,6.15,4.49,2.46,7.82,5.37,9.98,8.72,2.16,3.36,3.25,7.26,3.25,11.7,0,5.32-1.5,10.06-4.48,14.21-2.99,4.16-7.15,7.4-12.51,9.74-5.35,2.34-11.5,3.51-18.44,3.51s-13.21-1.17-19.34-3.51h.05Z"/>
      <path class="st8" d="M370.01,521.54c-.39,1.94-1.03,3.66-1.92,5.17-.89,1.51-2.06,2.71-3.51,3.57l-2.3-2.93c1.29-.75,2.35-1.75,3.14-2.99.8-1.24,1.37-2.63,1.72-4.18s.52-3.26.52-5.11v-2.4h2.92v2.4c0,2.38-.2,4.54-.59,6.48h0ZM375.52,514.29h-12.38v-3.09h12.38v3.09ZM371.92,519.73c.35,1.44.94,2.74,1.75,3.9s1.87,2.07,3.17,2.76l-2.18,2.92c-1.47-.8-2.67-1.9-3.59-3.32-.92-1.42-1.59-3.04-2-4.87-.41-1.83-.62-3.85-.62-6.05v-2.4h2.93v2.4c0,1.67.18,3.23.53,4.67h0ZM380.44,534.21h-3.6v-25.34h3.6v25.34ZM383.95,521.91h-4.54v-3.11h4.54v3.11ZM386.35,535.42h-3.64v-26.97h3.64v26.97Z"/>
      <path class="st8" d="M406.46,528.99h-13.05v-18.12h13.05v18.12ZM397.2,525.96h5.51v-12.08h-5.51v12.08ZM414.62,535.48h-3.84v-27.06h3.84v27.06Z"/>
      <path class="st8" d="M432.9,510.67c1.12.56,2,1.33,2.64,2.3.64.97.97,2.09.97,3.34s-.32,2.35-.97,3.33-1.52,1.75-2.64,2.3c-1.12.55-2.38.83-3.77.83s-2.65-.28-3.79-.83c-1.13-.55-2.02-1.32-2.66-2.3s-.97-2.09-.97-3.33.32-2.35.97-3.34c.65-.97,1.53-1.75,2.66-2.3,1.13-.56,2.39-.84,3.78-.84s2.65.28,3.77.84ZM429.71,529.68c-.44,1.22-1.12,2.3-2.03,3.23-.91.94-2.06,1.65-3.43,2.14l-1.87-2.81c1.15-.4,2.1-.93,2.86-1.61s1.33-1.43,1.69-2.27.55-1.71.55-2.62v-.9h2.89v.9c0,1.41-.22,2.71-.66,3.93h0ZM427.24,513.42c-.55.27-.99.65-1.31,1.15-.32.5-.48,1.07-.48,1.75s.15,1.25.48,1.75c.32.5.75.87,1.31,1.15.55.27,1.18.4,1.89.4s1.33-.14,1.88-.4c.55-.26.97-.65,1.29-1.15.32-.5.47-1.07.47-1.75s-.15-1.25-.47-1.75c-.32-.5-.74-.87-1.29-1.15-.55-.27-1.17-.4-1.88-.4s-1.33.14-1.89.4ZM431.67,528.41c.32.86.84,1.64,1.53,2.35.69.7,1.57,1.28,2.63,1.72l-1.54,2.83c-1.36-.51-2.49-1.24-3.36-2.23-.88-.98-1.52-2.1-1.91-3.36-.4-1.25-.6-2.58-.6-3.97v-.9h2.76v.9c0,.92.16,1.8.49,2.66h0ZM439.53,529.6c-.41,1.25-1.05,2.39-1.92,3.39-.87,1-1.98,1.78-3.33,2.31l-1.57-2.83c1.06-.48,1.94-1.08,2.63-1.81.7-.74,1.22-1.52,1.55-2.38.33-.85.5-1.7.5-2.53v-.9h2.74v.9c0,1.32-.21,2.6-.6,3.85h0ZM441.69,528.47c.36.85.92,1.6,1.68,2.25.76.65,1.71,1.16,2.86,1.52l-1.85,2.81c-1.38-.48-2.53-1.17-3.45-2.08-.91-.91-1.59-1.98-2.01-3.21-.43-1.23-.64-2.56-.64-4.01v-.9h2.88v.9c0,.97.18,1.88.54,2.72h0ZM443.92,523.75h-3.85v-15.26h3.85v15.26Z"/>
      <path class="st8" d="M475.24,524.67h-24.66v-3.05h24.66v3.05ZM457.24,532.58h-3.85v-5.76h3.85v5.76ZM472.65,534.84h-19.27v-3.07h19.27v3.07ZM457.47,517.26h-3.84v-7.86h3.84v7.86ZM472.51,518.78h-18.88v-3.04h18.88v3.04Z"/>
      <path class="st8" d="M514.86,524.84h-24.64v-3.07h24.64v3.07ZM496.91,532.9h-3.82v-5.78h3.82v5.78ZM512.12,534.96h-19.04v-3.08h19.04v3.08ZM511.73,519.59h-18.48v-10.02h18.48v10.02ZM497.02,516.59h10.95v-4.01h-10.95v4.01ZM504.78,529.39h-3.84v-5.69h3.84v5.69Z"/>
      <path class="st8" d="M527.77,521.79c-.59,1.94-1.44,3.66-2.58,5.17-1.14,1.52-2.51,2.65-4.12,3.41l-2.16-3.04c1.43-.67,2.65-1.63,3.67-2.88,1.01-1.24,1.78-2.62,2.28-4.13.51-1.51.77-3.03.77-4.57v-3.07h3.02v3.07c0,2.08-.29,4.09-.87,6.03h0ZM534.87,514.2h-14.92v-3.17h14.92v3.17ZM530.19,520.02c.51,1.42,1.25,2.71,2.26,3.89,1,1.17,2.21,2.09,3.63,2.74l-2.1,3.02c-1.6-.73-2.97-1.82-4.11-3.27-1.15-1.44-2-3.09-2.57-4.93-.58-1.84-.86-3.74-.86-5.71v-3.07h3.01v3.07c0,1.43.25,2.84.76,4.26h-.02ZM540.79,535.43h-3.84v-26.97h3.84v26.97ZM544.75,521.92h-4.8v-3.17h4.8v3.17Z"/>
      <path class="st2" d="M726.29,481.36H170.7v27.06h555.58v-27.06Z"/>
      <path class="st2" d="M726.3,362.64H170.71v28.55h555.58v-28.55Z"/>
      <path class="st2" d="M590.46,92.93h-270.03v270.36h270.03V92.93Z"/>
      <path class="st2" d="M428.22,363.25V92.84"/>
      <path class="st2" d="M482.48,363.16V92.8"/>
      <path class="st2" d="M536.89,201l-.14,162.29V92.93"/>
      <path class="st2" d="M373.95,363.31V92.95"/>
      <path class="st2" d="M319.54,228.65h270.56"/>
      <path class="st2" d="M319.54,282.85h270.56"/>
      <path class="st2" d="M319.54,296.38h270.56"/>
      <path class="st2" d="M319.54,337.25h270.56"/>
      <path class="st2" d="M590.46,363.12V92.76h-270.03v270.36h270.03Z"/>
      <path class="st2" d="M320.44,201.42h270.01"/>
      <path class="st2" d="M320.44,255.74h270.01"/>
      <path class="st2" d="M320.42,310.08h270.03"/>
      <path class="st2" d="M320.42,147.09h270.03"/>
      <path class="st2" d="M455.8,92.76v270.58"/>
      <path class="st0" d="M374.09,255.9c29.89,0,54.12-24.23,54.12-54.12s-24.23-54.12-54.12-54.12-54.12,24.23-54.12,54.12,24.23,54.12,54.12,54.12Z"/>
      <path class="st5" d="M563.5,201.78c14.94,0,27.06-12.11,27.06-27.06s-12.11-27.06-27.06-27.06-27.06,12.11-27.06,27.06,12.11,27.06,27.06,27.06Z"/>
      <path class="st2" d="M576.93,309.9c7.47,0,13.53-6.06,13.53-13.53s-6.06-13.53-13.53-13.53-13.53,6.06-13.53,13.53,6.06,13.53,13.53,13.53Z"/>
      <path class="st2" d="M583.77,310.26c3.78,0,6.85-3.06,6.85-6.85s-3.06-6.85-6.85-6.85-6.85,3.06-6.85,6.85,3.06,6.85,6.85,6.85Z"/>
      <path class="st5" d="M563.5,148.01c14.94,0,27.06-12.11,27.06-27.06s-12.11-27.06-27.06-27.06-27.06,12.11-27.06,27.06,12.11,27.06,27.06,27.06Z"/>
      <path class="st1" d="M642.42,391.3v91.1"/>
      <path class="st1" d="M658.2,391.3v91.1"/>
      <path class="st2" d="M237.45,436.4c12.45,0,22.55-10.1,22.55-22.55s-10.1-22.55-22.55-22.55-22.55,10.1-22.55,22.55,10.1,22.55,22.55,22.55Z"/>
      <path class="st2" d="M269.92,436.4c6.23,0,11.27-5.05,11.27-11.27s-5.05-11.27-11.27-11.27-11.27,5.05-11.27,11.27,5.05,11.27,11.27,11.27Z"/>
      <path class="st2" d="M270.37,413.85c6.23,0,11.27-5.05,11.27-11.27s-5.05-11.27-11.27-11.27-11.27,5.05-11.27,11.27,5.05,11.27,11.27,11.27Z"/>
      <path class="st2" d="M269.47,458.95c6.23,0,11.27-5.05,11.27-11.27s-5.05-11.27-11.27-11.27-11.27,5.05-11.27,11.27,5.05,11.27,11.27,11.27Z"/>
      <path class="st2" d="M236.54,481.5c4.48,0,8.12-3.63,8.12-8.12s-3.63-8.12-8.12-8.12-8.12,3.63-8.12,8.12,3.63,8.12,8.12,8.12Z"/>
      <path class="st2" d="M332.15,481.5c4.13,0,7.49-3.35,7.49-7.49s-3.35-7.49-7.49-7.49-7.49,3.35-7.49,7.49,3.35,7.49,7.49,7.49Z"/>
      <path class="st2" d="M332.15,467.07c4.13,0,7.49-3.35,7.49-7.49s-3.35-7.49-7.49-7.49-7.49,3.35-7.49,7.49,3.35,7.49,7.49,7.49Z"/>
      <path class="st2" d="M332.15,451.73c4.13,0,7.49-3.35,7.49-7.49s-3.35-7.49-7.49-7.49-7.49,3.35-7.49,7.49,3.35,7.49,7.49,7.49Z"/>
      <path class="st2" d="M237.45,443.89c4.13,0,7.49-3.35,7.49-7.49s-3.35-7.49-7.49-7.49-7.49,3.35-7.49,7.49,3.35,7.49,7.49,7.49Z"/>
      <path class="st2" d="M237.45,436.32c1.99,0,3.61-1.61,3.61-3.61s-1.62-3.61-3.61-3.61-3.61,1.62-3.61,3.61,1.62,3.61,3.61,3.61Z"/>
      <path class="st2" d="M237.45,443.62c1.99,0,3.61-1.62,3.61-3.61s-1.62-3.61-3.61-3.61-3.61,1.62-3.61,3.61,1.62,3.61,3.61,3.61Z"/>
      <path class="st2" d="M332.15,436.4c4.13,0,7.49-3.35,7.49-7.49s-3.35-7.49-7.49-7.49-7.49,3.35-7.49,7.49,3.35,7.49,7.49,7.49Z"/>
      <path class="st2" d="M332.15,421.07c4.13,0,7.49-3.35,7.49-7.49s-3.35-7.49-7.49-7.49-7.49,3.35-7.49,7.49,3.35,7.49,7.49,7.49Z"/>
      <path class="st2" d="M332.15,405.74c4.13,0,7.49-3.35,7.49-7.49s-3.35-7.49-7.49-7.49-7.49,3.35-7.49,7.49,3.35,7.49,7.49,7.49Z"/>
      <path class="st2" d="M269.47,481.5c6.23,0,11.27-5.05,11.27-11.27s-5.05-11.27-11.27-11.27-11.27,5.05-11.27,11.27,5.05,11.27,11.27,11.27Z"/>
      <path class="st2" d="M237.45,481.5c12.45,0,22.55-10.1,22.55-22.55s-10.1-22.55-22.55-22.55-22.55,10.1-22.55,22.55,10.1,22.55,22.55,22.55Z"/>
      <path class="st4" d="M523.31,391.4v91.1"/>
      <path class="st4" d="M539.7,391.4v91.1"/>
      <path class="st4" d="M324.2,390.77v91.1"/>
      <path class="st4" d="M340.6,390.77v91.1"/>
      <path class="st4" d="M228.6,390.77v91.1"/>
      <path class="st4" d="M245,390.77v91.1"/>
      <path class="st2" d="M726.3,391.3H170.71v45.1h555.58v-45.1Z"/>
      <path class="st2" d="M726.3,436.4H170.71v45.1h555.58v-45.1Z"/>
      <path class="st2" d="M531.48,481.5c4.48,0,8.12-3.63,8.12-8.12s-3.63-8.12-8.12-8.12-8.12,3.63-8.12,8.12,3.63,8.12,8.12,8.12Z"/>
      <path class="st4" d="M442.13,391.4v91.1"/>
      <path class="st4" d="M458.53,391.4v91.1"/>
      <path class="st2" d="M450.3,481.5c4.48,0,8.12-3.63,8.12-8.12s-3.63-8.12-8.12-8.12-8.12,3.63-8.12,8.12,3.63,8.12,8.12,8.12Z"/>
      <path class="st4" d="M425.9,391.4v91.1"/>
      <path class="st2" d="M434.07,481.5c4.48,0,8.12-3.63,8.12-8.12s-3.63-8.12-8.12-8.12-8.12,3.63-8.12,8.12,3.63,8.12,8.12,8.12Z"/>
      <path class="st2" d="M650.53,481.5c4.48,0,8.12-3.63,8.12-8.12s-3.63-8.12-8.12-8.12-8.12,3.63-8.12,8.12,3.63,8.12,8.12,8.12Z"/>
      <path class="st2" d="M320.42,92.93l270.03,270.36"/>
      <path class="st2" d="M266.79,92.95l270.03,270.36"/>
      <path class="st2" d="M590.46,92.93l-270.03,270.36"/>
      <path class="st2" d="M536.82,92.56l-270.03,270.36"/>
      <path class="st7" d="M446.97,273.37c2.44-2.44,5.83-3.96,9.56-3.96,6.21,0,11.42,4.18,13.01,9.87.56,1.98,2.31,3.39,4.37,3.39h54.94c2.1,0,3.92-1.45,4.4-3.49,2-8.62,2.97-17.63,2.76-26.9-1.35-58.89-50.57-106.09-109.47-105.05-28.93.51-55.09,12.44-74.14,31.48-19.48,19.47-31.52,46.37-31.52,76.09,0,9.65,1.28,18.99,3.66,27.89,12.28,45.89,54.15,79.69,103.92,79.69,27.99,0,53.48-10.69,72.61-28.2,1.89-1.72,1.92-4.69.12-6.49l-32.38-32.42c-1.45-1.45-3.69-1.65-5.46-.61-2,1.17-4.33,1.84-6.82,1.84-7.47,0-13.53-6.06-13.53-13.53,0-.09,0-.18.02-.27.07-3.63,1.56-6.91,3.95-9.3h0Z"/>
      <path class="st7" d="M352.78,255.73l-31.76-.12v96.49c0,4.01,4.86,6.03,7.7,3.19l99.29-99.29-75.23-.27"/>
    </g>
  </g>
</svg>