<?xml version="1.0" encoding="UTF-8"?>
<svg id="_레이어_1" data-name="레이어_1" xmlns="http://www.w3.org/2000/svg" version="1.1" xmlns:xlink="http://www.w3.org/1999/xlink" viewBox="0 0 897 606">
  <!-- Generator: Adobe Illustrator 30.2.0, SVG Export Plug-In . SVG Version: 2.1.1 Build 26)  -->
  <defs>
    <style>
      .st0 {
        fill: #fff;
      }

      .st1 {
        fill: none;
      }

      .st2 {
        fill: #36bcf8;
      }

      .st3 {
        clip-path: url(#clippath);
      }
    </style>
    <clipPath id="clippath">
      <rect class="st1" x="173" y="70" width="551" height="466"/>
    </clipPath>
  </defs>
  <rect class="st2" width="897" height="606"/>
  <g class="st3">
    <g>
      <path class="st0" d="M229.07,395.55c2.92,0,5.29,2.37,5.29,5.29v6.11c0,2.92-2.37,5.29-5.29,5.29h-36.06v19.89h31.84c2.92,0,5.29,2.37,5.29,5.29v5.15c0,2.92-2.37,5.29-5.29,5.29h-31.84v29.38c0,2.92-2.37,5.29-5.29,5.29h-8.97c-2.92,0-5.29-2.37-5.29-5.29v-76.41c0-2.92,2.37-5.29,5.29-5.29h50.32Z"/>
      <path class="st0" d="M265.59,479.3c-6.02-3.28-10.66-7.9-13.97-13.85-3.3-5.94-4.96-12.8-4.96-20.58v-44.03c0-2.92,2.37-5.29,5.29-5.29h8.97c2.92,0,5.29,2.37,5.29,5.29v44.03c0,4.65.81,8.67,2.45,12.05,1.63,3.39,3.96,5.98,6.98,7.78,3.02,1.8,6.59,2.7,10.72,2.7s7.79-.9,10.8-2.7c3.02-1.8,5.33-4.39,6.94-7.78,1.61-3.39,2.41-7.4,2.41-12.05v-44.03c0-2.92,2.37-5.29,5.29-5.29h8.97c2.92,0,5.29,2.37,5.29,5.29v44.03c0,7.77-1.64,14.63-4.92,20.58-3.28,5.94-7.93,10.56-13.93,13.85-6,3.29-12.96,4.92-20.84,4.92s-14.74-1.64-20.75-4.92Z"/>
      <path class="st0" d="M406.47,454.3c.07.1.18.15.3.15.2,0,.37-.16.37-.37v-52.99c0-2.92,2.37-5.29,5.29-5.29h9.17c2.92,0,5.29,2.37,5.29,5.29v76.15c0,2.92-2.37,5.29-5.29,5.29h-14.14c-1.71,0-3.3-.82-4.3-2.21l-40.47-56.47c-.1-.13-.25-.21-.41-.21-.29,0-.51.23-.51.51v53.08c0,2.92-2.37,5.29-5.29,5.29h-9.17c-2.92,0-5.29-2.37-5.29-5.29v-76.15c0-2.92,2.37-5.29,5.29-5.29h14.35c1.71,0,3.29.82,4.29,2.2l40.53,56.31Z"/>
      <path class="st0" d="M468.25,479.23c-4.4-1.68-8.48-3.92-12.24-6.71-2.42-1.81-2.47-5.32-.32-7.44l5.14-5.09c2.02-1.99,5.21-2.01,7.51-.34,2.29,1.66,4.64,2.98,7.06,3.96,3.81,1.55,7.88,2.31,12.22,2.31,3.23,0,6.04-.43,8.4-1.27,2.37-.84,4.17-2.05,5.41-3.61,1.24-1.56,1.86-3.39,1.86-5.47,0-1.76-.48-3.26-1.43-4.51-.95-1.24-2.56-2.35-4.81-3.33-2.26-.98-5.4-1.95-9.44-2.91l-4.52-1.08c-9.22-2.21-16.16-5.41-20.86-9.61-4.7-4.2-7.05-9.34-7.05-15.38,0-5,1.48-9.52,4.46-13.55,2.97-4.02,7.06-7.17,12.25-9.43,5.21-2.26,11.07-3.4,17.58-3.4s12.21,1.12,17.9,3.36c3.97,1.56,7.63,3.58,11,6.06,2.42,1.78,2.48,5.26.37,7.4l-5,5.03c-2.01,2.03-5.24,2.04-7.57.39-1.91-1.35-3.87-2.45-5.88-3.28-3.41-1.42-7.02-2.13-10.83-2.13-2.74,0-5.22.39-7.44,1.21-2.21.8-3.94,1.91-5.18,3.33-1.24,1.42-1.86,3.05-1.86,4.9,0,1.45.44,2.67,1.3,3.7.86,1.02,2.24,1.95,4.12,2.79,1.88.84,4.42,1.64,7.6,2.4l4.52,1.08c7.05,1.64,12.81,3.7,17.31,6.17,4.5,2.47,7.83,5.38,9.99,8.74,2.17,3.36,3.25,7.27,3.25,11.72,0,5.33-1.5,10.08-4.49,14.24-2.99,4.16-7.16,7.42-12.53,9.76s-11.51,3.51-18.47,3.51-13.24-1.18-19.36-3.51h.05Z"/>
      <path class="st0" d="M558.34,394.18c2.09,0,3.97,1.22,4.83,3.14l25.02,55.99c.06.15.21.25.38.25s.31-.1.38-.25l25.02-55.99c.85-1.9,2.74-3.14,4.83-3.14h15.95c2.92,0,5.29,2.37,5.29,5.29v76.15c0,2.92-2.37,5.29-5.29,5.29h-8.65c-2.92,0-5.29-2.37-5.29-5.29v-48.03c0-.16-.13-.29-.29-.29-.12,0-.22.07-.28.18l-22.11,50.28c-.85,1.92-2.74,3.16-4.84,3.16h-9.41c-2.1,0-4-1.24-4.84-3.16l-22.11-50.28c-.04-.11-.16-.18-.28-.18-.17,0-.3.13-.3.3v48.03c0,2.92-2.37,5.29-5.29,5.29h-8.65c-2.92,0-5.29-2.37-5.29-5.29v-76.15c0-2.92,2.37-5.29,5.29-5.29h15.92Z"/>
      <path class="st0" d="M668.75,479.23c-4.4-1.68-8.49-3.92-12.24-6.71-2.42-1.8-2.47-5.31-.32-7.43l5.14-5.09c2.02-1.99,5.22-2.01,7.51-.34,2.29,1.66,4.64,2.98,7.05,3.96,3.81,1.55,7.89,2.31,12.22,2.31,3.23,0,6.04-.43,8.4-1.27,2.37-.84,4.17-2.05,5.41-3.61,1.24-1.56,1.86-3.39,1.86-5.47,0-1.76-.48-3.26-1.43-4.51-.96-1.24-2.55-2.35-4.81-3.33-2.26-.98-5.4-1.95-9.44-2.91l-4.52-1.08c-9.22-2.21-16.16-5.41-20.86-9.61-4.7-4.2-7.05-9.34-7.05-15.38,0-5,1.48-9.53,4.46-13.55,2.96-4.02,7.05-7.17,12.25-9.43,5.21-2.26,11.07-3.4,17.57-3.4s12.21,1.12,17.9,3.36c3.97,1.56,7.63,3.58,11,6.06,2.42,1.78,2.48,5.26.37,7.4l-5,5.03c-2.01,2.03-5.24,2.04-7.57.39-1.91-1.35-3.87-2.45-5.88-3.28-3.41-1.42-7.02-2.14-10.83-2.14-2.74,0-5.22.39-7.44,1.21-2.22.8-3.95,1.91-5.18,3.33-1.24,1.42-1.86,3.06-1.86,4.9,0,1.45.44,2.67,1.29,3.7.86,1.02,2.24,1.95,4.12,2.79,1.88.84,4.42,1.64,7.6,2.4l4.52,1.08c7.05,1.64,12.81,3.7,17.31,6.17,4.5,2.47,7.83,5.38,9.99,8.74,2.17,3.36,3.25,7.27,3.25,11.72,0,5.33-1.5,10.08-4.49,14.24-2.99,4.16-7.16,7.42-12.53,9.76-5.36,2.34-11.51,3.51-18.47,3.51s-13.23-1.18-19.36-3.51h.06Z"/>
      <path class="st2" d="M494.68,318.32c0-7.47-6.05-13.52-13.51-13.52s-13.51,6.05-13.51,13.52,6.04,13.52,13.51,13.52,13.51-6.05,13.51-13.52Z"/>
      <path class="st2" d="M374.48,317.32c1.93-1.91,5.03-1.88,7.06-.09,12.4,10.9,28.66,17.49,46.46,17.49,19.56,0,37.27-7.97,50.03-20.86l6.97,6.93c-14.54,14.67-34.72,23.77-57.01,23.77-20.52,0-39.26-7.71-53.45-20.39-2.01-1.82-1.99-4.94-.06-6.85Z"/>
    </g>
  </g>
  <path class="st0" d="M536.55,255.24c-1.35-58.64-50.36-105.63-109-104.6-28.81.5-54.86,12.38-73.82,31.34-19.4,19.39-31.39,46.17-31.39,75.76,0,1.77.06,3.53.14,5.29v91.61c0,4,4.84,6.01,7.67,3.18l23.95-23.95c19.35,19.16,45.97,31,75.36,31,27.87,0,53.25-10.64,72.31-28.08,1.88-1.72,1.91-4.67.12-6.47l-32.24-32.28c-1.45-1.45-3.67-1.64-5.43-.61-1.99,1.17-4.31,1.83-6.79,1.83-7.44,0-13.47-6.04-13.47-13.47,0-.09,0-.18.02-.27.07-3.61,1.55-6.88,3.93-9.26h0c2.43-2.44,5.8-3.95,9.52-3.95,6.18,0,11.37,4.16,12.96,9.83.56,1.98,2.3,3.38,4.35,3.38h54.7c2.09,0,3.91-1.45,4.38-3.48,1.99-8.59,2.95-17.56,2.75-26.79Z"/>
</svg>