<svg width="600" height="1050" viewBox="0 0 600 1050" fill="none" xmlns="http://www.w3.org/2000/svg">
<g clip-path="url(#clip0_1347_368)">
<rect width="1050" height="600" transform="translate(4.5897e-05 1050) rotate(-90)" fill="white"/>
<path d="M60.2918 30.4942H36.5009C35.1203 30.4942 33.9998 31.6043 33.9998 32.9721V68.7392C33.9998 70.1071 35.1203 71.2172 36.5009 71.2172H40.7429C42.1235 71.2172 43.244 70.1071 43.244 68.7392V54.9865H58.2909C59.6715 54.9865 60.792 53.8763 60.792 52.5085V50.0949C60.792 48.7271 59.6715 47.617 58.2909 47.617H43.249V38.3097H60.2968C61.6774 38.3097 62.7979 37.1996 62.7979 35.8317V32.9721C62.7929 31.6043 61.6774 30.4942 60.2918 30.4942Z" fill="#36BCF8"/>
<path d="M103.645 30.4942H99.4035C98.0228 30.4942 96.9023 31.6043 96.9023 32.9721V53.5839C96.9023 55.7596 96.5221 57.6379 95.7618 59.2238C95.0014 60.8097 93.9109 62.0239 92.4853 62.8664C91.0596 63.7089 89.3339 64.1302 87.378 64.1302C85.4221 64.1302 83.7313 63.7089 82.3057 62.8664C80.88 62.0239 79.7795 60.8097 79.0092 59.2238C78.2388 57.6428 77.8536 55.7596 77.8536 53.5839V32.9721C77.8536 31.6043 76.7331 30.4942 75.3525 30.4942H71.1106C69.7299 30.4942 68.6094 31.6043 68.6094 32.9721V53.5839C68.6094 57.2216 69.3898 60.433 70.9555 63.2133C72.5162 65.9986 74.7172 68.1643 77.5585 69.6957C80.3998 71.2321 83.6513 72.0002 87.378 72.0002C91.1047 72.0002 94.3912 71.2321 97.2325 69.6957C100.074 68.1544 102.27 65.9936 103.82 63.2133C105.371 60.4281 106.147 57.2216 106.147 53.5839V32.9721C106.147 31.6043 105.026 30.4942 103.645 30.4942Z" fill="#36BCF8"/>
<path d="M151.307 30.6105H146.97C145.59 30.6105 144.469 31.7206 144.469 33.0884V57.8929C144.469 57.9871 144.394 58.0614 144.299 58.0614C144.244 58.0614 144.194 58.0367 144.159 57.9921L124.995 31.6363C124.525 30.9921 123.77 30.6055 122.964 30.6055H116.181C114.801 30.6055 113.68 31.7156 113.68 33.0835V68.7316C113.68 70.0994 114.801 71.2096 116.181 71.2096H120.518C121.899 71.2096 123.019 70.0994 123.019 68.7316V43.8874C123.019 43.7536 123.125 43.6495 123.26 43.6495C123.34 43.6495 123.41 43.6842 123.455 43.7487L142.588 70.1787C143.059 70.828 143.814 71.2145 144.619 71.2145H151.307C152.688 71.2145 153.809 70.1044 153.809 68.7366V33.0884C153.809 31.7206 152.688 30.6105 151.307 30.6105Z" fill="#36BCF8"/>
<path d="M193.012 48.8486C190.886 47.6939 188.165 46.7324 184.833 45.9642L182.697 45.4587C181.192 45.1019 179.991 44.7252 179.101 44.3337C178.215 43.9422 177.56 43.5061 177.155 43.0254C176.75 42.5496 176.545 41.9697 176.545 41.2957C176.545 40.4334 176.84 39.6652 177.425 39.0011C178.015 38.337 178.831 37.8167 179.876 37.44C180.922 37.0634 182.097 36.875 183.393 36.875C185.194 36.875 186.899 37.2071 188.51 37.8712C189.46 38.2627 190.381 38.7732 191.286 39.4075C192.387 40.1806 193.913 40.1707 194.863 39.2241L197.229 36.8701C198.229 35.8739 198.199 34.2385 197.059 33.4059C195.463 32.2462 193.732 31.2996 191.857 30.5711C189.165 29.5204 186.474 29 183.393 29C180.316 29 177.545 29.5353 175.084 30.5909C172.623 31.6515 170.697 33.1234 169.291 35.0066C167.886 36.8899 167.185 39.0061 167.185 41.3453C167.185 44.1751 168.296 46.5788 170.517 48.5463C172.738 50.5188 176.024 52.0154 180.381 53.0463L182.517 53.5518C184.428 53.9978 185.914 54.4538 186.979 54.9147C188.045 55.3756 188.805 55.896 189.255 56.4758C189.706 57.0606 189.931 57.7594 189.931 58.587C189.931 59.5584 189.636 60.4158 189.05 61.1443C188.465 61.8778 187.61 62.4378 186.494 62.8343C185.374 63.2258 184.053 63.424 182.522 63.424C180.471 63.424 178.551 63.0623 176.745 62.3436C175.604 61.8877 174.494 61.2682 173.408 60.4901C172.323 59.712 170.807 59.717 169.857 60.6487L167.425 63.0325C166.41 64.0287 166.435 65.674 167.581 66.5166C169.356 67.8249 171.287 68.8706 173.368 69.6586H173.348C176.244 70.7539 179.216 71.304 182.502 71.304C185.789 71.304 188.695 70.7539 191.231 69.6586C193.767 68.5634 195.738 67.0419 197.154 65.0892C198.565 63.1415 199.275 60.9213 199.275 58.4235C199.275 56.342 198.765 54.5132 197.739 52.9373C196.714 51.3662 195.138 50.0033 193.012 48.8486Z" fill="#36BCF8"/>
<path d="M252.074 29.8506H244.531C243.545 29.8506 242.65 30.4255 242.245 31.3176L230.419 57.5246C230.389 57.594 230.319 57.6386 230.239 57.6386C230.159 57.6386 230.089 57.594 230.059 57.5246L218.234 31.3176C217.829 30.4255 216.938 29.8506 215.953 29.8506H208.409C207.029 29.8506 205.908 30.9607 205.908 32.3286V67.9767C205.908 69.3446 207.029 70.4547 208.409 70.4547H212.501C213.882 70.4547 215.002 69.3446 215.002 67.9767V45.5015C215.002 45.4222 215.067 45.3578 215.147 45.3578C215.202 45.3578 215.258 45.3925 215.278 45.442L225.732 68.9778C226.132 69.8798 227.028 70.4596 228.023 70.4596H232.475C233.466 70.4596 234.366 69.8798 234.766 68.9778L245.221 45.442C245.241 45.3925 245.296 45.3578 245.351 45.3578C245.426 45.3578 245.491 45.4222 245.491 45.4965V67.9767C245.491 69.3446 246.612 70.4547 247.992 70.4547H252.084C253.465 70.4547 254.585 69.3446 254.585 67.9767V32.3286C254.575 30.9607 253.455 29.8506 252.074 29.8506Z" fill="#36BCF8"/>
<path d="M292.512 52.9392C291.487 51.3682 289.911 50.0053 287.785 48.8506C285.659 47.6958 282.933 46.7344 279.607 45.9662L277.471 45.4607C275.965 45.1039 274.764 44.7272 273.874 44.3357C272.984 43.9442 272.333 43.508 271.928 43.0273C271.523 42.5515 271.318 41.9717 271.318 41.2977C271.318 40.4354 271.613 39.6672 272.198 39.0031C272.783 38.339 273.604 37.8186 274.649 37.442C275.695 37.0653 276.87 36.877 278.166 36.877C279.967 36.877 281.673 37.209 283.283 37.8731C284.229 38.2646 285.154 38.7751 286.06 39.4095C287.16 40.1826 288.686 40.1727 289.641 39.2261L292.007 36.872C293.008 35.8759 292.978 34.2404 291.837 33.4078C290.241 32.2481 288.511 31.3015 286.635 30.573C283.944 29.5224 281.252 29.002 278.171 29.002C275.095 29.002 272.323 29.5372 269.862 30.5928C267.401 31.6534 265.47 33.1253 264.069 35.0086C262.664 36.8918 261.964 39.008 261.964 41.3472C261.964 44.1771 263.074 46.5807 265.295 48.5482C267.516 50.5207 270.803 52.0174 275.155 53.0482L277.291 53.5537C279.196 53.9998 280.687 54.4557 281.753 54.9166C282.818 55.3775 283.578 55.8979 284.029 56.4778C284.479 57.0626 284.704 57.7613 284.704 58.589C284.704 59.5604 284.409 60.4177 283.823 61.1463C283.238 61.8797 282.383 62.4398 281.267 62.8362C280.147 63.2278 278.826 63.426 277.296 63.426C275.245 63.426 273.319 63.0642 271.518 62.3456C270.377 61.8896 269.267 61.2702 268.181 60.4921C267.096 59.714 265.585 59.7189 264.63 60.6507L262.199 63.0345C261.183 64.0306 261.208 65.671 262.354 66.5135C264.13 67.8219 266.06 68.8676 268.141 69.6556H268.121C271.023 70.7509 273.989 71.301 277.276 71.301C280.562 71.301 283.473 70.7509 286.005 69.6556C288.541 68.5604 290.512 67.0389 291.927 65.0862C293.338 63.1385 294.048 60.9183 294.048 58.4205C294.048 56.3439 293.538 54.5102 292.512 52.9392Z" fill="#36BCF8"/>
<path d="M43.875 116.656C43.875 118.542 43.5209 120.406 42.8125 122.25C42.1042 124.083 41.1615 125.719 39.9844 127.156C38.8073 128.594 37.5313 129.698 36.1563 130.469L34.875 128.891C36.1563 128.234 37.3594 127.255 38.4844 125.953C39.6094 124.651 40.5157 123.177 41.2032 121.531C41.9011 119.885 42.25 118.26 42.25 116.656V111.328H43.875V116.656ZM44.1719 116.656C44.1719 118.198 44.5157 119.755 45.2032 121.328C45.8907 122.901 46.8021 124.307 47.9375 125.547C49.073 126.776 50.2605 127.708 51.5 128.344L50.2813 129.938C48.9063 129.188 47.6303 128.125 46.4532 126.75C45.2761 125.365 44.3334 123.792 43.625 122.031C42.9271 120.26 42.5782 118.469 42.5782 116.656V111.328H44.1719V116.656ZM56.4375 136.438H54.4532V108.859H56.4375V136.438ZM61.2032 121.953H55.9532V120.234H61.2032V121.953ZM73 128.797H71.0157V122.625H73V128.797ZM85.3907 129.859H83.4063V108.891H85.3907V129.859ZM86.1094 135.781H66.8125V134.109H86.1094V135.781ZM68.7969 134.594H66.8125V127.781H68.7969V134.594ZM62.7032 121.828C66.3594 121.818 69.625 121.766 72.5 121.672C75.375 121.578 78.1198 121.359 80.7344 121.016L80.875 122.484C78.198 122.911 75.3855 123.193 72.4375 123.328C69.4896 123.453 66.3438 123.505 63 123.484L62.7032 121.828ZM83.9844 126.766H77.5782V125.281H83.9844V126.766ZM71.7813 110.063C73.1355 110.063 74.3178 110.255 75.3282 110.641C76.349 111.026 77.1459 111.583 77.7188 112.313C78.2917 113.042 78.5782 113.88 78.5782 114.828C78.5782 115.797 78.2917 116.635 77.7188 117.344C77.1459 118.052 76.349 118.604 75.3282 119C74.3178 119.385 73.1355 119.578 71.7813 119.578C70.4375 119.578 69.25 119.385 68.2188 119C67.198 118.604 66.4011 118.052 65.8282 117.344C65.2657 116.635 64.9844 115.797 64.9844 114.828C64.9844 113.88 65.2657 113.042 65.8282 112.313C66.4011 111.583 67.198 111.026 68.2188 110.641C69.25 110.255 70.4375 110.063 71.7813 110.063ZM71.7813 111.594C70.823 111.573 69.9688 111.703 69.2188 111.984C68.4792 112.255 67.9011 112.641 67.4844 113.141C67.0782 113.641 66.875 114.203 66.875 114.828C66.875 115.453 67.0782 116.016 67.4844 116.516C67.8907 117.005 68.4636 117.391 69.2032 117.672C69.9532 117.943 70.8125 118.078 71.7813 118.078C72.7292 118.078 73.573 117.943 74.3125 117.672C75.0625 117.391 75.6459 117.005 76.0625 116.516C76.4792 116.016 76.6875 115.453 76.6875 114.828C76.6875 114.203 76.474 113.641 76.0469 113.141C75.6303 112.641 75.0521 112.255 74.3125 111.984C73.573 111.703 72.7292 111.573 71.7813 111.594ZM120.906 136.484H118.922V108.859H120.906V136.484ZM106.344 111.063C107.698 111.063 108.901 111.458 109.953 112.25C111.005 113.031 111.823 114.141 112.406 115.578C113 117.016 113.297 118.693 113.297 120.609C113.297 122.505 113 124.172 112.406 125.609C111.823 127.047 111.005 128.156 109.953 128.938C108.901 129.719 107.698 130.109 106.344 130.109C104.99 130.109 103.787 129.719 102.734 128.938C101.682 128.156 100.859 127.047 100.266 125.609C99.6719 124.172 99.375 122.505 99.375 120.609C99.375 118.693 99.6719 117.016 100.266 115.578C100.859 114.141 101.682 113.031 102.734 112.25C103.787 111.458 104.99 111.063 106.344 111.063ZM106.344 112.797C105.365 112.797 104.49 113.13 103.719 113.797C102.948 114.453 102.349 115.37 101.922 116.547C101.495 117.724 101.281 119.078 101.281 120.609C101.281 122.109 101.495 123.453 101.922 124.641C102.349 125.818 102.948 126.734 103.719 127.391C104.49 128.047 105.365 128.375 106.344 128.375C107.323 128.375 108.193 128.047 108.953 127.391C109.724 126.734 110.323 125.818 110.75 124.641C111.177 123.453 111.391 122.109 111.391 120.609C111.391 119.078 111.177 117.724 110.75 116.547C110.323 115.37 109.729 114.453 108.969 113.797C108.208 113.13 107.333 112.797 106.344 112.797ZM147.328 117.859H140.719V116.203H147.328V117.859ZM148.656 125.313H146.672V108.859H148.656V125.313ZM139.609 126.25C141.505 126.25 143.141 126.448 144.516 126.844C145.891 127.24 146.938 127.818 147.656 128.578C148.385 129.339 148.75 130.25 148.75 131.313C148.75 132.375 148.385 133.286 147.656 134.047C146.938 134.807 145.891 135.385 144.516 135.781C143.141 136.177 141.505 136.385 139.609 136.406C137.714 136.385 136.078 136.177 134.703 135.781C133.339 135.385 132.287 134.807 131.547 134.047C130.818 133.286 130.453 132.375 130.453 131.313C130.453 130.25 130.818 129.339 131.547 128.578C132.287 127.818 133.339 127.24 134.703 126.844C136.078 126.448 137.714 126.25 139.609 126.25ZM139.609 127.813C138.162 127.813 136.891 127.953 135.797 128.234C134.703 128.516 133.859 128.922 133.266 129.453C132.682 129.984 132.391 130.604 132.391 131.313C132.391 132.01 132.682 132.625 133.266 133.156C133.859 133.677 134.703 134.078 135.797 134.359C136.891 134.641 138.162 134.781 139.609 134.781C141.068 134.781 142.339 134.641 143.422 134.359C144.505 134.078 145.339 133.677 145.922 133.156C146.516 132.625 146.813 132.01 146.813 131.313C146.813 130.604 146.516 129.984 145.922 129.453C145.339 128.922 144.505 128.516 143.422 128.234C142.339 127.953 141.068 127.813 139.609 127.813ZM134.922 114.109C134.922 115.724 134.578 117.255 133.891 118.703C133.214 120.141 132.292 121.401 131.125 122.484C129.958 123.557 128.641 124.385 127.172 124.969L126.141 123.375C127.474 122.885 128.682 122.167 129.766 121.219C130.859 120.271 131.719 119.177 132.344 117.938C132.969 116.698 133.281 115.422 133.281 114.109V111.656H134.922V114.109ZM135.25 114.078C135.25 115.276 135.552 116.443 136.156 117.578C136.76 118.703 137.594 119.703 138.656 120.578C139.719 121.443 140.896 122.109 142.188 122.578L141.141 124.172C139.703 123.63 138.417 122.854 137.281 121.844C136.156 120.823 135.266 119.641 134.609 118.297C133.953 116.953 133.625 115.547 133.625 114.078V111.656H135.25V114.078ZM141.641 112.672H126.828V111H141.641V112.672ZM178.797 124.734H153.563V123.063H178.797V124.734ZM167.375 130.641H165.391V124.078H167.375V130.641ZM175.969 135.781H156.891V134.078H175.969V135.781ZM158.859 134.609H156.891V127.797H158.859V134.609ZM166.141 109.625C168.089 109.625 169.787 109.849 171.234 110.297C172.682 110.734 173.797 111.365 174.578 112.188C175.37 113.01 175.766 113.984 175.766 115.109C175.766 116.224 175.37 117.193 174.578 118.016C173.797 118.828 172.682 119.453 171.234 119.891C169.787 120.328 168.089 120.547 166.141 120.547C164.214 120.547 162.521 120.328 161.063 119.891C159.604 119.453 158.479 118.828 157.688 118.016C156.896 117.193 156.5 116.224 156.5 115.109C156.5 113.984 156.896 113.01 157.688 112.188C158.479 111.365 159.604 110.734 161.063 110.297C162.521 109.849 164.214 109.625 166.141 109.625ZM166.141 111.266C164.662 111.266 163.344 111.427 162.188 111.75C161.042 112.063 160.151 112.51 159.516 113.094C158.891 113.667 158.578 114.339 158.578 115.109C158.578 115.87 158.891 116.536 159.516 117.109C160.151 117.682 161.042 118.125 162.188 118.438C163.344 118.75 164.662 118.906 166.141 118.906C167.641 118.906 168.958 118.75 170.094 118.438C171.24 118.125 172.13 117.682 172.766 117.109C173.401 116.536 173.719 115.87 173.719 115.109C173.719 114.339 173.401 113.667 172.766 113.094C172.13 112.51 171.24 112.063 170.094 111.75C168.958 111.427 167.641 111.266 166.141 111.266Z" fill="black"/>
<path d="M57.8438 206.484H55.8594V178.859H57.8438V206.484ZM39.2344 197.797C42.099 197.797 44.5261 197.734 46.5157 197.609C48.5053 197.474 50.5261 197.219 52.5782 196.844L52.7969 198.547C50.6823 198.911 48.625 199.161 46.625 199.297C44.625 199.432 42.1615 199.51 39.2344 199.531H37.0469V197.797H39.2344ZM50.0782 183.234H39.0313V198.438H37.0469V181.563H50.0782V183.234ZM71.5938 187.641C71.5938 189.432 71.2188 191.234 70.4688 193.047C69.7188 194.849 68.7344 196.458 67.5157 197.875C66.3073 199.292 65.0313 200.359 63.6875 201.078L62.4688 199.516C63.7292 198.891 64.9375 197.938 66.0938 196.656C67.2605 195.375 68.2032 193.938 68.9219 192.344C69.6511 190.74 70.0157 189.172 70.0157 187.641V182.641H71.5938V187.641ZM71.9219 187.641C71.9219 189.089 72.2553 190.563 72.9219 192.063C73.599 193.552 74.5 194.901 75.625 196.109C76.75 197.318 77.9532 198.229 79.2344 198.844L78.0782 200.406C76.7136 199.708 75.4375 198.693 74.25 197.359C73.0625 196.016 72.1094 194.49 71.3907 192.781C70.6823 191.073 70.3282 189.359 70.3282 187.641V182.641H71.9219V187.641ZM78.3282 183.422H63.4219V181.75H78.3282V183.422ZM84.0938 206.438H82.1094V178.859H84.0938V206.438ZM88.8594 191.922H83.6094V190.219H88.8594V191.922ZM113.203 199.141H111.234V178.891H113.203V199.141ZM114.094 205.781H95.5938V204.109H114.094V205.781ZM97.5469 204.594H95.5938V197.063H97.5469V204.594ZM98.375 180.875C99.7292 180.875 100.948 181.156 102.031 181.719C103.125 182.271 103.974 183.063 104.578 184.094C105.193 185.115 105.5 186.271 105.5 187.563C105.5 188.875 105.193 190.042 104.578 191.063C103.974 192.073 103.125 192.865 102.031 193.438C100.948 194 99.7292 194.281 98.375 194.281C97.0209 194.281 95.8021 194 94.7188 193.438C93.6355 192.865 92.7865 192.073 92.1719 191.063C91.5573 190.042 91.25 188.875 91.25 187.563C91.25 186.271 91.5573 185.115 92.1719 184.094C92.7865 183.063 93.6355 182.271 94.7188 181.719C95.8021 181.156 97.0209 180.875 98.375 180.875ZM98.375 182.609C97.3959 182.609 96.5053 182.823 95.7032 183.25C94.9115 183.677 94.2917 184.271 93.8438 185.031C93.4063 185.781 93.1875 186.625 93.1875 187.563C93.1875 188.5 93.4063 189.354 93.8438 190.125C94.2917 190.885 94.9115 191.479 95.7032 191.906C96.5053 192.333 97.3959 192.547 98.375 192.547C99.3542 192.547 100.24 192.333 101.031 191.906C101.823 191.479 102.443 190.885 102.891 190.125C103.349 189.354 103.578 188.5 103.578 187.563C103.578 186.625 103.349 185.781 102.891 185.031C102.443 184.271 101.823 183.677 101.031 183.25C100.24 182.823 99.3542 182.609 98.375 182.609ZM134.594 186.656C134.594 188.542 134.24 190.406 133.531 192.25C132.823 194.083 131.88 195.719 130.703 197.156C129.526 198.594 128.25 199.698 126.875 200.469L125.594 198.891C126.875 198.234 128.078 197.255 129.203 195.953C130.328 194.651 131.234 193.177 131.922 191.531C132.62 189.885 132.969 188.26 132.969 186.656V181.328H134.594V186.656ZM134.891 186.656C134.891 188.198 135.234 189.755 135.922 191.328C136.609 192.901 137.521 194.307 138.656 195.547C139.792 196.776 140.979 197.708 142.219 198.344L141 199.938C139.625 199.188 138.349 198.125 137.172 196.75C135.995 195.365 135.052 193.792 134.344 192.031C133.646 190.26 133.297 188.469 133.297 186.656V181.328H134.891V186.656ZM147.156 206.438H145.172V178.859H147.156V206.438ZM151.922 191.953H146.672V190.234H151.922V191.953ZM175.203 187.281H167.547V185.625H175.203V187.281ZM161.156 180.188C162.521 180.167 163.734 180.427 164.797 180.969C165.859 181.5 166.698 182.245 167.313 183.203C167.927 184.161 168.234 185.26 168.234 186.5C168.234 187.74 167.927 188.839 167.313 189.797C166.698 190.755 165.859 191.5 164.797 192.031C163.734 192.552 162.521 192.813 161.156 192.813C159.781 192.813 158.552 192.552 157.469 192.031C156.396 191.5 155.557 190.755 154.953 189.797C154.359 188.839 154.063 187.74 154.063 186.5C154.063 185.26 154.359 184.161 154.953 183.203C155.557 182.245 156.401 181.5 157.484 180.969C158.568 180.427 159.792 180.167 161.156 180.188ZM161.156 181.891C160.156 181.87 159.26 182.057 158.469 182.453C157.677 182.849 157.057 183.401 156.609 184.109C156.172 184.807 155.953 185.604 155.953 186.5C155.953 187.375 156.172 188.167 156.609 188.875C157.057 189.583 157.677 190.141 158.469 190.547C159.26 190.943 160.156 191.141 161.156 191.141C162.156 191.141 163.047 190.943 163.828 190.547C164.609 190.141 165.219 189.583 165.656 188.875C166.104 188.167 166.328 187.375 166.328 186.5C166.328 185.604 166.104 184.807 165.656 184.109C165.219 183.401 164.609 182.849 163.828 182.453C163.047 182.057 162.156 181.87 161.156 181.891ZM176.313 193.641H174.328V178.859H176.313V193.641ZM160.75 198.859H174.328V195.078H176.313V206.031H158.766V195.078H160.75V198.859ZM174.328 204.406V200.484H160.75V204.406H174.328ZM206.453 197.016H181.219V195.359H206.453V197.016ZM194.734 206.438H192.813V196.047H194.734V206.438ZM186.484 184.047H201.156V180.016H203.125V191.797H184.531V180.016H186.484V184.047ZM201.156 190.188V185.688H186.484V190.188H201.156Z" fill="black"/>
<path d="M35.3438 251.375H51.9063V253.359H44.75V274H42.5V253.359H35.3438V251.375ZM64.8907 274.172C64.599 274.172 64.323 274.094 64.0625 273.938C63.8021 273.781 63.599 273.578 63.4532 273.328C63.3073 273.068 63.2344 272.786 63.2344 272.484C63.2344 272.193 63.3073 271.917 63.4532 271.656C63.599 271.396 63.8021 271.193 64.0625 271.047C64.323 270.901 64.6042 270.828 64.9063 270.828C65.198 270.828 65.474 270.901 65.7344 271.047C65.9948 271.193 66.198 271.396 66.3438 271.656C66.4896 271.917 66.5625 272.193 66.5625 272.484C66.5625 272.786 66.4896 273.068 66.3438 273.328C66.198 273.578 65.9948 273.781 65.7344 273.938C65.474 274.094 65.1928 274.172 64.8907 274.172ZM85.8438 274.313C84.2396 274.313 82.8698 273.854 81.7344 272.938C80.599 272.021 79.724 270.693 79.1094 268.953C78.5053 267.214 78.2032 265.125 78.2032 262.688C78.2032 260.26 78.5053 258.177 79.1094 256.438C79.724 254.698 80.6042 253.37 81.75 252.453C82.8959 251.526 84.2605 251.063 85.8438 251.063C87.4271 251.063 88.7917 251.526 89.9375 252.453C91.0834 253.37 91.9584 254.698 92.5625 256.438C93.1667 258.177 93.4688 260.26 93.4688 262.688C93.4688 265.125 93.1719 267.214 92.5782 268.953C91.9844 270.693 91.1094 272.021 89.9532 272.938C88.8073 273.854 87.4375 274.313 85.8438 274.313ZM85.8438 272.313C86.9792 272.313 87.9532 271.938 88.7657 271.188C89.5886 270.427 90.2136 269.328 90.6407 267.891C91.0782 266.443 91.2969 264.708 91.2969 262.688C91.2969 260.667 91.0782 258.932 90.6407 257.484C90.2136 256.026 89.5886 254.917 88.7657 254.156C87.9532 253.396 86.9792 253.016 85.8438 253.016C84.7084 253.016 83.7292 253.396 82.9063 254.156C82.0834 254.917 81.448 256.026 81 257.484C80.5625 258.932 80.3438 260.667 80.3438 262.688C80.3438 264.708 80.5625 266.443 81 267.891C81.4375 269.328 82.0678 270.427 82.8907 271.188C83.724 271.938 84.7084 272.313 85.8438 272.313ZM104.625 274H102.375V253.703H102.25L96.8907 257.234V254.953L102.313 251.375H104.625V274ZM118.031 274.313C116.427 274.313 115.057 273.854 113.922 272.938C112.787 272.021 111.912 270.693 111.297 268.953C110.693 267.214 110.391 265.125 110.391 262.688C110.391 260.26 110.693 258.177 111.297 256.438C111.912 254.698 112.792 253.37 113.938 252.453C115.083 251.526 116.448 251.063 118.031 251.063C119.615 251.063 120.979 251.526 122.125 252.453C123.271 253.37 124.146 254.698 124.75 256.438C125.354 258.177 125.656 260.26 125.656 262.688C125.656 265.125 125.359 267.214 124.766 268.953C124.172 270.693 123.297 272.021 122.141 272.938C120.995 273.854 119.625 274.313 118.031 274.313ZM118.031 272.313C119.167 272.313 120.141 271.938 120.953 271.188C121.776 270.427 122.401 269.328 122.828 267.891C123.266 266.443 123.484 264.708 123.484 262.688C123.484 260.667 123.266 258.932 122.828 257.484C122.401 256.026 121.776 254.917 120.953 254.156C120.141 253.396 119.167 253.016 118.031 253.016C116.896 253.016 115.917 253.396 115.094 254.156C114.271 254.917 113.635 256.026 113.188 257.484C112.75 258.932 112.531 260.667 112.531 262.688C112.531 264.708 112.75 266.443 113.188 267.891C113.625 269.328 114.255 270.427 115.078 271.188C115.912 271.938 116.896 272.313 118.031 272.313ZM138.922 263.688H129.422V261.703H138.922V263.688ZM150.406 274H148.156V253.703H148.031L142.672 257.234V254.953L148.094 251.375H150.406V274ZM156.688 272.359L164.328 264.109C165.401 262.943 166.224 262 166.797 261.281C167.37 260.552 167.787 259.865 168.047 259.219C168.318 258.573 168.453 257.906 168.453 257.219C168.453 256.406 168.245 255.682 167.828 255.047C167.422 254.401 166.859 253.901 166.141 253.547C165.422 253.193 164.609 253.016 163.703 253.016C162.787 253.016 161.969 253.208 161.25 253.594C160.542 253.979 159.99 254.521 159.594 255.219C159.198 255.906 159 256.682 159 257.547H156.891C156.891 256.297 157.182 255.182 157.766 254.203C158.359 253.214 159.182 252.443 160.234 251.891C161.297 251.339 162.474 251.063 163.766 251.063C165.068 251.063 166.229 251.333 167.25 251.875C168.281 252.406 169.089 253.146 169.672 254.094C170.255 255.031 170.547 256.073 170.547 257.219C170.547 258.073 170.391 258.891 170.078 259.672C169.776 260.443 169.271 261.297 168.563 262.234C167.865 263.161 166.844 264.344 165.5 265.781L159.828 271.844V272H171.203V274H156.703L156.688 272.359ZM183.125 274.313C181.698 274.313 180.412 274.063 179.266 273.563C178.13 273.052 177.234 272.344 176.578 271.438C175.922 270.531 175.568 269.495 175.516 268.328H177.766C177.807 269.099 178.068 269.792 178.547 270.406C179.026 271.01 179.662 271.479 180.453 271.813C181.255 272.146 182.141 272.313 183.109 272.313C184.151 272.313 185.089 272.12 185.922 271.734C186.755 271.349 187.401 270.828 187.859 270.172C188.328 269.505 188.563 268.755 188.563 267.922C188.563 267.026 188.323 266.234 187.844 265.547C187.375 264.849 186.698 264.313 185.813 263.938C184.927 263.552 183.875 263.359 182.656 263.359H181.25V261.391H182.656C183.646 261.391 184.526 261.219 185.297 260.875C186.078 260.521 186.682 260.026 187.109 259.391C187.547 258.745 187.766 258 187.766 257.156C187.766 256.344 187.573 255.625 187.188 255C186.813 254.375 186.276 253.891 185.578 253.547C184.891 253.193 184.083 253.016 183.156 253.016C182.271 253.016 181.453 253.182 180.703 253.516C179.953 253.849 179.349 254.323 178.891 254.938C178.443 255.542 178.203 256.245 178.172 257.047H176.016C176.057 255.891 176.396 254.859 177.031 253.953C177.677 253.036 178.537 252.328 179.609 251.828C180.693 251.318 181.885 251.063 183.188 251.063C184.521 251.063 185.698 251.328 186.719 251.859C187.75 252.391 188.542 253.115 189.094 254.031C189.656 254.938 189.932 255.943 189.922 257.047C189.932 257.891 189.776 258.667 189.453 259.375C189.13 260.083 188.667 260.682 188.063 261.172C187.458 261.651 186.75 262.01 185.938 262.25V262.391C186.927 262.568 187.781 262.911 188.5 263.422C189.219 263.932 189.771 264.573 190.156 265.344C190.552 266.104 190.745 266.964 190.734 267.922C190.745 269.109 190.422 270.193 189.766 271.172C189.109 272.151 188.198 272.922 187.031 273.484C185.865 274.036 184.563 274.313 183.125 274.313ZM194.484 267.375L204.813 251.375H206.156V254.344H205.156L196.953 267.047V267.219H210.594V269.188H194.484V267.375ZM205.375 268.625V267.781V251.375H207.516V274H205.375V268.625ZM223.828 263.688H214.328V261.703H223.828V263.688ZM235.094 274.313C233.792 274.313 232.609 274.057 231.547 273.547C230.495 273.026 229.662 272.313 229.047 271.406C228.432 270.5 228.104 269.474 228.063 268.328H230.219C230.271 269.089 230.516 269.771 230.953 270.375C231.391 270.979 231.969 271.458 232.688 271.813C233.417 272.167 234.219 272.344 235.094 272.344C236.125 272.344 237.052 272.104 237.875 271.625C238.708 271.146 239.359 270.49 239.828 269.656C240.297 268.823 240.526 267.896 240.516 266.875C240.516 265.813 240.271 264.865 239.781 264.031C239.302 263.188 238.635 262.531 237.781 262.063C236.938 261.594 235.995 261.359 234.953 261.359C233.964 261.339 233.094 261.5 232.344 261.844C231.604 262.177 231.016 262.708 230.578 263.438H228.359L229.922 251.375H241.688V253.359H231.781L230.813 260.859H231C231.5 260.391 232.135 260.021 232.906 259.75C233.677 259.479 234.479 259.344 235.313 259.344C236.688 259.344 237.938 259.661 239.063 260.297C240.188 260.922 241.073 261.807 241.719 262.953C242.365 264.099 242.688 265.391 242.688 266.828C242.688 268.255 242.359 269.542 241.703 270.688C241.047 271.823 240.141 272.714 238.984 273.359C237.839 273.995 236.542 274.313 235.094 274.313ZM254.328 274.313C252.901 274.302 251.594 273.948 250.406 273.25C249.229 272.542 248.271 271.391 247.531 269.797C246.792 268.203 246.422 266.141 246.422 263.609C246.422 261.078 246.734 258.875 247.359 257C247.995 255.115 248.927 253.656 250.156 252.625C251.385 251.583 252.885 251.063 254.656 251.063C255.917 251.063 257.042 251.313 258.031 251.813C259.021 252.302 259.828 253 260.453 253.906C261.078 254.813 261.464 255.859 261.609 257.047H259.422C259.266 256.266 258.979 255.573 258.563 254.969C258.156 254.365 257.62 253.896 256.953 253.563C256.287 253.229 255.521 253.063 254.656 253.063C253.365 253.063 252.26 253.438 251.344 254.188C250.438 254.938 249.74 256.036 249.25 257.484C248.771 258.922 248.531 260.667 248.531 262.719H248.781C249.167 262.052 249.656 261.479 250.25 261C250.844 260.51 251.521 260.13 252.281 259.859C253.042 259.589 253.833 259.453 254.656 259.453C255.958 259.453 257.162 259.776 258.266 260.422C259.38 261.057 260.26 261.938 260.906 263.063C261.552 264.188 261.875 265.448 261.875 266.844C261.875 268.219 261.557 269.479 260.922 270.625C260.287 271.76 259.396 272.661 258.25 273.328C257.115 273.984 255.807 274.313 254.328 274.313ZM254.328 272.344C255.339 272.344 256.25 272.099 257.063 271.609C257.885 271.109 258.531 270.443 259 269.609C259.479 268.766 259.719 267.854 259.719 266.875C259.719 265.865 259.484 264.948 259.016 264.125C258.547 263.292 257.901 262.635 257.078 262.156C256.266 261.677 255.349 261.438 254.328 261.438C253.307 261.438 252.37 261.693 251.516 262.203C250.672 262.714 250.01 263.396 249.531 264.25C249.063 265.094 248.854 266.005 248.906 266.984C248.979 267.974 249.26 268.88 249.75 269.703C250.24 270.516 250.88 271.161 251.672 271.641C252.464 272.109 253.349 272.344 254.328 272.344ZM277.219 253.5V253.359H265.063V251.375H279.547V253.453L269 274H266.672L277.219 253.5ZM290.313 274.313C288.813 274.313 287.464 274.042 286.266 273.5C285.078 272.948 284.146 272.198 283.469 271.25C282.802 270.292 282.469 269.224 282.469 268.047C282.469 267.109 282.672 266.229 283.078 265.406C283.484 264.573 284.047 263.88 284.766 263.328C285.495 262.776 286.297 262.427 287.172 262.281V262.156C286.422 261.948 285.755 261.599 285.172 261.109C284.589 260.609 284.135 260 283.813 259.281C283.49 258.563 283.328 257.797 283.328 256.984C283.328 255.87 283.635 254.859 284.25 253.953C284.865 253.047 285.698 252.339 286.75 251.828C287.813 251.318 289 251.063 290.313 251.063C291.615 251.063 292.802 251.318 293.875 251.828C294.948 252.328 295.792 253.036 296.406 253.953C297.021 254.859 297.328 255.87 297.328 256.984C297.328 257.797 297.162 258.563 296.828 259.281C296.495 260 296.037 260.609 295.453 261.109C294.87 261.599 294.203 261.948 293.453 262.156V262.281C294.339 262.417 295.135 262.766 295.844 263.328C296.563 263.88 297.13 264.573 297.547 265.406C297.964 266.229 298.172 267.109 298.172 268.047C298.172 269.224 297.833 270.292 297.156 271.25C296.479 272.198 295.542 272.948 294.344 273.5C293.156 274.042 291.813 274.313 290.313 274.313ZM290.313 272.344C291.417 272.344 292.396 272.156 293.25 271.781C294.115 271.396 294.781 270.87 295.25 270.203C295.719 269.526 295.953 268.766 295.953 267.922C295.953 267.047 295.708 266.255 295.219 265.547C294.74 264.839 294.068 264.281 293.203 263.875C292.339 263.469 291.375 263.266 290.313 263.266C289.25 263.266 288.287 263.469 287.422 263.875C286.568 264.281 285.896 264.839 285.406 265.547C284.917 266.255 284.677 267.047 284.688 267.922C284.677 268.766 284.906 269.526 285.375 270.203C285.854 270.87 286.521 271.396 287.375 271.781C288.229 272.156 289.208 272.344 290.313 272.344ZM290.313 261.375C291.219 261.375 292.042 261.193 292.781 260.828C293.531 260.464 294.115 259.958 294.531 259.313C294.948 258.667 295.156 257.948 295.156 257.156C295.156 256.344 294.948 255.625 294.531 255C294.125 254.375 293.552 253.891 292.813 253.547C292.073 253.193 291.24 253.016 290.313 253.016C289.385 253.016 288.552 253.193 287.813 253.547C287.073 253.891 286.495 254.375 286.078 255C285.672 255.625 285.469 256.344 285.469 257.156C285.469 257.948 285.682 258.667 286.109 259.313C286.537 259.958 287.115 260.464 287.844 260.828C288.583 261.193 289.406 261.375 290.313 261.375Z" fill="black"/>
<g clip-path="url(#clip1_1347_368)">
<path d="M351.624 801.851C358.441 795.035 367.873 790.81 378.285 790.81C395.59 790.81 410.128 802.455 414.58 818.326C416.139 823.859 421.019 827.783 426.753 827.783H579.954C585.814 827.783 590.895 823.734 592.228 818.049C597.812 794.004 600.503 768.877 599.925 743.021C596.177 578.779 458.898 447.184 294.655 450.051C213.968 451.459 141.027 484.735 87.9061 537.831C33.6031 592.109 4.5897e-05 667.137 4.5897e-05 750.013C4.5897e-05 776.926 3.57162 802.983 10.2117 827.783C44.4687 955.756 161.224 1050 300.013 1050C378.059 1050 449.139 1020.2 502.511 971.35C507.768 966.546 507.868 958.271 502.838 953.241L412.542 862.845C408.493 858.795 402.255 858.242 397.326 861.135C391.742 864.404 385.253 866.265 378.311 866.265C357.485 866.265 340.583 849.363 340.583 828.538C340.583 828.286 340.608 828.035 340.633 827.783C340.834 817.672 344.984 808.517 351.65 801.851H351.624Z" fill="#36BCF8"/>
<path d="M88.9624 752.653L0.40239 752.326V1021.4C0.40239 1032.59 13.9593 1038.23 21.8822 1030.31L298.78 753.408L88.9876 752.653" fill="#36BCF8"/>
</g>
</g>
<defs>
<clipPath id="clip0_1347_368">
<rect width="1050" height="600" fill="white" transform="translate(4.5897e-05 1050) rotate(-90)"/>
</clipPath>
<clipPath id="clip1_1347_368">
<rect width="600" height="600" fill="white" transform="translate(4.5897e-05 450)"/>
</clipPath>
</defs>
</svg>
