<svg width="897" height="606" viewBox="0 0 897 606" fill="none" xmlns="http://www.w3.org/2000/svg">
<rect width="897" height="606" fill="white"/>
<g clip-path="url(#clip0_1249_18)">
<path d="M239.065 395.547C241.985 395.547 244.351 397.915 244.351 400.837V406.948C244.351 409.87 241.985 412.238 239.065 412.238H203.004V432.128H234.841C237.761 432.128 240.127 434.496 240.127 437.418V442.573C240.127 445.495 237.761 447.863 234.841 447.863H203.004V477.242C203.004 480.164 200.637 482.532 197.717 482.532H188.742C185.822 482.532 183.456 480.164 183.456 477.242V400.828C183.456 397.906 185.822 395.538 188.742 395.538H239.065V395.547Z" fill="#36BCF8"/>
<path d="M275.589 479.297C269.57 476.018 264.927 471.398 261.622 465.447C258.318 459.505 256.666 452.643 256.666 444.869V400.837C256.666 397.915 259.033 395.547 261.953 395.547H270.919C273.839 395.547 276.206 397.915 276.206 400.837V444.869C276.206 449.516 277.018 453.537 278.652 456.914C280.278 460.301 282.609 462.892 285.627 464.697C288.645 466.493 292.218 467.395 296.352 467.395C300.487 467.395 304.14 466.493 307.149 464.697C310.167 462.901 312.48 460.31 314.088 456.914C315.695 453.528 316.499 449.516 316.499 444.869V400.837C316.499 397.915 318.866 395.547 321.786 395.547H330.752C333.672 395.547 336.039 397.915 336.039 400.837V444.869C336.039 452.643 334.395 459.496 331.118 465.447C327.841 471.389 323.188 476.009 317.187 479.297C311.186 482.585 304.229 484.22 296.343 484.22C288.485 484.22 281.599 482.576 275.589 479.297Z" fill="#36BCF8"/>
<path d="M416.474 454.296C416.546 454.394 416.653 454.448 416.769 454.448C416.974 454.448 417.135 454.287 417.135 454.082V401.087C417.135 398.165 419.501 395.797 422.422 395.797H431.593C434.513 395.797 436.88 398.165 436.88 401.087V477.242C436.88 480.164 434.513 482.531 431.593 482.531H417.448C415.742 482.531 414.143 481.709 413.152 480.324L372.68 423.854C372.582 423.72 372.43 423.639 372.269 423.639C371.983 423.639 371.76 423.872 371.76 424.149V477.233C371.76 480.155 369.394 482.523 366.473 482.523H357.302C354.382 482.523 352.015 480.155 352.015 477.233V401.078C352.015 398.156 354.382 395.788 357.302 395.788H371.653C373.359 395.788 374.948 396.61 375.948 397.986L416.474 454.296Z" fill="#36BCF8"/>
<path d="M478.254 479.225C473.851 477.545 469.77 475.302 466.01 472.515C463.59 470.71 463.537 467.198 465.689 465.071L470.833 459.978C472.851 457.986 476.048 457.968 478.343 459.639C480.629 461.301 482.987 462.623 485.398 463.597C489.211 465.143 493.283 465.911 497.615 465.911C500.847 465.911 503.652 465.483 506.018 464.643C508.385 463.803 510.189 462.596 511.43 461.033C512.671 459.469 513.287 457.646 513.287 455.564C513.287 453.804 512.805 452.303 511.859 451.052C510.912 449.81 509.304 448.702 507.045 447.719C504.786 446.736 501.642 445.771 497.606 444.806L493.087 443.725C483.871 441.518 476.923 438.319 472.226 434.111C467.528 429.911 465.18 424.774 465.18 418.733C465.18 413.73 466.662 409.208 469.636 405.187C472.61 401.167 476.691 398.021 481.888 395.752C487.095 393.491 492.953 392.356 499.463 392.356C505.973 392.356 511.671 393.473 517.36 395.716C521.325 397.28 524.986 399.299 528.362 401.774C530.782 403.552 530.844 407.037 528.728 409.173L523.727 414.203C521.718 416.231 518.485 416.24 516.154 414.596C514.243 413.247 512.287 412.148 510.278 411.317C506.867 409.896 503.259 409.182 499.445 409.182C496.704 409.182 494.221 409.575 492.006 410.388C489.792 411.192 488.068 412.3 486.827 413.721C485.586 415.141 484.969 416.776 484.969 418.617C484.969 420.065 485.407 421.289 486.264 422.316C487.122 423.335 488.506 424.264 490.381 425.104C492.257 425.944 494.802 426.748 497.981 427.508L502.5 428.589C509.546 430.233 515.306 432.288 519.807 434.754C524.307 437.22 527.638 440.133 529.8 443.493C531.97 446.853 533.05 450.766 533.05 455.216C533.05 460.55 531.55 465.295 528.558 469.459C525.567 473.623 521.396 476.875 516.029 479.216C510.662 481.557 504.518 482.728 497.561 482.728C490.604 482.728 484.326 481.548 478.2 479.216H478.254V479.225Z" fill="#36BCF8"/>
<path d="M568.343 394.18C570.432 394.18 572.317 395.404 573.174 397.316L598.197 453.304C598.259 453.456 598.411 453.554 598.581 453.554C598.75 453.554 598.893 453.456 598.965 453.304L623.988 397.316C624.836 395.413 626.729 394.18 628.819 394.18H644.768C647.689 394.18 650.055 396.548 650.055 399.469V475.624C650.055 478.546 647.689 480.914 644.768 480.914H636.115C633.195 480.914 630.828 478.546 630.828 475.624V427.598C630.828 427.437 630.694 427.303 630.533 427.303C630.417 427.303 630.31 427.374 630.257 427.481L608.145 477.76C607.297 479.681 605.404 480.923 603.305 480.923H593.892C591.794 480.923 589.892 479.681 589.052 477.76L566.941 427.481C566.896 427.374 566.78 427.303 566.664 427.303C566.494 427.303 566.36 427.437 566.36 427.606V475.633C566.36 478.555 563.994 480.923 561.073 480.923H552.42C549.5 480.923 547.133 478.555 547.133 475.633V399.478C547.133 396.556 549.5 394.189 552.42 394.189H568.343V394.18Z" fill="#36BCF8"/>
<path d="M678.748 479.226C674.345 477.546 670.255 475.303 666.505 472.515C664.085 470.719 664.04 467.208 666.183 465.081L671.327 459.988C673.345 457.996 676.542 457.978 678.837 459.649C681.124 461.311 683.481 462.633 685.892 463.607C689.706 465.153 693.778 465.921 698.109 465.921C701.342 465.921 704.146 465.492 706.504 464.652C708.87 463.812 710.674 462.606 711.915 461.043C713.157 459.479 713.773 457.656 713.773 455.574C713.773 453.814 713.291 452.313 712.344 451.062C711.388 449.82 709.79 448.712 707.53 447.729C705.271 446.746 702.128 445.781 698.091 444.816L693.572 443.735C684.356 441.528 677.409 438.329 672.711 434.121C668.014 429.921 665.665 424.783 665.665 418.743C665.665 413.739 667.148 409.218 670.121 405.197C673.086 401.176 677.176 398.031 682.374 395.762C687.58 393.501 693.438 392.366 699.949 392.366C706.459 392.366 712.156 393.483 717.845 395.726C721.81 397.29 725.471 399.309 728.847 401.784C731.267 403.562 731.33 407.047 729.213 409.182L724.212 414.213C722.203 416.241 718.97 416.25 716.639 414.606C714.728 413.257 712.773 412.158 710.763 411.327C707.352 409.906 703.744 409.191 699.931 409.191C697.189 409.191 694.707 409.584 692.492 410.398C690.277 411.202 688.545 412.31 687.312 413.73C686.071 415.151 685.455 416.786 685.455 418.627C685.455 420.074 685.892 421.299 686.75 422.326C687.607 423.345 688.991 424.274 690.867 425.114C692.742 425.954 695.287 426.758 698.466 427.517L702.985 428.599C710.031 430.243 715.791 432.298 720.292 434.764C724.793 437.23 728.124 440.143 730.285 443.503C732.455 446.862 733.536 450.776 733.536 455.226C733.536 460.56 732.035 465.305 729.044 469.468C726.052 473.632 721.881 476.885 716.514 479.226C711.156 481.567 705.003 482.737 698.047 482.737C691.09 482.737 684.812 481.558 678.686 479.226H678.748Z" fill="#36BCF8"/>
<path d="M733.545 482.389H183.447V509.194H733.545V482.389Z" stroke="#111111" stroke-miterlimit="10"/>
<path d="M733.554 364.774H183.456V393.054H733.554V364.774Z" stroke="#111111" stroke-miterlimit="10"/>
<path d="M599.054 97.583H331.689V365.417H599.054V97.583Z" stroke="#111111" stroke-miterlimit="10"/>
<path d="M438.425 365.381V97.4844" stroke="#111111" stroke-miterlimit="10"/>
<path d="M492.149 365.283V97.4492" stroke="#111111" stroke-miterlimit="10"/>
<path d="M546.017 204.636L545.874 365.417V97.583" stroke="#111111" stroke-miterlimit="10"/>
<path d="M384.691 365.435V97.6006" stroke="#111111" stroke-miterlimit="10"/>
<path d="M278.581 231.138H599.599" stroke="#111111" stroke-miterlimit="10"/>
<path d="M599.046 365.251V97.417L331.682 97.417L331.682 365.251L599.046 365.251Z" stroke="#111111" stroke-miterlimit="10"/>
<path d="M278.581 205.056H599.054" stroke="#111111" stroke-miterlimit="10"/>
<path d="M278.581 258.882H599.054" stroke="#111111" stroke-miterlimit="10"/>
<path d="M278.581 312.699H599.054" stroke="#111111" stroke-miterlimit="10"/>
<path d="M278.581 151.239H599.054" stroke="#111111" stroke-miterlimit="10"/>
<path d="M465.725 97.4131V365.471" stroke="#111111" stroke-miterlimit="10"/>
<path d="M384.825 259.034C414.417 259.034 438.407 235.031 438.407 205.422C438.407 175.813 414.417 151.811 384.825 151.811C355.233 151.811 331.243 175.813 331.243 205.422C331.243 235.031 355.233 259.034 384.825 259.034Z" stroke="#111111" stroke-width="1.1538" stroke-miterlimit="10"/>
<path d="M650.501 393.17V483.416" stroke="#111111" stroke-width="0.9896" stroke-miterlimit="10"/>
<path d="M666.13 393.17V483.416" stroke="#111111" stroke-width="0.9896" stroke-miterlimit="10"/>
<path d="M249.531 437.846C261.861 437.846 271.857 427.845 271.857 415.508C271.857 403.171 261.861 393.17 249.531 393.17C237.201 393.17 227.205 403.171 227.205 415.508C227.205 427.845 237.201 437.846 249.531 437.846Z" stroke="#111111" stroke-miterlimit="10"/>
<path d="M281.68 437.846C287.845 437.846 292.843 432.845 292.843 426.677C292.843 420.508 287.845 415.508 281.68 415.508C275.515 415.508 270.517 420.508 270.517 426.677C270.517 432.845 275.515 437.846 281.68 437.846Z" stroke="#111111" stroke-miterlimit="10"/>
<path d="M282.127 415.508C288.292 415.508 293.289 410.507 293.289 404.339C293.289 398.17 288.292 393.17 282.127 393.17C275.961 393.17 270.964 398.17 270.964 404.339C270.964 410.507 275.961 415.508 282.127 415.508Z" stroke="#111111" stroke-miterlimit="10"/>
<path d="M281.233 460.184C287.399 460.184 292.396 455.183 292.396 449.015C292.396 442.846 287.399 437.846 281.233 437.846C275.068 437.846 270.071 442.846 270.071 449.015C270.071 455.183 275.068 460.184 281.233 460.184Z" stroke="#111111" stroke-miterlimit="10"/>
<path d="M248.638 482.522C253.077 482.522 256.675 478.922 256.675 474.48C256.675 470.039 253.077 466.438 248.638 466.438C244.199 466.438 240.601 470.039 240.601 474.48C240.601 478.922 244.199 482.522 248.638 482.522Z" stroke="#111111" stroke-miterlimit="10"/>
<path d="M343.299 482.523C347.393 482.523 350.711 479.203 350.711 475.107C350.711 471.011 347.393 467.69 343.299 467.69C339.206 467.69 335.887 471.011 335.887 475.107C335.887 479.203 339.206 482.523 343.299 482.523Z" stroke="#111111" stroke-miterlimit="10"/>
<path d="M343.299 468.226C347.393 468.226 350.711 464.906 350.711 460.81C350.711 456.714 347.393 453.394 343.299 453.394C339.206 453.394 335.887 456.714 335.887 460.81C335.887 464.906 339.206 468.226 343.299 468.226Z" stroke="#111111" stroke-miterlimit="10"/>
<path d="M343.299 453.037C347.393 453.037 350.711 449.716 350.711 445.62C350.711 441.524 347.393 438.204 343.299 438.204C339.206 438.204 335.887 441.524 335.887 445.62C335.887 449.716 339.206 453.037 343.299 453.037Z" stroke="#111111" stroke-miterlimit="10"/>
<path d="M249.531 445.262C253.624 445.262 256.943 441.942 256.943 437.846C256.943 433.75 253.624 430.43 249.531 430.43C245.437 430.43 242.119 433.75 242.119 437.846C242.119 441.942 245.437 445.262 249.531 445.262Z" stroke="#111111" stroke-miterlimit="10"/>
<path d="M249.531 437.774C251.504 437.774 253.103 436.174 253.103 434.2C253.103 432.226 251.504 430.626 249.531 430.626C247.558 430.626 245.959 432.226 245.959 434.2C245.959 436.174 247.558 437.774 249.531 437.774Z" stroke="#111111" stroke-miterlimit="10"/>
<path d="M249.531 444.994C251.504 444.994 253.103 443.394 253.103 441.42C253.103 439.446 251.504 437.846 249.531 437.846C247.558 437.846 245.959 439.446 245.959 441.42C245.959 443.394 247.558 444.994 249.531 444.994Z" stroke="#111111" stroke-miterlimit="10"/>
<path d="M343.299 437.846C347.393 437.846 350.711 434.526 350.711 430.43C350.711 426.334 347.393 423.014 343.299 423.014C339.206 423.014 335.887 426.334 335.887 430.43C335.887 434.526 339.206 437.846 343.299 437.846Z" stroke="#111111" stroke-miterlimit="10"/>
<path d="M343.299 422.657C347.393 422.657 350.711 419.336 350.711 415.24C350.711 411.145 347.393 407.824 343.299 407.824C339.206 407.824 335.887 411.145 335.887 415.24C335.887 419.336 339.206 422.657 343.299 422.657Z" stroke="#111111" stroke-miterlimit="10"/>
<path d="M343.299 407.466C347.393 407.466 350.711 404.146 350.711 400.05C350.711 395.954 347.393 392.634 343.299 392.634C339.206 392.634 335.887 395.954 335.887 400.05C335.887 404.146 339.206 407.466 343.299 407.466Z" stroke="#111111" stroke-miterlimit="10"/>
<path d="M281.233 482.523C287.399 482.523 292.396 477.522 292.396 471.354C292.396 465.185 287.399 460.185 281.233 460.185C275.068 460.185 270.071 465.185 270.071 471.354C270.071 477.522 275.068 482.523 281.233 482.523Z" stroke="#111111" stroke-miterlimit="10"/>
<path d="M249.531 482.522C261.861 482.522 271.857 472.521 271.857 460.184C271.857 447.847 261.861 437.846 249.531 437.846C237.201 437.846 227.205 447.847 227.205 460.184C227.205 472.521 237.201 482.522 249.531 482.522Z" stroke="#111111" stroke-miterlimit="10"/>
<path d="M532.568 393.277V483.523" stroke="#111111" stroke-width="1.0087" stroke-miterlimit="10"/>
<path d="M548.803 393.277V483.523" stroke="#111111" stroke-width="1.0087" stroke-miterlimit="10"/>
<path d="M335.431 392.651V482.897" stroke="#111111" stroke-width="1.0087" stroke-miterlimit="10"/>
<path d="M351.667 392.651V482.897" stroke="#111111" stroke-width="1.0087" stroke-miterlimit="10"/>
<path d="M240.77 392.651V482.897" stroke="#111111" stroke-width="1.0087" stroke-miterlimit="10"/>
<path d="M257.006 392.651V482.897" stroke="#111111" stroke-width="1.0087" stroke-miterlimit="10"/>
<path d="M733.554 393.17H183.456V437.846H733.554V393.17Z" stroke="#111111" stroke-miterlimit="10"/>
<path d="M733.554 437.846H183.456V482.522H733.554V437.846Z" stroke="#111111" stroke-miterlimit="10"/>
<path d="M540.659 482.522C545.098 482.522 548.696 478.922 548.696 474.48C548.696 470.039 545.098 466.438 540.659 466.438C536.22 466.438 532.622 470.039 532.622 474.48C532.622 478.922 536.22 482.522 540.659 482.522Z" stroke="#111111" stroke-miterlimit="10"/>
<path d="M452.195 393.277V483.523" stroke="#111111" stroke-width="1.0087" stroke-miterlimit="10"/>
<path d="M468.43 393.277V483.523" stroke="#111111" stroke-width="1.0087" stroke-miterlimit="10"/>
<path d="M460.286 482.522C464.725 482.522 468.323 478.922 468.323 474.48C468.323 470.039 464.725 466.438 460.286 466.438C455.847 466.438 452.249 470.039 452.249 474.48C452.249 478.922 455.847 482.522 460.286 482.522Z" stroke="#111111" stroke-miterlimit="10"/>
<path d="M436.121 393.277V483.523" stroke="#111111" stroke-width="1.0087" stroke-miterlimit="10"/>
<path d="M444.212 482.522C448.65 482.522 452.249 478.922 452.249 474.48C452.249 470.039 448.65 466.438 444.212 466.438C439.773 466.438 436.174 470.039 436.174 474.48C436.174 478.922 439.773 482.522 444.212 482.522Z" stroke="#111111" stroke-miterlimit="10"/>
<path d="M658.539 482.522C662.978 482.522 666.576 478.922 666.576 474.48C666.576 470.039 662.978 466.438 658.539 466.438C654.1 466.438 650.501 470.039 650.501 474.48C650.501 478.922 654.1 482.522 658.539 482.522Z" stroke="#111111" stroke-miterlimit="10"/>
<path d="M331.69 97.583L599.054 365.417" stroke="#111111" stroke-miterlimit="10"/>
<path d="M278.581 97.6006L545.946 365.435" stroke="#111111" stroke-miterlimit="10"/>
<path d="M599.054 97.583L331.69 365.417" stroke="#111111" stroke-miterlimit="10"/>
<path d="M545.946 97.2256L278.581 365.06" stroke="#111111" stroke-miterlimit="10"/>
<path d="M438.817 364.863C497.999 364.863 545.981 316.854 545.981 257.64C545.981 198.426 498.008 150.417 438.817 150.417C379.627 150.417 331.654 198.426 331.654 257.64C331.654 316.854 379.636 364.863 438.817 364.863Z" fill="#36BCF8"/>
<path d="M514.154 257.756L545.982 257.64V348.797C545.982 354.891 538.614 357.947 534.31 353.631L438.764 258.033L514.154 257.756Z" fill="#36BCF8"/>
<path d="M504.679 318.32C504.679 310.85 498.633 304.801 491.167 304.801C483.701 304.801 477.656 310.85 477.656 318.32C477.656 325.79 483.701 331.839 491.167 331.839C498.633 331.839 504.679 325.79 504.679 318.32Z" fill="white"/>
<path d="M384.477 317.318C386.406 315.406 389.504 315.433 391.541 317.229C403.945 328.13 420.198 334.724 437.996 334.724C457.553 334.724 475.262 326.754 488.024 313.869L494.998 320.794C480.46 335.466 460.277 344.562 437.987 344.562C417.465 344.562 398.729 336.851 384.539 324.171C382.53 322.349 382.548 319.23 384.477 317.318Z" fill="white"/>
<path d="M331.69 97.6006H278.581V365.417H331.69V97.6006Z" stroke="#111111" stroke-miterlimit="10"/>
</g>
<defs>
<clipPath id="clip0_1249_18">
<rect width="551" height="466" fill="white" transform="translate(183 70)"/>
</clipPath>
</defs>
</svg>
