<svg width="397" height="317" viewBox="0 0 397 317" fill="none" xmlns="http://www.w3.org/2000/svg">
<g clip-path="url(#clip0_908_1102)">
<path d="M97.9602 269.323H89.6428C90.435 269.323 91.0951 269.587 91.7552 269.983C92.5473 270.511 93.0754 271.304 93.3394 272.36C93.3394 272.624 93.3394 272.888 93.3394 273.152V313.154C93.3394 315.267 91.6231 316.983 89.6428 316.983H97.9602C100.073 316.983 101.657 315.267 101.657 313.154V273.152C101.657 271.04 99.9405 269.323 97.9602 269.323Z" fill="#242428"/>
<path d="M76.7047 273.02V277.377H93.3395V273.02C93.3395 273.02 93.3395 272.492 93.3395 272.228C93.0754 271.304 92.5473 270.38 91.7552 269.852C91.0951 269.455 90.435 269.191 89.6429 269.191H75.2525L74.8564 269.72C75.9126 270.38 76.5727 271.568 76.5727 272.888L76.7047 273.02Z" fill="#546070"/>
<path d="M76.7047 313.025V273.022C76.7047 271.702 76.0446 270.514 74.9884 269.854L73.8002 271.834C73.8002 271.834 73.5362 272.23 73.5362 272.362L72.7441 273.682C72.7441 273.682 72.612 273.946 72.48 274.21L68.5194 281.075V313.025C68.5194 315.137 66.8031 316.853 64.8228 316.853H73.1401C75.2525 316.853 76.8367 315.137 76.8367 313.025H76.7047Z" fill="#242428"/>
<path d="M59.8058 282.395C59.0137 283.847 58.2216 285.167 57.4294 286.487C57.4294 286.487 57.4294 286.487 57.4294 286.355L59.8058 282.395Z" fill="#343E49"/>
<path d="M51.3565 283.45C52.5447 281.469 53.7328 279.489 54.789 277.509H50.8284V283.846H51.0924V283.582L51.3565 283.45Z" fill="#343E49"/>
<path d="M68.3873 313.022V281.073L67.4632 282.79C65.4828 286.222 63.5025 289.787 61.5222 293.219L59.6739 296.388H50.8284V313.154C50.8284 315.267 49.1122 316.983 47.1318 316.983H64.6907C66.8031 316.983 68.3873 315.267 68.3873 313.154V313.022Z" fill="#343E49"/>
<path d="M50.8284 273.02V277.377H54.7891C55.7132 275.925 56.5054 274.34 57.4295 272.888L59.5419 269.191H47.1318C49.2442 269.191 50.8284 270.908 50.8284 273.02Z" fill="#546070"/>
<path d="M50.8284 313.024V296.257H42.5111V313.024C42.5111 315.136 40.7948 316.852 38.8145 316.852H47.1318C49.2442 316.852 50.8284 315.136 50.8284 313.024Z" fill="#242428"/>
<path d="M42.5111 273.02V283.714H50.8284V273.02C50.8284 270.908 49.1121 269.191 47.1318 269.191H38.8145C40.9268 269.191 42.5111 270.908 42.5111 273.02Z" fill="#242428"/>
<path d="M25.8762 277.509H42.511V273.152C42.511 271.04 40.7947 269.323 38.8144 269.323H3.69661C1.58426 269.323 0 271.04 0 273.152V277.509H25.8762Z" fill="#546070"/>
<path d="M57.4296 196.184L42.2471 210.046V214.139H47.1319V214.271L59.938 202.521H77.4969V195.92H75.1205V196.184H57.4296Z" fill="#5E6C8A"/>
<path d="M42.2471 210.046L57.4296 196.184H75.1205V195.92V189.583H54.9211L42.2471 201.069V210.046Z" fill="#B0BBCF"/>
<path d="M74.1962 257.839C74.1962 257.839 73.9321 258.235 73.8001 258.367L73.008 259.687C73.008 259.687 72.8759 259.951 72.7439 260.215L69.5754 265.496C69.5754 265.496 69.3114 265.892 69.1793 266.024V266.42L67.5951 268.797C65.6147 272.229 63.5024 275.794 61.5221 279.226L59.6738 282.395L57.2974 286.355C57.2974 286.355 57.2974 286.355 57.2974 286.487C57.2974 286.487 57.1654 286.752 57.0333 286.884L55.5811 289.524H42.511V296.389H59.8058L61.6541 293.221C63.6344 289.788 65.6147 286.223 67.5951 282.791L68.5192 281.075L72.4799 274.209C72.4799 274.209 72.7439 273.813 72.7439 273.681L73.5361 272.361C73.5361 272.361 73.8001 271.965 73.8001 271.833L74.9883 269.853L75.3844 269.325L77.7607 265.232C77.7607 265.232 78.0248 264.836 78.0248 264.704L78.8169 263.384C79.345 262.46 80.0051 261.535 80.4012 260.347C80.7972 259.423 80.9293 258.631 80.9293 257.707C80.9293 256.783 80.7972 255.99 80.4012 255.198C80.0051 254.142 79.345 253.086 78.8169 252.162L78.0248 250.842C78.0248 250.842 77.8928 250.578 77.7607 250.314L72.7439 241.732C70.7636 238.3 68.6513 234.735 66.6709 231.302L63.3704 225.625C62.8423 224.569 62.0502 223.513 60.994 222.457C59.6738 221.005 57.9575 220.081 56.2412 219.552C54.5249 219.024 52.6766 219.024 51.2244 219.024H51.0924H31.4211V225.89H51.6205L48.98 227.87L52.1485 233.151C52.1485 233.151 52.2806 233.415 52.4126 233.547L53.2047 234.867C53.2047 234.867 53.2047 234.999 53.3367 235.131L54.1289 236.451L58.4856 243.976C60.4659 247.409 62.5783 250.974 64.5586 254.406L66.4069 257.575H74.3282L74.1962 257.839Z" fill="#5E6C8A"/>
<path d="M54.7891 277.51C53.6009 279.491 52.4127 281.471 51.3565 283.451V283.715H42.6431V289.392H55.7132L57.1654 286.752C57.1654 286.752 57.2975 286.488 57.4295 286.356C58.2216 285.036 59.0138 283.583 59.8059 282.263L61.6542 279.095C63.6345 275.662 65.7469 272.097 67.7272 268.665L69.0474 266.288V265.892C69.0474 265.892 69.4435 265.496 69.5755 265.364L72.744 260.083C72.744 260.083 73.008 259.687 73.008 259.555L73.8002 258.235C73.8002 258.235 74.0642 257.839 74.1962 257.707H66.2749L61.9182 265.1C61.9182 265.1 61.9182 265.232 61.7862 265.364L59.5418 269.061L57.4295 272.757C56.5053 274.21 55.7132 275.662 54.7891 277.246V277.51Z" fill="#B1BCCF"/>
<path d="M124.496 257.839C124.496 257.839 124.232 258.235 124.1 258.367L123.308 259.687C123.308 259.687 123.176 259.951 123.044 260.215L119.876 265.496C119.876 265.496 119.612 265.892 119.48 266.024V266.42L117.895 268.797C115.915 272.229 113.803 275.794 111.822 279.226L109.974 282.395L107.598 286.355C107.598 286.355 107.598 286.355 107.598 286.487C107.598 286.487 107.466 286.752 107.334 286.884L105.881 289.524H92.6792V296.389H109.974L111.822 293.221C113.803 289.788 115.783 286.223 117.763 282.791L118.687 281.075L122.648 274.209C122.648 274.209 122.912 273.813 122.912 273.681L123.704 272.361C123.704 272.361 123.968 271.965 123.968 271.833L125.157 269.853L125.553 269.325L127.929 265.232C127.929 265.232 128.193 264.836 128.193 264.704L128.985 263.384C129.513 262.46 130.173 261.535 130.569 260.347C130.965 259.423 131.097 258.631 131.097 257.707C131.097 256.783 130.965 255.99 130.569 255.198C130.173 254.142 129.513 253.086 128.985 252.162L128.193 250.842C128.193 250.842 128.061 250.578 127.929 250.314L122.912 241.732C120.932 238.3 118.819 234.735 116.839 231.302L113.539 225.625C113.011 224.569 112.218 223.513 111.162 222.457C109.842 221.005 108.126 220.081 106.409 219.552C104.693 219.024 102.845 219.024 101.393 219.024H101.261H81.5894V225.89H101.789L99.1482 227.87L102.317 233.151C102.317 233.151 102.449 233.415 102.581 233.547L103.373 234.867C103.373 234.867 103.373 234.999 103.505 235.131L104.297 236.451L108.654 243.976C110.634 247.409 112.746 250.974 114.727 254.406L116.575 257.575H124.496V257.839Z" fill="#5E6C8A"/>
<path d="M105.089 277.51C103.901 279.491 102.713 281.471 101.657 283.451V283.715H92.9434V289.392H106.014L107.466 286.752C107.466 286.752 107.598 286.488 107.73 286.356C108.522 285.036 109.314 283.583 110.106 282.263L111.954 279.095C113.935 275.662 116.047 272.097 118.027 268.665L119.348 266.288V265.892C119.348 265.892 119.744 265.496 119.876 265.364L123.044 260.083C123.044 260.083 123.308 259.687 123.308 259.555L124.1 258.235C124.1 258.235 124.365 257.839 124.497 257.707H116.575L112.219 265.1C112.219 265.1 112.219 265.232 112.086 265.364L109.842 269.061L107.73 272.757C106.806 274.21 106.014 275.662 105.089 277.246V277.51Z" fill="#B1BCCF"/>
<path d="M279.886 255.99C279.886 255.99 280.15 256.386 280.282 256.518L281.074 257.838C281.074 257.838 281.206 258.102 281.338 258.367L284.507 263.647C284.507 263.647 284.771 264.043 284.903 264.175V264.572L286.487 266.948C288.467 270.38 290.58 273.945 292.56 277.378L294.408 280.546L296.785 284.507C296.785 284.507 296.785 284.507 296.785 284.639C296.785 284.639 296.917 284.903 297.049 285.035L298.501 287.675H311.703V294.54H298.237H294.408L292.56 291.372C290.58 287.939 288.599 284.375 286.619 280.942L285.695 279.226L281.734 272.361C281.734 272.361 281.47 271.965 281.47 271.833L280.678 270.513C280.678 270.513 280.414 270.116 280.414 269.984L279.226 268.004L278.83 267.476L276.453 263.383C276.453 263.383 276.189 262.987 276.189 262.855L275.397 261.535C274.869 260.611 274.209 259.687 273.813 258.499C273.417 257.574 273.285 256.782 273.285 255.858C273.285 255.066 273.417 254.142 273.813 253.35C274.209 252.294 274.869 251.237 275.397 250.313L276.189 248.993C276.189 248.993 276.321 248.729 276.453 248.465L281.47 239.883C283.451 236.451 285.563 232.886 287.543 229.454L290.844 223.777C291.372 222.721 292.164 221.664 293.22 220.608C294.54 219.156 296.257 218.232 297.973 217.704C299.689 217.176 301.538 217.176 302.99 217.176H303.122H306.95H322.793V224.041H302.594L305.234 226.021L302.066 231.302C302.066 231.302 301.934 231.566 301.802 231.698L301.009 233.018C301.009 233.018 301.009 233.15 300.877 233.282L300.085 234.603L295.729 242.128C293.748 245.56 291.636 249.125 289.656 252.558L287.807 255.726H280.018L279.886 255.99Z" fill="#5E6C8A"/>
<path d="M299.293 275.529C300.481 277.509 301.67 279.489 302.726 281.47V281.734H311.439V287.411H298.369L296.917 284.77C296.917 284.77 296.785 284.506 296.653 284.374C295.861 283.054 295.068 281.602 294.276 280.282L292.428 277.113C290.448 273.681 288.335 270.116 286.355 266.683L285.035 264.307V263.911C285.035 263.911 284.639 263.515 284.507 263.383L281.338 258.102C281.338 258.102 281.074 257.706 281.074 257.574L280.282 256.254C280.282 256.254 280.018 255.858 279.886 255.726H287.807L292.164 263.119C292.164 263.119 292.164 263.251 292.296 263.383L294.54 267.079L296.653 270.776C297.577 272.228 298.369 273.681 299.293 275.265V275.529Z" fill="#333D49"/>
<path d="M31.2892 219.42H18.351H11.0898V226.285H31.2892V219.42Z" fill="#AFBBCE"/>
<path d="M47.1318 219.421V214.272V214.14H42.247V210.047V201.07V200.938H31.2892H22.3117V214.14H18.3511V219.421H31.2892H47.1318Z" fill="#343C4B"/>
<path d="M31.2892 191.96H22.3118V201.069H31.2892V191.96ZM26.8005 199.221C25.3483 199.221 24.1601 198.033 24.1601 196.581C24.1601 195.128 25.3483 193.94 26.8005 193.94C28.2527 193.94 29.4409 195.128 29.4409 196.581C29.4409 198.033 28.2527 199.221 26.8005 199.221Z" fill="#EBECF0"/>
<path d="M42.2471 191.96H31.2893V201.069H42.2471V191.96Z" fill="#B0BDD0"/>
<path d="M51.4885 226.285H31.2892H11.0898L19.8033 233.15H31.2892H42.775L48.848 228.266L51.4885 226.285Z" fill="#61728B"/>
<path d="M26.8003 193.808C25.3481 193.808 24.1599 194.996 24.1599 196.448C24.1599 197.9 25.3481 199.088 26.8003 199.088C28.2526 199.088 29.4408 197.9 29.4408 196.448C29.4408 194.996 28.2526 193.808 26.8003 193.808Z" fill="#242426"/>
<path d="M45.5477 236.583C45.5477 234.735 43.9634 233.15 42.1151 233.15H19.8035V239.091H45.5477V236.583Z" fill="#242426"/>
<path d="M295.465 139.679H287.939H245.032H237.507V147.072H242.524H295.465V139.679Z" fill="#313A4B"/>
<path d="M287.939 117.366H245.032V124.891H287.939V117.366Z" fill="#313A4B"/>
<path d="M306.686 111.294H301.669V117.367H306.686V111.294Z" fill="#EAEBEF"/>
<path d="M306.686 99.2803H299.161V105.353H301.67H306.686V99.2803Z" fill="#EAEBEF"/>
<path d="M311.703 105.353H314.212V99.2803H306.687V105.353H311.703Z" fill="#B1BECE"/>
<path d="M311.703 111.294H306.687V117.367H311.703V111.294Z" fill="#B0BCD0"/>
<path d="M306.686 105.354H301.669V111.427H306.686V105.354Z" fill="#B1BCCF"/>
<path d="M311.703 105.354H306.687V111.427H311.703V105.354Z" fill="#5F6F8C"/>
<path d="M316.456 124.759V117.366H312.628H306.687H300.614H287.939V124.759H316.456Z" fill="#222126"/>
<path d="M287.939 139.679H295.465L287.939 124.761H245.032L237.507 139.679H245.032H287.939Z" fill="#4F5E6E"/>
<path d="M295.465 139.679H323.981L316.456 124.761H287.939L295.465 139.679Z" fill="#313C49"/>
<path d="M257.178 171.497H271.701C271.833 165.028 276.982 159.747 283.451 159.747H295.333V156.975H237.507V171.497H257.178Z" fill="#313A4B"/>
<path d="M295.333 159.878C301.67 159.878 306.818 165.159 306.95 171.496H315.4L319.361 151.825V147.072H323.981V139.547H295.465V147.072H242.524V156.974H295.465V159.746L295.333 159.878Z" fill="#222126"/>
<path d="M132.154 163.97C134.53 156.181 140.339 149.844 147.732 146.939H137.831C129.777 149.976 123.572 156.973 121.724 165.687C123.572 164.102 125.817 163.178 128.457 163.178C129.777 163.178 131.098 163.442 132.286 163.97H132.154Z" fill="#333D49"/>
<path d="M151.693 147.071H147.732C140.207 149.844 134.398 156.181 132.154 164.102C134.398 165.026 136.378 166.743 137.435 168.855H140.735C140.735 168.855 140.999 167.667 141.131 167.139C143.112 160.273 149.317 155.125 156.71 155.125C164.763 155.125 171.496 161.198 172.684 169.119H182.19C181.266 158.953 174.533 150.636 165.555 147.203H151.693V147.071Z" fill="#242426"/>
<path d="M141.131 168.723V167.007C141.131 167.007 140.867 168.195 140.735 168.723H141.131Z" fill="#333D49"/>
<path d="M167.404 168.988V167.008H171.628V168.988H172.685C171.496 161.067 164.763 154.994 156.71 154.994C149.317 154.994 142.98 160.011 141.131 167.008H144.696V168.988H167.536H167.404Z" fill="#333D49"/>
<path d="M137.435 52.4131H133.078V55.8456H137.171V52.4131H137.435Z" fill="#2B3138"/>
<path d="M143.508 49.376H139.943H133.078V52.4125H137.435H143.508V49.376Z" fill="#B1BED1"/>
<path d="M143.508 43.9639H140.867V47.7925H139.943V49.3768H143.508V43.9639Z" fill="#2B3138"/>
<path d="M140.603 13.9943C140.603 8.31736 145.224 3.69661 150.769 3.69661H151.693C157.37 3.69661 161.859 8.31736 161.859 13.9943V26.2723H174.929V4.75278C174.929 2.11235 172.816 0 170.308 0H118.952C116.443 0 114.331 2.11235 114.331 4.62076V26.1403H140.471V13.8623L140.603 13.9943Z" fill="#EBECF1"/>
<path d="M188.131 4.62067C188.131 3.43247 187.603 2.24428 186.943 1.45215C187.735 2.24428 188.131 3.43247 188.131 4.62067Z" fill="#EBECF1"/>
<path d="M143.508 39.2102H151.561H151.693H159.878H175.061V29.3086H174.929H114.463H109.446V39.2102H123.044H139.943H143.508Z" fill="#EBECF1"/>
<path d="M151.693 89.2461H143.508V99.2797H144.96V104.033H143.508V127.664H151.693V89.2461Z" fill="#EBECF1"/>
<path d="M143.508 52.4133V55.7138H151.693V52.8093H151.561V43.9639H143.508V49.3768V52.4133Z" fill="#EBECF1"/>
<path d="M151.693 74.7242V57.6934H143.508V69.5753V72.2157V74.7242H130.702V84.4938H143.508H151.693V74.7242Z" fill="#EBECF1"/>
<path d="M174.929 26.1402H161.859V13.8621C161.859 8.18521 157.238 3.56445 151.693 3.56445H150.769C145.092 3.56445 140.603 8.18521 140.603 13.8621V26.1402H114.463V29.3087H175.061V26.1402H174.929ZM151.165 6.99702C155.258 6.99702 158.69 10.4296 158.69 14.6543C158.69 18.879 155.39 22.3115 151.165 22.3115C146.94 22.3115 143.64 18.879 143.64 14.6543C143.64 10.4296 146.94 6.99702 151.165 6.99702Z" fill="#B4BCD1"/>
<path d="M147.732 147.071H151.693V132.417H143.508L137.171 147.071H137.831H147.732Z" fill="#EBECF1"/>
<path d="M151.693 147.071H165.555H166.083L159.878 132.417H151.693V147.071Z" fill="#B1BED1"/>
<path d="M174.929 4.75259V29.4406V26.2721H188.131V4.75259C188.131 3.5644 187.603 2.3762 186.943 1.58407C186.943 1.58407 186.943 1.58407 186.943 1.45205C186.943 1.45205 186.943 1.45205 186.811 1.45205C186.018 0.659923 184.962 0.131836 183.642 0.131836H170.44C172.948 0.131836 175.061 2.24418 175.061 4.88462L174.929 4.75259Z" fill="#B1BED1"/>
<path d="M175.061 39.2102H178.097H184.038H193.148V29.3086H188.131H175.061V39.2102Z" fill="#B1BED1"/>
<path d="M159.878 52.8086H151.693V55.8451H159.878V52.8086Z" fill="#B1BED1"/>
<path d="M151.693 127.664H159.878V104.033H154.598V99.2797H159.878V89.2461H151.693V127.664Z" fill="#B1BED1"/>
<path d="M151.693 74.7242V84.4938H159.878H172.685V74.7242H159.878V57.6934H151.693V74.7242Z" fill="#B1BED1"/>
<path d="M178.097 39.21H170.968H151.693V43.9627H154.598V49.9037H165.819V43.9627H171.1C171.1 45.415 172.288 46.6032 173.741 46.6032C175.193 46.6032 176.381 45.415 176.381 43.9627H178.097V55.8447H184.038V39.342H178.097V39.21Z" fill="#252527"/>
<path d="M176.249 43.9639C176.249 45.4161 175.061 46.6043 173.609 46.6043C172.156 46.6043 170.968 45.4161 170.968 43.9639H165.687V49.9048H154.466V43.9639H151.561V52.8093H168.064V55.8458H178.097V43.9639H176.381H176.249ZM173.609 53.9975C172.156 53.9975 170.836 52.8093 170.836 51.2251C170.836 49.6408 172.024 48.4526 173.609 48.4526C175.193 48.4526 176.381 49.6408 176.381 51.2251C176.381 52.8093 175.193 53.9975 173.609 53.9975Z" fill="#353E4B"/>
<path d="M133.078 49.3768H139.943V47.7925H133.078V43.9639H130.701C130.701 45.4161 129.513 46.6043 128.061 46.6043C126.609 46.6043 125.42 45.4161 125.42 43.9639H123.176V55.8458H133.21V49.3768H133.078ZM128.061 53.9975C126.609 53.9975 125.288 52.8093 125.288 51.2251C125.288 49.6408 126.477 48.4526 128.061 48.4526C129.645 48.4526 130.833 49.6408 130.833 51.2251C130.833 52.8093 129.645 53.9975 128.061 53.9975Z" fill="#353E4B"/>
<path d="M164.499 52.8086V58.3535H168.064V55.7131V52.8086H164.499Z" fill="#2B3138"/>
<path d="M128.061 48.583C126.609 48.583 125.289 49.7712 125.289 51.3555C125.289 52.9397 126.477 54.1279 128.061 54.1279C129.645 54.1279 130.833 52.9397 130.833 51.3555C130.833 49.7712 129.645 48.583 128.061 48.583Z" fill="#252527"/>
<path d="M128.061 46.6032C129.513 46.6032 130.701 45.415 130.701 43.9627H133.078V47.7914H140.867V43.9627H143.508V39.21H123.044V43.9627H125.289C125.289 45.415 126.477 46.6032 127.929 46.6032H128.061Z" fill="#252527"/>
<path d="M173.608 48.4521C172.156 48.4521 170.836 49.6403 170.836 51.2246C170.836 52.8089 172.024 53.9971 173.608 53.9971C175.193 53.9971 176.381 52.8089 176.381 51.2246C176.381 49.6403 175.193 48.4521 173.608 48.4521Z" fill="#252527"/>
<path d="M151.297 22.3116C155.39 22.3116 158.822 18.879 158.822 14.6543C158.822 10.4296 155.522 6.99707 151.297 6.99707C147.072 6.99707 143.772 10.4296 143.772 14.6543C143.772 18.879 147.072 22.3116 151.297 22.3116ZM152.485 15.8425C152.485 15.8425 153.673 16.3706 153.673 17.0307C153.673 17.6908 153.145 18.2189 152.485 18.2189C151.825 18.2189 151.297 17.6908 151.297 17.0307C151.297 16.3706 151.825 15.8425 152.485 15.8425ZM148.789 9.37346C150.373 9.37346 151.561 10.6937 151.561 12.1459C151.561 13.5982 150.373 14.9184 148.789 14.9184C147.204 14.9184 146.016 13.5982 146.016 12.1459C146.016 10.6937 147.204 9.37346 148.789 9.37346Z" fill="#242527"/>
<path d="M148.789 15.0498C150.373 15.0498 151.561 13.7296 151.561 12.2773C151.561 10.8251 150.373 9.50488 148.789 9.50488C147.204 9.50488 146.016 10.8251 146.016 12.2773C146.016 13.7296 147.204 15.0498 148.789 15.0498Z" fill="white"/>
<path d="M152.485 18.2192C152.485 18.2192 153.673 17.6911 153.673 17.031C153.673 16.3709 153.145 15.8428 152.485 15.8428C151.825 15.8428 151.297 16.3709 151.297 17.031C151.297 17.6911 151.825 18.2192 152.485 18.2192Z" fill="white"/>
<path d="M151.561 39.21H143.508V39.342V43.9627H151.561V39.21Z" fill="#B1BED1"/>
<path d="M151.693 84.4941H143.508V89.2469H151.693V84.4941Z" fill="#B1BED1"/>
<path d="M144.96 99.2803H143.508H135.322V104.033H143.508H144.96V99.2803Z" fill="#B1BED1"/>
<path d="M159.746 99.2803H154.597V104.033H159.746V99.2803Z" fill="#8F9CAC"/>
<path d="M151.693 55.7139H143.508V57.6942H151.693V55.7139Z" fill="#B1BED1"/>
<path d="M164.499 58.3537V60.466H161.991V64.9548H164.499V69.0475H169.648V68.2553H182.982V69.0475H185.359V58.2217H182.982V61.2582H169.648V58.2217H164.499V58.3537ZM169.648 65.2188V63.5025H182.982V66.6711H169.648V65.3508V65.2188Z" fill="#353E4B"/>
<path d="M169.648 60.2018V61.39H182.982V60.2018V59.6737V58.3535H169.648V59.6737V60.2018Z" fill="#2B3138"/>
<path d="M182.982 68.5195H169.648V69.1796H164.499V65.0869H162.123V69.5757H164.499V71.424H169.648H182.982H185.359V69.1796H182.982V68.5195Z" fill="#2B3138"/>
<path d="M182.982 65.3503V64.8222V63.502H169.648V64.8222V65.3503V66.6705H182.982V65.3503Z" fill="#2B3138"/>
<path d="M139.811 67.8596V52.4131H137.171V67.7276C137.171 67.7276 137.171 69.1798 138.359 70.368C139.415 71.5562 141.263 72.0843 143.508 72.0843V69.4439C140.603 69.4439 139.811 68.3877 139.811 67.7276V67.8596Z" fill="#FDCC4D" stroke="#FDCC4D" stroke-width="0.251112" stroke-linecap="round" stroke-linejoin="round"/>
<path d="M159.878 132.418C162.123 132.418 163.839 131.758 165.027 130.702C166.347 129.381 166.347 127.797 166.347 127.665V84.626H163.575V127.665C163.575 127.665 163.311 129.645 159.878 129.645V132.418Z" fill="#FDCC4D" stroke="#FDCC4D" stroke-width="0.251112" stroke-linecap="round" stroke-linejoin="round"/>
<path d="M159.878 55.7139H151.693V57.6942H159.878V55.7139Z" fill="#8F9CAC"/>
<path d="M188.263 26.1406H175.061V29.3091H188.263V26.1406Z" fill="#8F9CAC"/>
<path d="M159.878 84.4941H151.693V89.2469H159.878V84.4941Z" fill="#8F9CAC"/>
<path d="M151.693 127.665H143.508V132.418H151.693V127.665Z" fill="#B1BED1"/>
<path d="M159.878 127.665H151.693V132.418H159.878V127.665Z" fill="#8F9CAC"/>
<path d="M118.16 247.277H288.468V246.749L297.709 182.586C297.709 182.586 297.709 181.662 297.709 181.134C297.709 176.645 294.673 172.949 290.712 172.025H290.448C290.448 175.061 288.071 177.438 285.167 177.438C282.262 177.438 279.886 175.061 279.886 172.025H283.583V160.011C277.114 160.011 271.965 165.16 271.833 171.761H221.797C221.929 172.553 222.061 173.213 222.061 174.005C222.061 179.814 217.44 184.567 211.631 184.567C208.066 184.567 204.898 182.718 202.917 179.946H137.171C135.322 182.718 132.154 184.567 128.457 184.567C122.648 184.567 118.028 179.814 118.028 174.005C118.028 173.213 118.028 172.421 118.292 171.761H95.3198H83.5699H79.3452C79.0812 171.761 78.9491 171.761 78.6851 171.761C78.6851 174.665 76.3087 177.174 73.4042 177.174C72.7441 177.174 72.216 177.042 71.5559 176.777C70.8958 178.098 70.4998 179.55 70.4998 181.134C70.4998 181.662 70.4998 182.058 70.4998 182.586L79.7413 246.749V247.277H118.292H118.16ZM270.513 241.864H255.066V231.302H270.513V241.864ZM270.513 228.794H255.066V218.232H270.513V228.794ZM270.513 215.724H255.066V205.162H270.513V215.724ZM270.513 202.654H255.066V192.092H270.513V202.654ZM270.513 189.584H255.066V179.022H270.513V189.584ZM280.15 241.864H273.153V231.302H281.602L280.15 241.864ZM281.998 228.794H273.153V218.232H283.451L281.998 228.794ZM283.847 215.724H273.153V205.162H285.299L283.847 215.724ZM285.695 202.654H273.153V192.092H287.147L285.695 202.654ZM287.411 179.154C287.411 179.154 288.6 179.682 288.6 180.342V182.058L287.543 189.584H273.153V179.022H287.411V179.154ZM95.5839 179.154H111.03V189.716H95.5839V179.154ZM95.5839 192.224H111.03V202.786H95.5839V192.224ZM95.5839 205.294H111.03V215.856H95.5839V205.294ZM95.5839 218.364H111.03V228.926H95.5839V218.364ZM95.5839 231.434H111.03V241.996H95.5839V231.434ZM77.3649 182.19V180.474C77.3649 179.814 77.893 179.286 78.5531 179.286H92.8114V189.848H78.4211L77.3649 182.322V182.19ZM78.8171 192.356H92.8114V202.918H80.2694L78.8171 192.356ZM80.6654 205.426H92.8114V215.988H82.1177L80.6654 205.426ZM82.5137 218.496H92.8114V229.058H83.966L82.5137 218.496ZM84.362 231.566H92.8114V242.128H85.8143L84.362 231.566Z" fill="#EBECF1"/>
<path d="M214.271 118.82V140.207V144.3H215.988V152.749H220.08V146.544L227.605 152.749H234.074L223.777 144.3H225.097V140.207H227.605V134.662H229.322V104.033H214.271V118.82ZM223.513 140.207H218.232V134.662H223.513V140.207Z" fill="#252628"/>
<path d="M200.937 152.749L208.462 146.544V152.749H212.555V144.3H214.271V140.207V118.82V104.033H199.221V134.662H201.993V140.207H203.578V144.3H204.898L194.6 152.749H201.069H200.937ZM205.954 134.662H210.311V140.207H205.954V134.662Z" fill="#333C4B"/>
<path d="M199.221 152.749H194.468L188.659 168.988H193.28L199.221 152.749Z" fill="#EBECF1"/>
<path d="M198.033 167.007V168.856H202.257C203.049 167.271 204.238 165.951 205.69 165.027L210.179 152.749H199.221L193.412 168.988H194.6V167.007H198.165H198.033Z" fill="#B1BED1"/>
<path d="M210.971 163.311L214.799 152.749H210.047L205.558 165.027C207.142 163.971 208.858 163.443 210.839 163.311H210.971Z" fill="#EBECF1"/>
<path d="M227.605 152.749H214.799L210.971 163.311C210.971 163.311 211.235 163.311 211.499 163.311C216.516 163.311 220.608 166.875 221.664 171.628H234.074V152.881H227.605V152.749Z" fill="#B1BED1"/>
<path d="M111.162 179.152H95.7158V189.714H111.162V179.152Z" fill="#B1BED1"/>
<path d="M111.162 192.092H95.7158V202.654H111.162V192.092Z" fill="#B1BED1"/>
<path d="M111.162 205.162H95.7158V215.724H111.162V205.162Z" fill="#B1BED1"/>
<path d="M111.162 218.231H95.7158V228.793H111.162V218.231Z" fill="#B1BED1"/>
<path d="M111.162 231.303H95.7158V241.864H111.162V231.303Z" fill="#B1BED1"/>
<path d="M93.0752 179.153H78.8169C78.8169 179.153 77.6287 179.682 77.6287 180.342V182.058L78.6848 189.583H93.0752V179.021V179.153Z" fill="#B1BED1"/>
<path d="M93.0753 192.092H78.949L80.5332 202.654H93.0753V192.092Z" fill="#B1BED1"/>
<path d="M93.0754 205.162H80.7974L82.3816 215.724H93.0754V205.162Z" fill="#B1BED1"/>
<path d="M93.0753 218.231H82.7776L84.2298 228.793H93.0753V218.231Z" fill="#B1BED1"/>
<path d="M93.0754 231.303H84.626L86.0782 241.864H93.0754V231.303Z" fill="#B1BED1"/>
<path d="M270.512 179.152H255.066V189.714H270.512V179.152Z" fill="#B1BED1"/>
<path d="M270.512 192.092H255.066V202.654H270.512V192.092Z" fill="#B1BED1"/>
<path d="M270.512 205.162H255.066V215.724H270.512V205.162Z" fill="#B1BED1"/>
<path d="M270.512 218.231H255.066V228.793H270.512V218.231Z" fill="#B1BED1"/>
<path d="M270.512 231.303H255.066V241.864H270.512V231.303Z" fill="#B1BED1"/>
<path d="M273.285 189.582H287.675L288.731 182.057V180.341C288.731 179.68 288.203 179.152 287.543 179.152H273.285V189.714V189.582Z" fill="#B1BED1"/>
<path d="M273.285 202.654H285.827L287.279 192.092H273.285V202.654Z" fill="#B1BED1"/>
<path d="M273.285 215.724H283.979L285.431 205.162H273.285V215.724Z" fill="#B1BED1"/>
<path d="M273.285 228.793H282.13L283.583 218.231H273.285V228.793Z" fill="#B1BED1"/>
<path d="M273.285 241.864H280.282L281.734 231.303H273.285V241.864Z" fill="#B1BED1"/>
<path d="M59.8059 171.496H71.5558V159.482C65.0868 159.482 59.8059 164.895 59.8059 171.496Z" fill="#EBECF1"/>
<path d="M79.2132 171.629H83.4379H95.1878C95.1878 165.028 89.9069 159.747 83.4379 159.747H71.5559V171.761H78.5531H79.2132V171.629Z" fill="#B1BED1"/>
<path d="M78.5529 171.628H67.8591C67.8591 174.004 69.3114 175.985 71.4237 176.645C71.9518 176.909 72.6119 177.041 73.272 177.041C76.1765 177.041 78.5529 174.664 78.5529 171.628Z" fill="#333D49"/>
<path d="M316.984 175.193H320.681L325.169 152.749H321.473L320.813 155.521L316.984 175.193Z" fill="#EBECF1"/>
<path d="M332.563 149.052H323.585L319.096 171.496H315.4H306.95C306.818 165.027 301.67 159.878 295.333 159.878H283.451V171.892H290.448H290.712C294.804 172.948 297.709 176.644 297.709 181.001C297.709 181.529 297.709 181.925 297.709 182.453L288.467 246.616V247.144H79.7412C79.7412 247.144 81.1935 252.953 86.7384 252.953H319.889C325.433 252.953 326.886 247.144 326.886 247.144V246.616V246.352V245.428C326.886 245.428 327.15 244.504 327.15 243.976L327.414 242.127L327.678 239.883L328.074 237.242L328.47 234.206L328.998 230.905L329.526 227.473L330.054 223.776L330.582 219.948L331.11 216.119L331.639 212.29L332.167 208.462L332.695 204.765L333.223 201.068L333.751 197.636L334.279 194.467L334.675 191.563L335.071 188.922L335.335 186.678C335.467 185.49 335.599 184.302 335.863 183.114C336.127 181.925 336.127 180.737 336.127 179.549V173.212C336.127 173.212 336.127 172.024 336.127 171.364V148.92H332.431L332.563 149.052Z" fill="#B1BED1"/>
<path d="M285.035 177.305C287.939 177.305 290.316 174.929 290.316 171.893H279.622C279.622 174.929 281.998 177.305 284.903 177.305H285.035Z" fill="#333D49"/>
<path d="M171.628 167.007H167.404V168.987H171.628V167.007Z" fill="#363F4E"/>
<path d="M211.499 177.172C213.322 177.172 214.799 175.695 214.799 173.872C214.799 172.049 213.322 170.571 211.499 170.571C209.676 170.571 208.198 172.049 208.198 173.872C208.198 175.695 209.676 177.172 211.499 177.172Z" fill="#343D4C"/>
<path d="M252.558 198.826V174.798V172.025C252.558 165.952 257.97 161.068 264.571 160.936H255.462C255.462 160.936 255.462 160.936 255.33 160.936H255.066C247.541 160.936 241.6 166.48 241.6 173.346V174.798V191.169H235.791V198.958H243.844V217.309H252.69V198.958L252.558 198.826Z" fill="#525F70"/>
<path d="M252.558 236.451V221.137H245.824V221.005V236.583H248.069V241.864H252.558V236.583V236.451Z" fill="#525F70"/>
<path d="M252.557 221.137V236.451V236.583V241.864H257.046V236.583H259.29V221.005V221.137H252.557Z" fill="#313A4B"/>
<path d="M270.513 191.037H264.968V160.804H264.704C258.103 160.804 252.69 165.821 252.69 171.894V174.534V217.045H261.535V198.694H270.645V190.905L270.513 191.037Z" fill="#313A4B"/>
<path d="M252.558 221.137V221.005V217.177H243.712L245.825 221.005V221.137H252.558Z" fill="#454F5B"/>
<path d="M252.557 221.005V221.137H259.29V221.005L261.403 217.177H252.557V221.005Z" fill="#29303A"/>
<path d="M236.319 233.018H187.471C187.106 233.018 186.811 233.313 186.811 233.678V240.015C186.811 240.379 187.106 240.675 187.471 240.675H236.319C236.683 240.675 236.979 240.379 236.979 240.015V233.678C236.979 233.313 236.683 233.018 236.319 233.018Z" stroke="#AFBBCE" stroke-width="0.062778" stroke-miterlimit="10"/>
<path d="M297.577 182.718L297.313 184.962H335.863L336.127 182.718H297.577Z" fill="#5D6C8A"/>
<path d="M291.768 224.305L291.504 226.549H329.922L330.318 224.305H291.768Z" fill="#5D6C8A"/>
<path d="M154.993 224.569V226.417H172.42V224.569H154.993Z" fill="#FDCC4D"/>
<path d="M189.979 198.957L189.055 200.673L148.921 179.286L149.845 177.569L189.979 198.957Z" fill="#FDCC4D" stroke="#FDCC4D" stroke-width="0.331827" stroke-linecap="round" stroke-linejoin="round"/>
<path d="M172.42 224.569V226.417H177.305V224.569H172.42Z" fill="#B4BECE"/>
<path d="M148.128 232.754C144.036 232.754 140.867 229.454 140.867 225.361C140.867 221.268 144.168 217.968 148.128 217.968C152.089 217.968 155.39 221.268 155.39 225.361C155.39 229.454 152.089 232.754 148.128 232.754ZM148.128 219.684C145.092 219.684 142.583 222.192 142.583 225.361C142.583 228.529 145.092 231.038 148.128 231.038C151.165 231.038 153.673 228.529 153.673 225.361C153.673 222.192 151.165 219.684 148.128 219.684Z" fill="#AFBBCE"/>
<path d="M148.92 231.697H147.204V248.992H148.92V231.697Z" fill="#AFBBCE"/>
<path d="M148.92 179.945H147.204V219.024H148.92V179.945Z" fill="#AFBBCE"/>
<path d="M155.918 236.186C157.084 236.186 158.03 235.24 158.03 234.073C158.03 232.907 157.084 231.961 155.918 231.961C154.751 231.961 153.805 232.907 153.805 234.073C153.805 235.24 154.751 236.186 155.918 236.186Z" fill="#B0BCCF"/>
<path d="M156.05 219.816C157.216 219.816 158.162 218.87 158.162 217.703C158.162 216.537 157.216 215.591 156.05 215.591C154.883 215.591 153.937 216.537 153.937 217.703C153.937 218.87 154.883 219.816 156.05 219.816Z" fill="#B0BCCF"/>
<path d="M140.207 219.816C141.374 219.816 142.319 218.87 142.319 217.703C142.319 216.537 141.374 215.591 140.207 215.591C139.04 215.591 138.095 216.537 138.095 217.703C138.095 218.87 139.04 219.816 140.207 219.816Z" fill="#B0BCCF"/>
<path d="M140.207 236.186C141.374 236.186 142.319 235.24 142.319 234.073C142.319 232.907 141.374 231.961 140.207 231.961C139.04 231.961 138.095 232.907 138.095 234.073C138.095 235.24 139.04 236.186 140.207 236.186Z" fill="#B0BCCF"/>
<path d="M168.856 189.98L165.159 187.868L144.96 177.174L142.715 181.399L140.075 186.679L184.17 210.179L186.679 205.426L189.055 200.674L187.999 200.146L183.906 197.901L178.229 194.865L169.78 190.376L168.856 189.98Z" fill="#B1BCD0"/>
<path d="M139.679 179.814L137.699 178.626L134.794 177.042L134.266 176.778C132.55 180.078 128.589 181.267 125.421 179.55C122.252 177.834 120.932 173.873 122.648 170.573L119.216 168.725C116.575 173.873 118.424 180.21 123.573 182.983C126.741 184.699 130.438 184.567 133.342 182.983L136.907 184.831H137.039L139.943 186.548L142.584 181.399L139.679 179.814Z" fill="#262729"/>
<path d="M119.084 168.856L122.516 170.705C124.233 167.404 128.193 166.216 131.362 167.932C134.53 169.649 135.851 173.609 134.134 176.91L134.662 177.174L137.567 178.758L139.547 179.814H139.679L142.584 181.531L144.828 177.306L145.752 175.59L142.584 173.873L141.792 175.458H141.395L138.491 173.741C138.491 171.233 137.567 168.856 135.983 167.008C135.19 166.084 134.134 165.16 132.946 164.632C130.702 163.444 128.193 163.18 125.817 163.708C123.573 164.236 121.592 165.424 120.008 167.14C119.48 167.668 119.084 168.328 118.688 168.988L119.084 168.856Z" fill="#363F4E"/>
<path d="M125.289 179.682C128.457 181.398 132.418 180.21 134.134 176.909C135.851 173.609 134.53 169.648 131.362 167.932C128.193 166.216 124.233 167.404 122.516 170.704C120.8 174.005 122.12 177.965 125.289 179.682ZM129.91 170.836C131.494 171.628 132.154 173.741 131.23 175.325C130.306 176.909 128.457 177.569 126.741 176.777C125.025 175.985 124.497 173.873 125.421 172.289C126.345 170.704 128.193 170.044 129.91 170.836Z" fill="#B2BED4"/>
<path d="M128.325 177.042C130.148 177.042 131.626 175.564 131.626 173.741C131.626 171.918 130.148 170.44 128.325 170.44C126.502 170.44 125.025 171.918 125.025 173.741C125.025 175.564 126.502 177.042 128.325 177.042Z" fill="#343D4C"/>
<path d="M198.825 218.76C195.656 217.044 194.336 213.083 196.052 209.783L192.62 207.935C192.62 207.935 192.62 208.199 192.488 208.331L189.847 206.878H189.715L186.811 205.162L184.302 209.915L187.207 211.499H187.339L191.564 213.876C191.96 217.308 193.94 220.345 197.109 222.061C202.257 224.833 208.462 222.853 211.235 217.704L207.802 215.856C206.086 219.156 202.125 220.345 198.957 218.628L198.825 218.76Z" fill="#262729"/>
<path d="M206.746 203.578C206.746 203.578 206.482 203.578 206.35 203.446C204.634 202.653 202.654 202.257 200.805 202.521C199.089 202.653 197.505 203.314 196.052 204.37L192.224 202.389L193.148 200.805L189.979 199.089L189.055 200.805L186.547 205.558L189.451 207.142H189.583L192.224 208.594C192.224 208.462 192.224 208.33 192.356 208.198L195.788 210.047C197.505 206.746 201.465 205.558 204.634 207.274C207.802 208.99 209.123 212.951 207.406 216.252L210.839 218.1C211.235 217.44 211.499 216.648 211.631 215.988C212.951 211.367 210.839 206.218 206.482 203.842L206.746 203.578Z" fill="#363F4E"/>
<path d="M198.825 218.76C201.993 220.476 205.954 219.288 207.67 215.987C209.386 212.687 208.066 208.726 204.898 207.01C201.729 205.294 197.769 206.482 196.052 209.782C194.336 213.083 195.656 217.044 198.825 218.76ZM203.445 209.914C205.03 210.707 205.69 212.819 204.766 214.403C203.842 215.987 201.993 216.648 200.277 215.855C198.561 215.063 198.033 212.951 198.957 211.367C199.881 209.782 201.729 209.122 203.445 209.914Z" fill="#B2BED4"/>
<path d="M201.861 216.252C203.684 216.252 205.162 214.775 205.162 212.952C205.162 211.129 203.684 209.651 201.861 209.651C200.038 209.651 198.561 211.129 198.561 212.952C198.561 214.775 200.038 216.252 201.861 216.252Z" fill="#343D4C"/>
<path d="M144.432 168.063H217.968C217.968 168.063 221.401 168.591 221.401 164.367V140.339C221.401 140.339 221.665 137.566 218.232 137.566" stroke="#FDCC4D" stroke-width="0.412541" stroke-linecap="round" stroke-linejoin="round"/>
<path d="M171.628 168.987H167.403H144.564V173.74V179.681H194.6V174.268V168.987H193.412H188.659H182.322H172.684H171.628Z" fill="#B1BCD0"/>
<path d="M141.131 173.741H138.623H134.794C134.794 177.438 131.89 180.342 128.193 180.342C124.497 180.342 121.592 177.306 121.592 173.741H117.763C117.763 179.55 122.516 184.303 128.193 184.303C131.758 184.303 135.058 182.455 136.907 179.55H144.564V173.609H141.263L141.131 173.741Z" fill="#262729"/>
<path d="M117.763 173.741H121.592C121.592 170.044 124.496 167.14 128.193 167.14C131.89 167.14 134.794 170.176 134.794 173.741H144.564V166.876H140.999V168.592H137.303C136.114 166.479 134.266 164.763 131.89 163.839C130.701 163.311 129.381 163.047 128.061 163.047C125.553 163.047 123.176 163.971 121.328 165.555C119.612 167.008 118.291 168.988 117.763 171.364C117.631 172.156 117.499 172.816 117.499 173.609L117.763 173.741Z" fill="#363F4E"/>
<path d="M128.193 180.474C131.889 180.474 134.794 177.437 134.794 173.873C134.794 170.308 131.889 167.271 128.193 167.271C124.496 167.271 121.592 170.308 121.592 173.873C121.592 177.437 124.496 180.474 128.193 180.474ZM128.193 170.44C130.041 170.44 131.493 171.892 131.493 173.741C131.493 175.589 130.041 177.041 128.193 177.041C126.345 177.041 124.892 175.589 124.892 173.741C124.892 171.892 126.345 170.44 128.193 170.44Z" fill="#B2BED4"/>
<path d="M128.193 177.042C130.016 177.042 131.494 175.564 131.494 173.741C131.494 171.918 130.016 170.44 128.193 170.44C126.37 170.44 124.893 171.918 124.893 173.741C124.893 175.564 126.37 177.042 128.193 177.042Z" fill="#343D4C"/>
<path d="M211.631 180.474C207.934 180.474 205.03 177.438 205.03 173.873H201.201C201.201 173.873 201.201 174.137 201.201 174.401H194.6V179.814H202.917C204.766 182.586 207.934 184.567 211.631 184.567C217.44 184.567 222.061 179.814 222.061 174.005H218.232C218.232 177.702 215.328 180.606 211.631 180.606V180.474Z" fill="#262729"/>
<path d="M211.631 163.179C211.631 163.179 211.367 163.179 211.103 163.179C209.122 163.179 207.274 163.839 205.822 164.895C204.37 165.819 203.314 167.14 202.389 168.724H198.165V166.876H194.6V174.137H201.201C201.201 174.137 201.201 173.873 201.201 173.609H205.03C205.03 169.912 207.934 167.008 211.631 167.008C215.328 167.008 218.232 170.044 218.232 173.609H222.061C222.061 172.816 222.061 172.024 221.797 171.364C220.74 166.611 216.648 163.047 211.631 163.047V163.179Z" fill="#363F4E"/>
<path d="M211.631 180.474C215.327 180.474 218.232 177.437 218.232 173.873C218.232 170.308 215.327 167.271 211.631 167.271C207.934 167.271 205.03 170.308 205.03 173.873C205.03 177.437 207.934 180.474 211.631 180.474ZM211.631 170.44C213.479 170.44 214.931 171.892 214.931 173.741C214.931 175.589 213.479 177.041 211.631 177.041C209.783 177.041 208.33 175.589 208.33 173.741C208.33 171.892 209.783 170.44 211.631 170.44Z" fill="#B2BED4"/>
<path d="M171.364 166.875H167.8V168.987H171.364V166.875Z" fill="#363F4E"/>
<path d="M305.102 143.771H303.122V146.016H305.102V143.771Z" fill="#222126"/>
<path d="M315.136 143.771H313.155V146.016H315.136V143.771Z" fill="#222126"/>
<path d="M93.3394 313.024V277.378H76.7047V313.024C76.7047 315.136 74.9884 316.852 73.0081 316.852H89.6428C91.7551 316.852 93.3394 315.136 93.3394 313.024Z" fill="#343E49"/>
<path d="M25.8762 277.509H0V313.155C0 315.267 1.71628 316.983 3.69661 316.983H38.8144C40.9267 316.983 42.511 315.267 42.511 313.155V277.509H25.8762Z" fill="#343E49"/>
<path d="M59.0139 227.737C57.1656 226.02 54.6571 226.021 54.6571 226.021H34.0618V228.265H54.6571C54.6571 228.265 56.3734 228.265 57.4296 229.321C58.0897 229.981 58.3538 230.905 58.3538 232.226V285.43C58.3538 286.618 57.9577 287.675 57.4296 288.335C56.3734 289.391 54.6571 289.391 54.5251 289.391H42.3791V291.635H54.3931C54.9212 291.635 57.1656 291.635 58.7498 289.919C59.938 288.863 60.4661 287.279 60.4661 285.43V232.226C60.4661 230.377 59.938 228.793 58.7498 227.737H59.0139Z" fill="#FDCC4D" stroke="#FDCC4D" stroke-width="0.251112" stroke-linecap="round" stroke-linejoin="round"/>
<path d="M317.908 221.268L322.529 187.999H303.782L299.161 221.268H317.908Z" fill="#272629"/>
<path d="M341.012 223.116L345.369 218.1L325.566 200.013H305.366V206.614H323.057L341.012 223.116Z" fill="#5E6C8A"/>
<path d="M343.52 216.78L347.877 211.763L328.074 193.676H307.875V200.277H325.433L343.52 216.78Z" fill="#B1BED1"/>
<path d="M335.071 217.572H348.141H355.27V224.305H335.071V217.572Z" fill="#AFBBCE"/>
<path d="M359.759 217.572H375.47V224.305H355.27V217.572H359.759Z" fill="#333D49"/>
<path d="M339.56 217.572V212.159H344.313V199.089H355.27H364.248V212.159H368.341V217.572H355.27H339.56Z" fill="#343C4B"/>
<path d="M355.27 189.979H344.312V199.089H355.27V189.979Z" fill="#EBECF0"/>
<path d="M375.47 224.305L366.756 231.17H355.27H343.916L335.071 224.305H355.27H375.47Z" fill="#333D49"/>
<path d="M344.445 231.303H366.756V237.244H341.012V234.735C341.012 232.887 342.596 231.303 344.445 231.303Z" fill="#242426"/>
<path d="M364.248 199.089H355.27V217.572H364.248V199.089Z" fill="#262828"/>
<path d="M368.209 212.158H364.248V217.571H368.209V212.158Z" fill="#262828"/>
<path d="M364.248 189.979H355.27V199.089H364.248V189.979Z" fill="#AFBBCE"/>
<path d="M359.759 191.827C361.211 191.827 362.4 193.015 362.4 194.468C362.4 195.92 361.211 197.108 359.759 197.108C358.307 197.108 357.119 195.92 357.119 194.468C357.119 193.015 358.307 191.827 359.759 191.827Z" fill="#242426"/>
<path d="M312.363 255.99C312.363 255.99 312.627 256.386 312.759 256.518L313.551 257.838C313.551 257.838 313.683 258.102 313.815 258.367L316.984 263.647C316.984 263.647 317.248 264.043 317.38 264.175V264.572L318.964 266.948C320.945 270.38 323.057 273.945 325.037 277.378L326.886 280.546L329.262 284.507C329.262 284.507 329.262 284.507 329.262 284.639C329.262 284.639 329.394 284.903 329.526 285.035L330.978 287.675H344.048V294.54H330.582H326.754L324.905 291.372C322.925 287.939 320.945 284.375 318.964 280.942L318.04 279.226L314.08 272.361C314.08 272.361 313.815 271.965 313.815 271.833L313.023 270.513C313.023 270.513 312.759 270.116 312.759 269.984L311.571 268.004L311.175 267.476L308.799 263.383C308.799 263.383 308.535 262.987 308.535 262.855L307.742 261.535C307.214 260.611 306.554 259.687 306.158 258.499C305.762 257.574 305.63 256.782 305.63 255.858C305.63 255.066 305.762 254.142 306.158 253.35C306.554 252.294 307.214 251.237 307.742 250.313L308.535 248.993C308.535 248.993 308.667 248.729 308.799 248.465L313.815 239.883C315.796 236.451 317.908 232.886 319.888 229.454L323.189 223.777C323.717 222.721 324.509 221.664 325.565 220.608C326.886 219.156 328.602 218.232 330.318 217.704C332.034 217.176 333.883 217.176 335.335 217.176H335.467H339.296H355.138V224.041H334.939L337.579 226.021L334.411 231.302C334.411 231.302 334.279 231.566 334.147 231.698L333.355 233.018C333.355 233.018 333.355 233.15 333.223 233.282L332.431 234.603L328.074 242.128C326.093 245.56 323.981 249.125 322.001 252.558L320.153 255.726H312.363V255.99Z" fill="#5E6C8A"/>
<path d="M331.771 275.529C332.959 277.509 334.147 279.489 335.203 281.47V281.734H343.917V287.411H330.847L329.394 284.77C329.394 284.77 329.262 284.506 329.13 284.374C328.338 283.054 327.546 281.602 326.754 280.282L324.906 277.113C322.925 273.681 320.813 270.116 318.833 266.683L317.512 264.307V263.911C317.512 263.911 317.116 263.515 316.984 263.383L313.816 258.102C313.816 258.102 313.552 257.706 313.552 257.574L312.76 256.254C312.76 256.254 312.496 255.858 312.364 255.726H320.285L324.642 263.119C324.642 263.119 324.642 263.251 324.774 263.383L327.018 267.079L329.13 270.776C330.054 272.228 330.847 273.681 331.771 275.265V275.529Z" fill="#B1BCCF"/>
<path d="M328.074 223.644C329.922 221.928 332.431 221.928 332.431 221.928H353.026V224.172H332.431C332.431 224.172 330.714 224.172 329.658 225.228C328.998 225.888 328.734 226.813 328.734 228.133V254.801V281.47C328.734 282.658 329.13 283.714 329.658 284.374C330.714 285.43 332.431 285.43 332.563 285.43H344.709V287.675H332.695C332.167 287.675 329.922 287.675 328.338 285.958C327.15 284.902 326.622 283.318 326.622 281.47V254.801V228.133C326.622 226.284 327.15 224.7 328.338 223.644H328.074Z" fill="#FDCC4D" stroke="#FDCC4D" stroke-width="0.251112" stroke-linecap="round" stroke-linejoin="round"/>
<path d="M305.366 206.614H301.273L302.198 200.013H305.366V206.614Z" fill="#5E6C8A"/>
<path d="M307.874 200.277H301.669L302.726 193.676H307.874V200.277Z" fill="#B1BED1"/>
<path d="M395.405 269.323H354.214C353.849 269.323 353.554 269.619 353.554 269.983V316.191C353.554 316.556 353.849 316.851 354.214 316.851H395.405C395.769 316.851 396.065 316.556 396.065 316.191V269.983C396.065 269.619 395.769 269.323 395.405 269.323Z" fill="#242428"/>
<path d="M387.088 269.323H345.897C345.532 269.323 345.237 269.619 345.237 269.983V316.191C345.237 316.556 345.532 316.851 345.897 316.851H387.088C387.452 316.851 387.748 316.556 387.748 316.191V269.983C387.748 269.619 387.452 269.323 387.088 269.323Z" fill="#343E49"/>
<path d="M384.051 269.323H348.933C346.821 269.323 345.237 271.04 345.237 273.152V277.509H387.748V273.152C387.748 271.04 386.032 269.323 384.051 269.323Z" fill="#343E49"/>
<path d="M370.453 269.323H329.262C328.897 269.323 328.602 269.619 328.602 269.983V316.191C328.602 316.556 328.897 316.851 329.262 316.851H370.453C370.817 316.851 371.113 316.556 371.113 316.191V269.983C371.113 269.619 370.817 269.323 370.453 269.323Z" fill="#242428"/>
<path d="M362.136 269.323H320.945C320.58 269.323 320.285 269.619 320.285 269.983V316.191C320.285 316.556 320.58 316.851 320.945 316.851H362.136C362.5 316.851 362.796 316.556 362.796 316.191V269.983C362.796 269.619 362.5 269.323 362.136 269.323Z" fill="#343E49"/>
<path d="M359.099 269.323H323.981C321.869 269.323 320.285 271.04 320.285 273.152V277.509H362.796V273.152C362.796 271.04 361.079 269.323 359.099 269.323Z" fill="#343E49"/>
<path d="M344.577 269.323H303.386C303.021 269.323 302.726 269.619 302.726 269.983V316.191C302.726 316.556 303.021 316.851 303.386 316.851H344.577C344.941 316.851 345.237 316.556 345.237 316.191V269.983C345.237 269.619 344.941 269.323 344.577 269.323Z" fill="#242428"/>
<path d="M294.408 313.024C294.408 315.136 296.124 316.852 298.105 316.852H333.223C335.335 316.852 336.919 315.136 336.919 313.024V277.378H294.408V313.024Z" fill="#343E49"/>
<path d="M333.223 269.323H298.105C295.992 269.323 294.408 271.04 294.408 273.152V277.509H336.919V273.152C336.919 271.04 335.203 269.323 333.223 269.323Z" fill="#343E49"/>
<path d="M336.919 276.189V283.583C338.9 283.583 340.616 281.866 340.616 279.886C340.616 277.906 339.032 276.189 336.919 276.189Z" fill="#B1BED0"/>
<path d="M336.919 289.392V296.785C338.9 296.785 340.616 295.069 340.616 293.088C340.616 291.108 339.032 289.392 336.919 289.392Z" fill="#B1BED0"/>
<path d="M336.919 302.594V309.987C338.9 309.987 340.616 308.271 340.616 306.29C340.616 304.31 339.032 302.594 336.919 302.594Z" fill="#B1BED0"/>
<path d="M362.796 276.189V283.583C364.776 283.583 366.492 281.866 366.492 279.886C366.492 277.906 364.908 276.189 362.796 276.189Z" fill="#B1BED0"/>
<path d="M362.796 289.392V296.785C364.776 296.785 366.492 295.069 366.492 293.088C366.492 291.108 364.908 289.392 362.796 289.392Z" fill="#B1BED0"/>
<path d="M362.796 302.594V309.987C364.776 309.987 366.492 308.271 366.492 306.29C366.492 304.31 364.908 302.594 362.796 302.594Z" fill="#B1BED0"/>
<path d="M387.748 276.189V283.583C389.728 283.583 391.444 281.866 391.444 279.886C391.444 277.906 389.86 276.189 387.748 276.189Z" fill="#B1BED0"/>
<path d="M387.748 289.392V296.785C389.728 296.785 391.444 295.069 391.444 293.088C391.444 291.108 389.86 289.392 387.748 289.392Z" fill="#B1BED0"/>
<path d="M387.748 302.594V309.987C389.728 309.987 391.444 308.271 391.444 306.29C391.444 304.31 389.86 302.594 387.748 302.594Z" fill="#B1BED0"/>
<path d="M257.046 241.863H280.282L289.523 179.152H264.967V198.824H261.403V217.175L259.291 221.003V236.582H257.046V241.863Z" fill="#B1BED1"/>
<path d="M86.0783 241.863L77.1008 179.152H111.294V241.863H86.0783Z" fill="#B1BED1"/>
</g>
<defs>
<clipPath id="clip0_908_1102">
<rect width="396.065" height="316.852" fill="white"/>
</clipPath>
</defs>
</svg>
