<svg width="313" height="377" viewBox="0 0 313 377" fill="none" xmlns="http://www.w3.org/2000/svg">
<g clip-path="url(#clip0_908_852)">
<path d="M58.6622 236.891C58.6622 236.891 54.2288 235.442 54.2288 230.972V236.891H58.6622Z" fill="#697895"/>
<path d="M101.027 305.362H44.718V345.969H101.027V305.362Z" fill="#F9F1E4"/>
<path d="M44.7058 305.362H26.0681V341.709H44.7058V305.362Z" fill="#B1BBCE"/>
<path d="M85.907 223.454H55.4055V305.361H85.907V223.454Z" fill="#F9F1E4"/>
<path d="M275.182 223.454H244.68V305.361H275.182V223.454Z" fill="#F9F1E4"/>
<path d="M55.5293 226.885H36.8916L26.0681 202.39H44.7182L55.5293 226.885Z" fill="#697895"/>
<path d="M55.5294 226.885H91.6407L102.464 202.39V177.895H44.7183V202.39L55.5294 226.885Z" fill="#F9F1E4"/>
<path d="M171.033 0C169.213 0 167.9 1.44891 167.9 3.15789V8.55725H174.674V0H171.021H171.033Z" fill="#8E9EB2"/>
<path d="M181.324 3.15789C181.324 1.31269 179.888 0 178.191 0H174.674V8.55725H181.448V3.15789H181.312H181.324Z" fill="#B0BDD0"/>
<path d="M240.123 57.8086H232.953V86.7745H240.123V57.8086Z" fill="#F9F1E4"/>
<path d="M135.839 57.8086H127.492V63.6042H135.839V57.8086Z" fill="#F9F1E4"/>
<path d="M137.919 29.2383H129.573V50.6995H137.919V29.2383Z" fill="#B0BDD0"/>
<path d="M164.767 30.1553H158.513V63.0716H164.767V30.1553Z" fill="#F9F1E4"/>
<path d="M73.6467 106.786C57.7458 106.786 44.7056 120.086 44.7056 136.408V202.513H102.452V136.408C102.452 120.074 89.5476 106.786 73.5104 106.786H73.6467Z" fill="#F9F1E4"/>
<path d="M44.8418 136.421C44.8418 120.087 57.7458 106.799 73.7829 106.799H55.1452C39.2443 106.799 26.2041 120.099 26.2041 136.421V202.526H44.8418V136.421Z" fill="#B1BBCE"/>
<path d="M242.984 305.362L214.563 341.573H189.931V305.362H242.984Z" fill="#F9F1E4"/>
<path d="M64.26 106.923V305.362H119.405V297.201V259.938V239.789V228.854V225.833V106.923H64.26Z" fill="#B1BDD2"/>
<path d="M249.374 305.362H119.405V262.439V243.344V106.923H249.374V305.362Z" fill="#F9F1E4"/>
<path d="M140.656 169.87H119.405V238.873H140.656V169.87Z" fill="#3487C7"/>
<path d="M156.817 172.236H175.331C177.288 172.236 178.984 173.821 178.984 175.927V233.078C178.984 235.047 177.424 236.769 175.331 236.769H156.817C154.861 236.769 153.164 235.184 153.164 233.078V175.927C153.164 173.958 154.724 172.236 156.817 172.236Z" fill="#AFBED5"/>
<path d="M175.331 174.477C176.111 174.477 176.631 175.133 176.631 175.79V232.941C176.631 233.734 175.975 234.254 175.331 234.254H156.817C156.037 234.254 155.517 233.598 155.517 232.941V175.79C155.517 174.997 156.173 174.477 156.817 174.477H175.331ZM175.331 169.87H156.817C153.56 169.87 150.947 172.508 150.947 175.79V232.941C150.947 236.235 153.56 238.861 156.817 238.861H175.331C178.588 238.861 181.201 236.223 181.201 232.941V175.79C181.201 172.495 178.588 169.87 175.331 169.87Z" fill="#AFBED5"/>
<path d="M153.3 257.04L153.164 249.003H178.848L178.984 256.904L178.848 257.04H153.3Z" fill="#AFBED5"/>
<path d="M176.631 251.245V254.663H155.381V251.245H176.631ZM178.848 246.762H153.3C152 246.762 150.959 247.814 150.959 249.127V257.028C150.959 258.341 152 259.393 153.3 259.393H178.848C180.148 259.393 181.188 258.341 181.188 257.028V249.127C181.188 247.814 180.148 246.762 178.848 246.762Z" fill="#AFBED5"/>
<path d="M161.114 269.287H153.82V295.231H161.114V269.287Z" fill="#AFBED5"/>
<path d="M158.91 271.516V292.854H156.037V271.516H158.91ZM161.647 267.046H153.436C152.396 267.046 151.616 267.838 151.616 268.891V295.752C151.616 296.804 152.396 297.597 153.436 297.597H161.647C162.687 297.597 163.467 296.804 163.467 295.752V268.891C163.467 267.838 162.687 267.046 161.647 267.046Z" fill="#AFBED5"/>
<path d="M178.848 269.287H171.554V295.231H178.848V269.287Z" fill="#AFBED5"/>
<path d="M176.631 271.516V292.854H173.758V271.516H176.631ZM179.368 267.046H171.158C170.117 267.046 169.337 267.838 169.337 268.891V295.752C169.337 296.804 170.117 297.597 171.158 297.597H179.368C180.408 297.597 181.189 296.804 181.189 295.752V268.891C181.189 267.838 180.408 267.046 179.368 267.046Z" fill="#AFBED5"/>
<path d="M119.405 249.399H112.891V256.508H119.405V249.399Z" fill="#B1BDD2"/>
<path d="M203.095 249.003H189.015V257.04H203.095V249.003Z" fill="#AFBED5"/>
<path d="M200.755 251.245V254.663H191.244V251.245H200.755ZM202.959 246.762H188.879C187.579 246.762 186.662 247.814 186.662 249.003V257.04C186.662 258.353 187.702 259.282 188.879 259.282H202.959C204.26 259.282 205.176 258.229 205.176 257.04V249.003C205.176 247.691 204.136 246.762 202.959 246.762Z" fill="#AFBED5"/>
<path d="M192.012 124.966H199.838C201.535 124.966 202.971 126.415 202.971 128.124V233.597C202.971 235.306 201.535 236.755 199.838 236.755H192.012C190.315 236.755 188.878 235.306 188.878 233.597V128.124C188.878 126.415 190.315 124.966 192.012 124.966Z" fill="#AFBED5"/>
<path d="M199.962 127.331C200.482 127.331 200.742 127.728 200.742 128.124V233.597C200.742 234.13 200.346 234.39 199.962 234.39H192.135C191.615 234.39 191.355 233.994 191.355 233.597V128.124C191.355 127.591 191.752 127.331 192.135 127.331H199.962ZM199.962 122.725H192.135C189.139 122.725 186.786 125.09 186.786 128.124V233.597C186.786 236.631 189.126 238.997 192.135 238.997H199.962C202.959 238.997 205.312 236.631 205.312 233.597V128.124C205.312 125.09 202.971 122.725 199.962 122.725Z" fill="#AFBED5"/>
<path d="M79.1203 169.87H98.6745C100.767 169.87 102.452 171.579 102.452 173.684V192.384C102.452 194.489 100.755 196.198 98.6745 196.198H79.1203C77.0275 196.198 75.3433 194.489 75.3433 192.384V173.684C75.3433 171.579 77.0399 169.87 79.1203 169.87Z" fill="#697895"/>
<path d="M102.08 202.922H92.0369V238.34H102.08V202.922Z" fill="#697895"/>
<path d="M101.412 203.442V237.808H92.5447V203.442H101.412ZM102.464 202.39H91.3806V238.996H102.464V202.39Z" fill="#697895"/>
<path d="M84.2101 202.39H75.3433V207.789H84.2101V202.39Z" fill="#4F5C6D"/>
<path d="M88.6436 202.39H84.2102V207.789H88.6436V202.39Z" fill="#7E8A9C"/>
<path d="M84.2101 210.154H75.3433V215.554H84.2101V210.154Z" fill="#4F5C6D"/>
<path d="M88.6436 210.154H84.2102V215.554H88.6436V210.154Z" fill="#7E8A9C"/>
<path d="M84.2101 217.932H75.3433V223.331H84.2101V217.932Z" fill="#4F5C6D"/>
<path d="M88.6436 217.932H84.2102V223.331H88.6436V217.932Z" fill="#7E8A9C"/>
<path d="M84.2101 225.696H75.3433V231.096H84.2101V225.696Z" fill="#4F5C6D"/>
<path d="M88.6436 225.696H84.2102V231.096H88.6436V225.696Z" fill="#7E8A9C"/>
<path d="M84.2101 233.461H75.3433V238.86H84.2101V233.461Z" fill="#4F5C6D"/>
<path d="M88.6436 233.461H84.2102V238.86H88.6436V233.461Z" fill="#7E8A9C"/>
<path d="M115.368 179.48V195.938C115.368 198.304 117.188 200.149 119.405 200.545V174.997C117.065 175.393 115.368 177.239 115.368 179.604V179.468V179.48Z" fill="#10518E"/>
<path d="M113.932 195.938V179.48C113.932 176.445 116.272 173.944 119.405 173.56V170.006H110.415V239.009H119.405V201.87C116.272 201.473 113.932 198.972 113.932 195.95V195.938Z" fill="#10518E"/>
<path d="M130.489 173.425H119.542V174.874H130.489C133.102 174.874 135.306 176.979 135.306 179.481V195.939C135.306 198.44 133.226 200.545 130.489 200.545H119.542V201.994H130.489C133.882 201.994 136.743 199.357 136.743 195.939V179.481C136.743 176.186 134.006 173.425 130.489 173.425Z" fill="white"/>
<path d="M115.368 195.939V179.481C115.368 177.115 117.188 175.27 119.405 174.874V173.425C116.272 173.821 113.931 176.323 113.931 179.344V195.802C113.931 198.837 116.272 201.338 119.405 201.722V200.273C117.065 199.877 115.368 198.032 115.368 195.666V195.926V195.939Z" fill="#ABBBD3"/>
<path d="M130.489 206.476H119.542V207.924H130.489C133.102 207.924 135.306 210.03 135.306 212.531V228.989C135.306 231.491 133.226 233.596 130.489 233.596H119.542V235.045H130.489C133.882 235.045 136.743 232.407 136.743 228.989V212.531C136.743 209.237 134.006 206.476 130.489 206.476Z" fill="white"/>
<path d="M115.368 228.855V212.397C115.368 210.031 117.188 208.186 119.405 207.79V206.341C116.272 206.737 113.931 209.239 113.931 212.26V228.718C113.931 231.753 116.272 234.254 119.405 234.638V233.189C117.065 232.793 115.368 230.948 115.368 228.582V228.842V228.855Z" fill="#ABBBD3"/>
<path d="M101.944 247.158H84.6067V258.75H101.944V247.158Z" fill="#697895"/>
<path d="M101.548 247.691V258.353H85.1266V247.691H101.548ZM102.464 246.762H84.2102V259.269H102.464V246.762Z" fill="#697895"/>
<path d="M101.684 267.046H75.4797V297.461H101.684V267.046Z" fill="#536070"/>
<path d="M89.424 275.207H78.2166V297.461H89.424V275.207Z" fill="#808B9C"/>
<path d="M119.405 267.046H110.154V297.461H119.405V267.046Z" fill="#10518E"/>
<path d="M140.396 267.046H119.405V297.461H140.396V267.046Z" fill="#3487C7"/>
<path d="M182.625 106.923H179.764V138.39H119.405V141.028H179.764V159.591H119.405V162.365H182.625V106.923Z" fill="#AFBED5"/>
<path d="M76.78 159.591V141.028H119.405V138.39H76.78V106.923H74.0432V138.39V141.028V162.365H119.405V159.591H76.78Z" fill="#5F6E8C"/>
<path d="M189.931 305.362H183.145V314.316H76.3835L97.7705 341.573H151.479H160.73H189.931V323.406H228.779L242.984 305.362H189.931Z" fill="#B1BDD2"/>
<path d="M183.145 305.362H160.73H151.479H69.3496L76.3836 314.316H183.145V305.362Z" fill="#5D6E88"/>
<path d="M64.5322 97.5732V107.456H119.665V107.183H64.5322V97.5732Z" fill="#AFBCD0"/>
<path d="M119.678 97.5732H64.5322V107.183H119.678V97.5732Z" fill="#B0BDD0"/>
<path d="M249.498 97.5732H119.665V107.443H249.498V97.5732Z" fill="#F9F1E4"/>
<path d="M249.238 87.7026H119.925C119.925 88.8915 119.789 90.068 119.665 91.1206V97.4364H249.498V87.5664H249.238V87.7026Z" fill="#3784C5"/>
<path d="M119.665 94.6752V91.1211C119.665 89.9322 119.665 88.7558 119.925 87.7031H64.7801C64.6439 90.0684 64.52 92.4461 64.52 94.8115V97.5731H119.665V94.6752Z" fill="#175189"/>
<path d="M119.925 87.7031C119.925 88.892 119.789 90.0684 119.665 91.1211C119.665 89.9322 119.665 88.7558 119.925 87.7031Z" fill="#175189"/>
<path d="M120.062 87.7028C120.198 86.1177 120.322 84.5449 120.582 82.9598V82.4273C120.842 80.9784 120.978 79.6657 121.238 78.3406V77.6843C121.894 74.5264 122.675 71.4923 123.579 68.4707V68.2106C125.523 62.0682 128.222 56.3221 131.318 50.836C131.368 50.7493 131.405 50.6503 131.418 50.5512L134.031 32.4707C134.092 32.0497 134.452 31.7401 134.86 31.7401H146.513C147.814 30.5512 148.99 29.3748 150.427 28.1859C150.427 28.1859 150.563 28.1859 150.687 28.0497C151.987 26.9971 153.3 25.9444 154.6 24.8918C154.6 24.8918 154.86 24.6318 154.996 24.6318C156.297 23.5791 157.733 22.6627 159.17 21.5977C159.306 21.5977 159.566 21.3376 159.69 21.2014C160.99 20.285 162.303 19.4924 163.727 18.6999C163.727 18.6999 163.987 18.5637 164.123 18.4398H161.188C160.718 18.4398 160.346 18.0559 160.346 17.5853V6.37792C160.346 5.90734 159.962 5.52344 159.504 5.52344H153.238C152.767 5.52344 152.396 5.90734 152.396 6.37792V17.4491C152.396 17.9197 152.012 18.3036 151.554 18.3036H109.226C109.077 18.3036 108.916 18.3407 108.792 18.4274C84.396 32.7803 67.3805 57.7462 64.7552 86.6254C64.7056 87.1332 65.1019 87.5666 65.6096 87.5666H119.814L120.074 87.7028H120.062Z" fill="#B0BDD0"/>
<path d="M121.362 77.5603C122.018 74.4024 122.798 71.3683 123.702 68.3467C122.786 71.3807 122.006 74.4024 121.362 77.5603Z" fill="#B0BDD0"/>
<path d="M155.12 24.3602C156.42 23.3076 157.857 22.3912 159.293 21.3262C157.857 22.2426 156.557 23.2952 155.12 24.3602Z" fill="#B0BDD0"/>
<path d="M159.95 21.066C161.25 20.1496 162.563 19.357 163.987 18.5645C162.687 19.357 161.25 20.2734 159.95 21.066Z" fill="#B0BDD0"/>
<path d="M146.91 31.4682C148.21 30.2794 149.386 29.1029 150.823 27.9141C149.523 29.1029 148.21 30.1555 146.91 31.4682Z" fill="#B0BDD0"/>
<path d="M131.665 50.7002C128.408 56.2358 125.795 62.0191 123.838 68.211C125.795 62.0191 128.532 56.2234 131.665 50.7002Z" fill="#B0BDD0"/>
<path d="M120.582 82.3035C120.842 80.8546 120.978 79.5419 121.238 78.2168C120.978 79.5295 120.718 80.9784 120.582 82.3035Z" fill="#B0BDD0"/>
<path d="M119.925 87.703C120.062 86.1179 120.185 84.5451 120.445 82.96C120.185 84.5451 120.049 86.1179 119.925 87.703Z" fill="#B0BDD0"/>
<path d="M146.526 31.8633C140.792 37.5227 135.702 43.8509 131.665 50.6991C135.702 43.8509 140.792 37.5351 146.526 31.8633Z" fill="#175189"/>
<path d="M168.681 17.115C168.941 16.9788 169.201 16.855 169.597 16.7188C169.337 16.855 169.077 16.9788 168.681 17.115Z" fill="#3285CA"/>
<path d="M178.848 12.6434C179.244 12.5071 179.628 12.3833 179.888 12.2471C179.492 12.2471 179.108 12.5071 178.848 12.6434Z" fill="#3285CA"/>
<path d="M173.894 14.7495C173.894 14.7495 174.154 14.7495 174.291 14.6133C174.291 14.6133 174.031 14.6133 173.894 14.7495Z" fill="#3285CA"/>
<path d="M179.888 11.0581C179.492 11.0581 179.108 11.3181 178.848 11.4544C177.287 11.9869 175.715 12.6432 174.29 13.2996C174.29 13.2996 174.03 13.2996 173.894 13.4358C172.458 14.0921 171.021 14.7485 169.597 15.4048C169.337 15.541 169.077 15.6649 168.68 15.8011C167.244 16.5937 165.684 17.3862 164.247 18.1664H205.176C198.786 14.476 192.012 11.4544 184.705 9.21289C183.145 9.7454 181.448 10.2655 179.888 10.798V11.0581Z" fill="#3285CA"/>
<path d="M164.247 18.3041C165.684 17.5115 167.12 16.719 168.681 15.9388C168.941 15.8025 169.201 15.6787 169.597 15.5425C171.034 14.8861 172.47 14.2298 173.894 13.5734C173.894 13.5734 174.154 13.5735 174.291 13.4372C175.851 12.7809 177.424 12.1245 178.848 11.592C179.244 11.4558 179.628 11.332 179.888 11.1957C181.448 10.6632 183.021 10.1431 184.705 9.61061C177.015 7.24529 168.928 5.92022 160.458 5.66016V18.5641H164.235V18.3041H164.247Z" fill="#114F84"/>
<path d="M179.888 12.2482C181.448 11.7157 183.021 11.1956 184.705 10.6631C183.145 11.1956 181.448 11.7157 179.888 12.2482Z" fill="#3285CA"/>
<path d="M164.383 18.3048C165.82 17.5122 167.256 16.7196 168.817 15.9395C167.38 16.732 165.82 17.5246 164.383 18.3048Z" fill="#3285CA"/>
<path d="M169.597 16.719C171.033 16.0627 172.47 15.4063 173.894 14.75C172.458 15.4063 171.021 16.0627 169.597 16.719Z" fill="#3285CA"/>
<path d="M174.29 14.6138C175.851 13.9574 177.423 13.3011 178.848 12.7686C177.287 13.3011 175.714 13.9574 174.29 14.6138Z" fill="#3285CA"/>
<path d="M152.644 5.53613C136.743 6.3287 122.006 10.9355 109.238 18.3039H152.644V5.53613Z" fill="#114F84"/>
<path d="M249.374 84.5323V84.7924H234.34V59.3807H242.451C234.736 42.2662 221.659 27.9133 205.324 18.291H164.272C164.272 18.291 164.012 18.4272 163.875 18.5511C162.563 19.3436 161.126 20.2601 159.826 21.0526C159.69 21.0526 159.43 21.3127 159.306 21.4489C157.869 22.3653 156.557 23.4179 155.12 24.483C155.12 24.483 154.86 24.743 154.724 24.743C153.411 25.7956 152.111 26.8483 150.798 27.9009C150.798 27.9009 150.662 27.9009 150.538 28.0371C149.225 29.226 147.925 30.2786 146.612 31.5913H162.303V61.3497H130.006L131.578 50.551C128.309 56.0866 125.696 61.8699 123.739 68.0618V68.3219C122.823 71.3559 122.043 74.3776 121.386 77.5355V78.1918C121.126 79.5045 120.866 80.9534 120.73 82.2785V82.811C120.47 84.3961 120.334 85.9689 120.21 87.554H250.179C250.179 86.5014 249.919 85.585 249.782 84.52H249.386L249.374 84.5323Z" fill="#F9F1E4"/>
<path d="M234.117 82.9602C234.117 84.0129 235.033 84.9293 236.074 84.9293H249.238V84.6692C248.197 75.8519 245.844 67.2823 242.327 59.5176H236.197C235.157 59.5176 234.241 60.434 234.241 61.4866V83.0841L234.104 82.9479L234.117 82.9602Z" fill="#3784C5"/>
<path d="M83.5538 82.9602C83.5538 84.0129 82.6374 84.9293 81.5972 84.9293H68.4331V84.6692C69.4734 75.8519 71.8263 67.2823 75.3433 59.5176H81.4733C82.5136 59.5176 83.43 60.434 83.43 61.4866V83.0841L83.5662 82.9479L83.5538 82.9602Z" fill="#0F456D"/>
<path d="M141.312 65.4492H165.56C166.278 65.4492 166.86 66.0436 166.86 66.7619V82.1674C166.86 82.8981 166.278 83.4801 165.56 83.4801H141.312C140.594 83.4801 140.012 82.8857 140.012 82.1674V66.7619C140.012 66.0313 140.594 65.4492 141.312 65.4492Z" fill="#2170A5"/>
<path d="M257.188 106.786C241.288 106.786 228.247 120.086 228.247 136.408V202.513H285.993V136.408C285.993 120.074 273.089 106.786 257.052 106.786H257.188Z" fill="#F9F1E4"/>
<path d="M228.26 136.421C228.26 120.087 241.164 106.799 257.201 106.799H238.563C222.662 106.799 209.622 120.099 209.622 136.421V202.526H228.26V136.421Z" fill="#B1BBCE"/>
<path d="M125.015 294.179C131.567 294.179 136.879 288.812 136.879 282.192C136.879 275.571 131.567 270.204 125.015 270.204C118.463 270.204 113.151 275.571 113.151 282.192C113.151 288.812 118.463 294.179 125.015 294.179Z" fill="white"/>
<path d="M125.015 291.677C130.199 291.677 134.402 287.43 134.402 282.191C134.402 276.952 130.199 272.705 125.015 272.705C119.831 272.705 115.628 276.952 115.628 282.191C115.628 287.43 119.831 291.677 125.015 291.677Z" fill="#3F444A"/>
<path d="M190.055 305.362H180.148V341.709H190.055V305.362Z" fill="#5D6E88"/>
<path d="M107.802 305.362H97.8945V341.709H107.802V305.362Z" fill="#5D6E88"/>
<path d="M129.312 305.362H119.405V341.709H129.312V305.362Z" fill="#5D6E88"/>
<path d="M149.783 305.362H139.876V341.709H149.783V305.362Z" fill="#5D6E88"/>
<path d="M170.241 305.362H160.334V341.573H170.241V305.362Z" fill="#5D6E88"/>
<path d="M108.978 144.582L100.111 147.48H90.3403V150.378V153.276H100.111L108.978 156.173H119.405V144.582H108.978Z" fill="#12518A"/>
<path d="M131.665 147.48V144.582H129.189H119.405V156.173H129.189H131.665V153.276V150.378V147.48Z" fill="#3285CA"/>
<path d="M150.303 144.582V150.378V156.173H170.637V144.582H150.303Z" fill="#3285CA"/>
<path d="M173.114 144.582H170.637V156.173H173.114V144.582Z" fill="#262623"/>
<path d="M150.303 144.582L141.436 147.48H135.826V153.276H141.436L150.303 156.173V150.378V144.582Z" fill="#3285CA"/>
<path d="M90.3402 147.479H87.3433V153.275H90.3402V150.377V147.479Z" fill="#353E4B"/>
<path d="M131.665 147.479V150.377V153.275H135.826V147.479H131.665Z" fill="#16538A"/>
<path d="M110.018 123.776H89.8201V135.368H110.018V129.572V123.776Z" fill="#12518A"/>
<path d="M89.82 123.776H87.3433V135.368H89.82V123.776Z" fill="#262623"/>
<path d="M124.619 126.811H119.405V132.606H124.619V126.811Z" fill="#3285CA"/>
<path d="M119.405 126.81L110.018 123.776V129.572V135.368L119.405 132.47V126.81Z" fill="#0A3D63"/>
<path d="M169.981 126.81H160.21L151.343 123.776H131.133H128.656V126.81V129.572V132.47V135.368H131.133H151.343L160.21 132.47H169.981V129.572V126.81Z" fill="#3285CA"/>
<path d="M169.981 126.811V129.572V132.47H173.114V126.811H169.981Z" fill="#353E4B"/>
<path d="M128.656 126.811H124.619V132.47H128.656V129.572V126.811Z" fill="#16538A"/>
<path d="M99.9873 153.276L109.238 156.173V150.378V144.582L99.9873 147.48V153.276Z" fill="#0A3D63"/>
<path d="M120.198 188.434H116.545V192.248H120.198V188.434Z" fill="#525456"/>
<path d="M120.198 183.431H116.544V186.849H120.198V183.431Z" fill="#525456"/>
<path d="M131.405 196.594H122.798C121.362 196.594 120.322 195.405 120.322 194.092V193.832H116.668V195.541C116.668 197.25 117.969 198.835 119.802 199.095H130.229C132.309 199.095 134.006 197.51 134.006 195.541V194.092C134.006 195.541 132.829 196.594 131.529 196.594H131.393H131.405Z" fill="#525456"/>
<path d="M130.093 176.322H119.665C117.845 176.582 116.532 178.031 116.532 179.876V181.845H120.185V180.929C120.185 179.48 121.362 178.427 122.662 178.427H131.269C132.706 178.427 133.746 179.616 133.746 180.929V179.74C133.746 177.771 132.049 176.186 129.969 176.186L130.105 176.322H130.093Z" fill="#525456"/>
<path d="M130.092 173.288H119.405C116.012 173.684 113.411 176.446 113.411 179.74V195.406C113.411 198.7 116.024 201.461 119.541 201.858H130.105C133.758 201.858 136.879 198.96 136.879 195.269V179.604C136.879 176.05 133.882 173.016 130.105 173.016V173.276L130.092 173.288ZM133.882 181.053V195.542C133.882 197.511 132.185 199.096 130.105 199.096H119.678C117.857 198.836 116.544 197.387 116.544 195.542V179.876C116.544 178.167 117.845 176.582 119.678 176.322H130.105C132.185 176.322 133.882 177.907 133.882 179.876V181.065V181.053Z" fill="white"/>
<path d="M120.185 194.092C120.185 195.541 121.362 196.594 122.662 196.594H131.269C132.705 196.594 133.746 195.405 133.746 194.092V193.832H120.062V194.092H120.198H120.185Z" fill="#323435"/>
<path d="M131.405 178.428H122.798C121.362 178.428 120.322 179.617 120.322 180.929V181.846H134.006V180.929C134.006 179.48 132.829 178.428 131.529 178.428H131.393H131.405Z" fill="#323435"/>
<path d="M133.87 188.434H120.186V192.248H133.87V188.434Z" fill="#323435"/>
<path d="M133.87 183.431H120.186V186.849H133.87V183.431Z" fill="#323435"/>
<path d="M116.544 181.846V183.431H120.185H133.882V181.846H120.185H116.544Z" fill="#6C6E70"/>
<path d="M116.545 186.849V188.434H120.186H133.882V186.849H120.186H116.545Z" fill="#6C6E70"/>
<path d="M116.544 192.248V193.833H120.185H133.882V192.248H120.185H116.544Z" fill="#6C6E70"/>
<path d="M143.789 246.105H119.541V248.47H143.789C144.185 248.47 144.445 248.73 144.445 249.126V256.891C144.445 257.287 144.185 257.548 143.789 257.548H119.541V259.913H143.789C145.485 259.913 146.786 258.6 146.786 256.879V249.114C146.786 247.405 145.485 246.08 143.789 246.08V246.105Z" fill="#AFBED5"/>
<path d="M109.758 257.561C109.362 257.561 109.102 257.301 109.102 256.905V249.14C109.102 248.744 109.362 248.483 109.758 248.483H119.405V246.118H109.758C108.062 246.118 106.761 247.431 106.761 249.152V256.917C106.761 258.626 108.062 259.951 109.758 259.951H119.405V257.586H109.758V257.561Z" fill="#697895"/>
<path d="M120.321 221.485H119.405V225.3H120.321V221.485Z" fill="#525456"/>
<path d="M120.321 216.482H119.405V219.9H120.321V216.482Z" fill="#525456"/>
<path d="M132.049 229.51H122.798C121.362 229.51 120.321 228.321 120.321 227.008V226.748H119.405V231.887H130.229C130.885 231.887 131.529 231.751 132.049 231.355V229.25V229.51Z" fill="#525456"/>
<path d="M120.185 214.897V213.981C120.185 212.532 121.362 211.479 122.662 211.479H131.913V209.634C131.393 209.374 130.737 209.102 130.093 209.102H119.269V214.501H120.185V214.897Z" fill="#525456"/>
<path d="M121.758 226.884H120.322V227.145C120.322 228.593 121.498 229.646 122.798 229.646H132.049V227.008H121.746V226.872L121.758 226.884Z" fill="#323435"/>
<path d="M132.049 214.897V211.603H122.798C121.362 211.603 120.322 212.791 120.322 214.104V215.02H132.049V214.884V214.897Z" fill="#323435"/>
<path d="M120.186 221.485V225.3H121.758H132.049V221.485H121.758H120.186Z" fill="#323435"/>
<path d="M120.186 216.482V219.9H121.758H132.049V216.482H121.758H120.186Z" fill="#323435"/>
<path d="M119.281 221.485H118.885V225.3H119.281V221.485Z" fill="#757575"/>
<path d="M119.282 216.482H118.885V219.9H119.282V216.482Z" fill="#757575"/>
<path d="M118.885 226.884V231.751C119.021 231.751 119.145 231.751 119.282 231.887V226.748H118.885V226.884Z" fill="#757575"/>
<path d="M119.405 214.896V209.497C119.269 209.497 119.145 209.497 119.009 209.633V214.896H119.405Z" fill="#757575"/>
<path d="M132.049 214.896V231.615C133.226 230.958 133.87 229.906 133.87 228.581V212.915C133.87 211.602 133.089 210.413 132.049 209.881V215.02V214.884V214.896Z" fill="#878787"/>
<path d="M118.885 225.299V209.634C117.449 210.166 116.545 211.343 116.545 212.928V228.593C116.545 230.042 117.461 231.355 118.885 231.888V225.299Z" fill="#878787"/>
<path d="M130.092 206.34H119.405C116.012 206.736 113.411 209.498 113.411 212.792V228.457C113.411 231.752 116.024 234.513 119.541 234.909H130.105C133.758 234.909 136.879 232.012 136.879 228.321V212.656C136.879 209.101 133.882 206.067 130.105 206.067V206.327L130.092 206.34ZM120.322 232.148H119.405C119.269 232.148 119.145 232.148 119.009 232.012C117.572 231.479 116.668 230.303 116.668 228.717V213.052C116.668 211.603 117.585 210.29 119.009 209.758C119.145 209.758 119.269 209.758 119.405 209.622H130.229C130.885 209.622 131.529 209.758 132.049 210.154C133.226 210.81 133.87 211.863 133.87 213.188V228.854C133.87 230.166 133.089 231.355 132.049 231.888C131.529 232.148 130.873 232.42 130.229 232.42H120.322V232.16V232.148Z" fill="white"/>
<path d="M120.186 216.482H121.758H132.049V214.896H121.758H120.186H119.405H118.885V216.482H119.405H120.186Z" fill="#6C6E70"/>
<path d="M120.185 221.486H121.758H132.049V219.9H121.758H120.185H119.405H118.885V221.486H119.405H120.185Z" fill="#6C6E70"/>
<path d="M132.049 226.885V225.3H121.758H120.186H119.405H118.885V226.885H119.405H120.186H121.758H132.049Z" fill="#6C6E70"/>
<path d="M100.892 111.009H168.805C169.312 111.009 169.721 111.417 169.721 111.925V113.77C169.721 114.278 169.312 114.687 168.805 114.687H100.892C100.384 114.687 99.9751 114.278 99.9751 113.77V111.925C99.9751 111.417 100.384 111.009 100.892 111.009Z" fill="#232524"/>
<path d="M132.706 65.4492H133.622C134.34 65.4492 134.922 66.0436 134.922 66.7619V82.1674C134.922 82.8981 134.34 83.4801 133.622 83.4801H132.706C131.987 83.4801 131.405 82.8857 131.405 82.1674V66.7619C131.405 66.0313 131.987 65.4492 132.706 65.4492Z" fill="#2170A5"/>
<path d="M133.486 65.4492H134.402C135.12 65.4492 135.702 66.0436 135.702 66.7619V82.1674C135.702 82.8981 135.12 83.4801 134.402 83.4801H133.486C132.767 83.4801 132.185 82.8857 132.185 82.1674V66.7619C132.185 66.0313 132.767 65.4492 133.486 65.4492Z" fill="#2170A5"/>
<path d="M196.582 59.3926H209.225C209.869 59.3926 210.402 59.9251 210.402 60.5814V83.6278C210.402 84.2842 209.882 84.8167 209.225 84.8167H196.582C195.938 84.8167 195.405 84.2842 195.405 83.6278V60.5814C195.405 59.9251 195.925 59.3926 196.582 59.3926Z" fill="#2170A5"/>
<path d="M193.969 59.3926H206.613C207.257 59.3926 207.789 59.9251 207.789 60.5814V83.6278C207.789 84.2842 207.269 84.8167 206.613 84.8167H193.969C193.325 84.8167 192.792 84.2842 192.792 83.6278V60.5814C192.792 59.9251 193.312 59.3926 193.969 59.3926Z" fill="#3784C5"/>
<path d="M217.56 59.3926H230.204C230.848 59.3926 231.38 59.9251 231.38 60.5814V83.6278C231.38 84.2842 230.86 84.8167 230.204 84.8167H217.56C216.916 84.8167 216.383 84.2842 216.383 83.6278V60.5814C216.383 59.9251 216.903 59.3926 217.56 59.3926Z" fill="#2170A5"/>
<path d="M214.959 59.3926H227.603C228.247 59.3926 228.78 59.9251 228.78 60.5814V83.6278C228.78 84.2842 228.259 84.8167 227.603 84.8167H214.959C214.315 84.8167 213.783 84.2842 213.783 83.6278V60.5814C213.783 59.9251 214.303 59.3926 214.959 59.3926Z" fill="#3784C5"/>
<path d="M135.962 50.6994L134.922 57.944C134.662 59.7892 136.099 61.3619 137.919 61.3619H163.603C165.3 61.3619 166.736 59.913 166.736 58.2041V35.1577C166.736 33.1886 165.176 31.6035 163.219 31.6035H151.095L150.959 31.7397C145.226 37.3992 140.136 43.7273 136.099 50.5756L135.962 50.7118V50.6994Z" fill="#2170A5"/>
<path d="M131.665 50.6994L130.625 57.944C130.365 59.7892 131.801 61.3619 133.622 61.3619H159.306C161.003 61.3619 162.439 59.913 162.439 58.2041V35.1577C162.439 33.1886 160.879 31.6035 158.922 31.6035H146.798L146.662 31.7397C140.928 37.3992 135.839 43.7273 131.801 50.5756L131.665 50.7118V50.6994Z" fill="#3285CA"/>
<path d="M146.65 31.6035H137.399C135.702 31.6035 134.266 32.9162 134.006 34.6376L131.665 50.6994C135.839 43.7149 140.792 37.3992 146.662 31.7397V31.6035H146.65Z" fill="#175189"/>
<path d="M145.609 55.1701C151.512 55.1701 156.297 50.5128 156.297 44.7677C156.297 39.0226 151.512 34.3652 145.609 34.3652C139.707 34.3652 134.922 39.0226 134.922 44.7677C134.922 50.5128 139.707 55.1701 145.609 55.1701Z" fill="#161616"/>
<path d="M149.783 49.5111C150.72 49.5111 151.479 48.8014 151.479 47.926C151.479 47.0505 150.72 46.3408 149.783 46.3408C148.846 46.3408 148.086 47.0505 148.086 47.926C148.086 48.8014 148.846 49.5111 149.783 49.5111Z" fill="white"/>
<path d="M143.789 47.2689C146.525 47.2689 148.743 45.0899 148.743 42.402C148.743 39.7141 146.525 37.5352 143.789 37.5352C141.053 37.5352 138.835 39.7141 138.835 42.402C138.835 45.0899 141.053 47.2689 143.789 47.2689Z" fill="white"/>
<path d="M136.879 65.4492H160.866C161.659 65.4492 162.303 66.0932 162.303 66.8981V82.0436C162.303 82.8486 161.659 83.4925 160.866 83.4925H136.879C136.086 83.4925 135.442 82.8486 135.442 82.0436V66.8981C135.442 66.0932 136.086 65.4492 136.879 65.4492Z" fill="#3784C5"/>
<path d="M153.164 80.8415C156.617 80.8415 159.417 78.0138 159.417 74.5257C159.417 71.0376 156.617 68.21 153.164 68.21C149.71 68.21 146.91 71.0376 146.91 74.5257C146.91 78.0138 149.71 80.8415 153.164 80.8415Z" fill="#E86969"/>
<path d="M132.309 65.4492H131.393C130.675 65.4492 130.093 66.0314 130.093 66.7495V82.1922C130.093 82.9104 130.675 83.4925 131.393 83.4925H132.309C133.027 83.4925 133.61 82.9104 133.61 82.1922V66.7495C133.61 66.0314 133.027 65.4492 132.309 65.4492Z" fill="#3784C5"/>
<path d="M178.984 67.418C178.067 67.418 177.287 67.5542 176.507 67.8143L175.987 67.9505L174.426 68.6068C174.947 68.6068 175.467 68.4706 175.987 68.4706C179.504 68.4706 182.501 71.3684 182.501 75.0588C182.501 78.7492 179.628 81.647 175.987 81.647C172.346 81.647 174.947 81.647 174.426 81.387L176.507 82.1795C177.287 82.4396 178.067 82.5758 178.984 82.5758C183.157 82.5758 186.414 79.1579 186.414 75.0712C186.414 70.9845 183.021 67.5666 178.984 67.5666V67.4304V67.418Z" fill="#C9C9C9"/>
<path d="M176.111 81.5114C179.628 81.5114 182.625 78.6136 182.625 74.9232C182.625 71.2328 179.752 68.335 176.111 68.335C172.47 68.335 175.071 68.335 174.55 68.595C171.814 69.2514 169.733 71.8891 169.733 74.9108C169.733 77.9325 171.814 80.4464 174.55 81.2266C175.071 81.3628 175.591 81.4866 176.111 81.4866V81.5114Z" fill="#D8D8D8"/>
<path d="M175.195 80.3231C178.149 80.3231 180.544 77.9058 180.544 74.9238C180.544 71.9418 178.149 69.5244 175.195 69.5244C172.24 69.5244 169.845 71.9418 169.845 74.9238C169.845 77.9058 172.24 80.3231 175.195 80.3231Z" fill="#C9C9C9"/>
<path d="M175.454 69.5244H173.114V80.3231H175.454V69.5244Z" fill="#C9C9C9"/>
<path d="M173.238 80.3231C176.192 80.3231 178.588 77.9058 178.588 74.9238C178.588 71.9418 176.192 69.5244 173.238 69.5244C170.283 69.5244 167.888 71.9418 167.888 74.9238C167.888 77.9058 170.283 80.3231 173.238 80.3231Z" fill="#D8D8D8"/>
<path d="M173.238 79.1339C175.543 79.1339 177.411 77.2488 177.411 74.9234C177.411 72.598 175.543 70.7129 173.238 70.7129C170.933 70.7129 169.064 72.598 169.064 74.9234C169.064 77.2488 170.933 79.1339 173.238 79.1339Z" fill="#C9C9C9"/>
<path d="M80.1729 82.9602C80.1729 84.0129 79.2565 84.9293 78.2163 84.9293H65.0522V84.6692C66.0925 75.8519 68.4454 67.2823 71.9624 59.5176H78.0925C79.1327 59.5176 80.0491 60.434 80.0491 61.4866V83.0841L80.1853 82.9479L80.1729 82.9602Z" fill="#114F84"/>
<path d="M239.071 226.885H220.433L209.609 202.39H228.259L239.071 226.885Z" fill="#697895"/>
<path d="M256.668 226.885H275.318L286.129 202.39H267.491L256.668 226.885Z" fill="#F9F1E4"/>
<path d="M239.071 226.885H275.318L286.129 202.39V177.895H228.26V202.39L239.071 226.885Z" fill="#F9F1E4"/>
<path d="M174.03 78.2161C175.829 78.2161 177.287 76.7413 177.287 74.922C177.287 73.1028 175.829 71.6279 174.03 71.6279C172.232 71.6279 170.773 73.1028 170.773 74.922C170.773 76.7413 172.232 78.2161 174.03 78.2161Z" fill="#161616"/>
<path d="M263.194 148.533H246.897V305.363H263.194V148.533Z" fill="#1C608E"/>
<path d="M260.717 155.382C270.436 155.382 278.315 147.425 278.315 137.611C278.315 127.796 270.436 119.84 260.717 119.84C250.999 119.84 243.12 127.796 243.12 137.611C243.12 147.425 250.999 155.382 260.717 155.382Z" fill="#D8D8D8"/>
<path d="M256.668 151.431C264.226 151.431 270.352 145.243 270.352 137.61C270.352 129.978 264.226 123.79 256.668 123.79C249.11 123.79 242.984 129.978 242.984 137.61C242.984 145.243 249.11 151.431 256.668 151.431Z" fill="#B1BBCE"/>
<path d="M239.07 226.886H220.433V305.362H239.07V226.886Z" fill="#B1BBCE"/>
<path d="M55.3931 226.886H36.7554V305.362H55.3931V226.886Z" fill="#B1BBCE"/>
<path d="M285.993 305.362H229.684V341.709H285.993V305.362Z" fill="#F9F1E4"/>
<path d="M229.684 305.362H211.046V341.709H229.684V305.362Z" fill="#B1BBCE"/>
<path d="M255.888 313.398H259.801C274.266 313.398 286.005 325.25 286.005 339.863V341.572H229.696V339.863C229.696 325.25 241.424 313.398 255.9 313.398H255.888Z" fill="#B1BBCE"/>
<path d="M268.928 148.533H252.631V305.363H268.928V148.533Z" fill="#3285CA"/>
<path d="M274.922 148.533H258.625V173.425H274.922V148.533Z" fill="#3285CA"/>
<path d="M269.052 181.721H252.631L258.625 173.287H274.922L269.052 181.721Z" fill="#1C608E"/>
<path d="M246.897 148.533H258.625V173.289L252.631 181.722H246.897V148.533Z" fill="#1C608E"/>
<path d="M120.842 81.1148C120.842 81.1148 120.978 87.703 127.492 87.703H116.668L118.365 78.6133L120.842 81.1148Z" fill="#B0BDD0"/>
<path d="M119.665 104.161C119.665 104.161 119.802 97.5732 126.315 97.5732H115.492L117.189 106.663L119.665 104.161Z" fill="#B0BDD0"/>
<path d="M89.3 106.923H170.897C172.123 106.923 173.114 107.926 173.114 109.164V116.273C173.114 117.511 172.123 118.514 170.897 118.514H89.3C88.074 118.514 87.0833 117.511 87.0833 116.273V109.164C87.0833 107.926 88.074 106.923 89.3 106.923Z" fill="#353E4B" stroke="#184F80" stroke-width="2.73533" stroke-linecap="round" stroke-linejoin="round"/>
<path d="M222.649 202.389C222.649 202.389 228.259 200.68 228.259 195.021V202.389H222.649Z" fill="#697895"/>
<path d="M215.219 202.389C215.219 202.389 209.609 200.68 209.609 195.021V202.389H215.219Z" fill="#697895"/>
<path d="M39.2322 202.687C39.2322 202.687 44.8421 200.978 44.8421 195.318V202.687H39.2322Z" fill="#697895"/>
<path d="M239.269 341.572V376.47H185.3L211.108 341.572H239.269Z" fill="#697895"/>
<path d="M286.129 341.572H257.981H229.684L203.876 376.47H257.981H312.074L286.129 341.572Z" fill="#F9F1E4"/>
<path d="M54.0927 341.572H25.9442L0 376.47H18.7739L44.7182 341.572H54.0927Z" fill="#697895"/>
<path d="M101.151 341.572H72.8667H54.0927H44.7181L18.7739 376.47H54.0927H72.8667H126.972L101.151 341.572Z" fill="#F9F1E4"/>
<path d="M134.538 281.398H126.712V283.504H134.538V281.398Z" fill="white"/>
<path d="M123.306 271.789H121.226V292.061H123.306V271.789Z" fill="white"/>
<path d="M122.278 287.455C125.158 287.455 127.492 285.099 127.492 282.192C127.492 279.285 125.158 276.929 122.278 276.929C119.399 276.929 117.065 279.285 117.065 282.192C117.065 285.099 119.399 287.455 122.278 287.455Z" fill="#2D7CBC"/>
<path d="M122.278 285.882C124.296 285.882 125.931 284.23 125.931 282.191C125.931 280.153 124.296 278.501 122.278 278.501C120.261 278.501 118.625 280.153 118.625 282.191C118.625 284.23 120.261 285.882 122.278 285.882Z" fill="#FFF0DA"/>
<path d="M284.049 336.829H231.776C229.696 336.829 228.123 335.12 228.123 333.139C228.123 331.157 229.82 329.448 231.776 329.448H284.049C286.129 329.448 287.702 331.157 287.702 333.139C287.702 335.12 286.005 336.829 284.049 336.829Z" fill="#F9F1E4"/>
<path d="M271.405 325.907H245.597V340.52H271.405V325.907Z" fill="#3285CA"/>
<path d="M245.597 325.907V340.52L250.29 335.517C251.467 334.204 251.467 332.223 250.29 330.91L245.597 325.907Z" fill="#1C608E"/>
<path d="M271.405 325.907V340.52L276.098 335.517C277.275 334.204 277.275 332.223 276.098 330.91L271.405 325.907Z" fill="#3285CA"/>
<path d="M245.597 336.841C247.615 336.841 249.25 335.188 249.25 333.15C249.25 331.112 247.615 329.46 245.597 329.46C243.579 329.46 241.944 331.112 241.944 333.15C241.944 335.188 243.579 336.841 245.597 336.841Z" fill="#F9F1E4"/>
<path d="M259.925 333.547C263.666 333.547 266.699 330.481 266.699 326.699C266.699 322.917 263.666 319.851 259.925 319.851C256.184 319.851 253.151 322.917 253.151 326.699C253.151 330.481 256.184 333.547 259.925 333.547Z" fill="#3285CA"/>
<path d="M229.684 341.572L222.253 376.47H199.839L223.046 341.572H229.684Z" fill="#697895"/>
<path d="M127.492 87.7031H115.888V97.5731H127.492V87.7031Z" fill="#175189"/>
<path d="M119.405 297.462C119.405 297.462 119.145 305.363 127.492 305.363H111.331L119.417 297.462H119.405Z" fill="#B1BDD2"/>
<path d="M208.049 26.3407C203.615 28.0497 197.485 31.6039 191.108 38.3283C187.715 41.8825 190.711 47.6781 195.541 47.0218C204.148 45.8329 216.618 42.8732 228.656 46.7617C239.194 50.1673 232.346 44.8175 231.653 41.3624C228.656 37.5481 224.618 32.8051 219.789 28.5946C214.971 24.3841 211.962 24.7804 207.925 26.3531H208.061L208.049 26.3407Z" fill="#FFFEFD"/>
<path d="M251.194 144.458C254.936 144.458 257.968 141.392 257.968 137.61C257.968 133.828 254.936 130.762 251.194 130.762C247.453 130.762 244.42 133.828 244.42 137.61C244.42 141.392 247.453 144.458 251.194 144.458Z" fill="#707D91"/>
<path d="M190.451 268.359H210.006C212.098 268.359 213.783 270.068 213.783 272.174V290.873C213.783 292.979 212.086 294.687 210.006 294.687H190.451C188.359 294.687 186.674 292.979 186.674 290.873V272.174C186.674 270.068 188.371 268.359 190.451 268.359Z" fill="#697895"/>
<path d="M127.492 97.4368C130.152 97.4368 132.309 95.2579 132.309 92.57C132.309 89.8821 130.152 87.7031 127.492 87.7031C124.831 87.7031 122.675 89.8821 122.675 92.57C122.675 95.2579 124.831 97.4368 127.492 97.4368Z" fill="#175189"/>
<path d="M65.1021 333.672H44.7183V352.446H65.1021V333.672Z" fill="#F9F1E4"/>
<path d="M44.7179 341.708L54.2287 376.47H0.259766L26.0677 341.572L44.7179 341.708Z" fill="#697895"/>
</g>
<defs>
<clipPath id="clip0_908_852">
<rect width="312.073" height="376.47" fill="white"/>
</clipPath>
</defs>
</svg>
