<svg width="357" height="214" viewBox="0 0 357 214" fill="none" xmlns="http://www.w3.org/2000/svg">
<g clip-path="url(#clip0_908_693)">
<path d="M282.833 34.1971C283.546 34.1971 284.258 33.93 284.882 33.93C289.691 33.93 293.609 35.8001 296.548 39.5403C298.24 41.6776 299.397 44.4383 300.288 47.3771C304.651 50.2268 308.125 54.3232 310.262 59.2211C310.529 49.3362 308.125 40.5199 303.227 34.2862C298.596 28.4977 292.184 25.3809 284.793 25.3809C275.442 25.3809 265.913 30.2788 257.898 38.3827C263.064 34.9096 269.03 32.8613 275.175 32.8613C277.846 32.8613 280.34 33.3957 282.744 34.1081L282.833 34.1971Z" fill="#181B1E"/>
<path d="M286.221 43.1021H286.577C290.228 43.1912 293.701 43.9926 296.818 45.5065C293.612 40.1633 288.714 36.1559 282.748 34.2858C280.343 33.5734 277.85 33.0391 275.178 33.0391C269.033 33.0391 263.067 35.0873 257.902 38.5604C256.032 39.8071 254.251 41.321 252.559 42.924C252.559 42.924 252.559 43.013 252.559 43.1021H286.043H286.221Z" fill="#2F3942"/>
<path d="M224.503 14.1592C215.954 14.1592 207.761 18.1666 201.527 24.5784C200.904 25.9142 200.192 27.25 199.657 28.6749H235.1C233.765 23.0645 231.716 18.3447 229.134 14.6935C227.62 14.4263 226.195 14.1592 224.592 14.1592H224.503Z" fill="#2F3942"/>
<path d="M244.539 33.1288C245.341 34.7318 245.519 36.5128 245.074 38.3829C245.074 38.6501 245.074 38.8282 245.074 39.0954H246.142C247.745 39.0954 249.17 39.6297 250.417 40.4312C249.972 32.2383 246.499 25.2921 241.244 20.5723C242.58 24.3125 243.649 28.498 244.361 32.9507C244.361 32.9507 244.45 33.0397 244.539 33.1288Z" fill="#2F3942"/>
<path d="M227.268 45.5071L228.069 43.637C228.96 41.4106 230.919 39.8967 233.145 39.3624L233.858 38.3828H197.168C197.168 38.3828 196.723 38.3828 196.544 38.3828C195.921 40.6982 195.387 43.0136 195.031 45.5071H227.268Z" fill="#2F3942"/>
<path d="M217.826 66.9694L221.21 65.2773H217.826C217.826 65.2773 217.559 65.8117 217.381 66.0788C217.47 66.346 217.648 66.5241 217.737 66.7913V66.9694H217.826Z" fill="#2F3942"/>
<path d="M199.661 28.5861C200.284 27.1613 200.908 25.8255 201.531 24.4897C206.518 14.3376 213.108 8.10386 218.985 8.10386C221.835 8.10386 224.596 9.43966 227.089 12.1113C227.802 12.8237 228.425 13.7142 229.048 14.6048C231.631 18.1669 233.679 22.9758 235.015 28.5861H235.817C239.735 28.5861 242.852 30.1891 244.366 32.8607C243.653 28.408 242.674 24.3116 241.249 20.4823C239.201 14.8719 236.529 10.063 233.145 6.58995C229.048 2.31539 224.151 0 218.985 0C207.052 0 196.188 12.2003 190.221 30.1C192.537 29.2095 194.941 28.5861 197.167 28.5861H199.661Z" fill="#181B1E"/>
<path d="M244.988 38.292C244.988 38.292 244.899 38.7373 244.81 39.0044H245.077C245.077 39.0044 245.077 38.5592 245.077 38.292H244.988Z" fill="#181B1E"/>
<path d="M195.023 45.5071C195.468 43.0136 196.003 40.6982 196.537 38.3828C193.866 38.65 190.481 40.2529 189.146 42.034L187.543 44.1713C187.543 44.1713 187.81 45.0618 187.899 45.5071H195.023Z" fill="#181B1E"/>
<path d="M82.9989 107.931L79.2586 109.623C79.2586 110.246 79.2586 110.87 78.9915 111.493H80.6835C81.3068 110.246 82.0193 108.999 82.9989 107.842V107.931Z" fill="#434C54"/>
<path d="M171.426 61.5353C170.803 61.7134 170.268 61.9806 169.734 62.1587C169.734 62.4259 169.734 62.693 169.645 62.8711L171.604 61.8916C171.604 61.8916 171.515 61.6244 171.426 61.4463V61.5353Z" fill="#434C54"/>
<path d="M56.1941 111.853C56.7284 111.675 57.1736 111.497 57.708 111.497C57.8861 110.429 58.3313 109.538 58.9547 108.647L48.8917 113.634C46.131 115.059 43.6375 116.84 41.5002 118.889H51.3852C50.9399 116.929 51.3852 114.08 56.2831 111.764L56.1941 111.853Z" fill="#434C54"/>
<path d="M131.617 77.3003H140.968L141.591 76.9441C137.762 76.677 135.446 75.2521 134.823 72.6696C134.734 72.1352 134.645 71.6009 134.734 70.9775L122.623 77.0332C123.335 77.3003 123.958 77.6565 124.582 78.1018C127.075 77.6565 129.569 77.3003 131.706 77.3003H131.617Z" fill="#434C54"/>
<path d="M81.5717 98.7596C81.5717 98.7596 82.2841 98.4924 82.6403 98.4033L84.5104 98.0471C87.2711 97.5128 90.7442 96.8894 94.0392 96.5332C94.0392 96.3551 93.861 96.088 93.772 95.9099C93.3267 93.9507 93.772 91.19 98.4028 89.0527L72.043 102.144C72.6663 102.144 73.2897 102.144 73.824 102.411L81.5717 98.7596Z" fill="#434C54"/>
<path d="M105.618 86.0247C105.618 86.0247 105.618 85.5795 105.618 85.4014L98.6719 88.7854L103.748 86.381C104.282 86.1138 104.906 86.0247 105.44 85.9357L105.618 86.0247Z" fill="#434C54"/>
<path d="M200.196 75.6945L207.32 72.1324C206.341 72.5777 205.272 72.8448 204.293 72.8448C202.957 72.8448 201.71 72.4886 200.552 71.8652L199.84 72.2214C200.107 73.3791 200.196 74.5368 200.196 75.6945Z" fill="#434C54"/>
<path d="M217.733 66.7896C217.733 66.7896 217.465 66.3443 217.376 66.0771C216.753 66.9677 215.952 67.7692 214.972 68.3925L217.733 66.9677V66.7896Z" fill="#434C54"/>
<path d="M222.188 62.4259L218.359 64.207C218.359 64.207 218.003 64.9194 217.824 65.2756H221.209L234.21 58.8637H232.964C231.539 58.8637 230.203 58.4185 229.045 57.7061C228.244 58.1513 227.442 58.5966 226.552 58.9528C225.839 60.1105 224.593 61.3572 222.277 62.4259H222.188Z" fill="#3A4249"/>
<path d="M173.563 60.9111C172.851 61.0892 172.138 61.2673 171.515 61.4455C171.515 61.6236 171.604 61.7126 171.693 61.8907L173.563 60.9111Z" fill="#3A4249"/>
<path d="M199.209 60.1982H190.126C192.263 61.1778 194.133 62.5136 195.736 64.2947L197.072 63.6713C197.428 62.3355 198.141 61.1778 199.209 60.1982Z" fill="#3A4249"/>
<path d="M220.227 50.6727C222.097 50.6727 223.878 49.7822 224.768 48.9807C225.214 48.5354 225.748 48.2683 226.282 48.0011L227.262 45.5967H187.9C188.168 47.1106 187.989 48.7135 187.188 50.0493L186.743 50.7618H220.316L220.227 50.6727Z" fill="#3A4249"/>
<path d="M131.62 86.2033C130.195 86.2033 128.414 86.4705 126.633 86.7376C125.921 88.2515 124.852 89.5873 123.16 90.3888L121.379 91.2794H135.627C138.655 91.2794 143.464 90.2998 146.136 89.053C146.314 87.9844 146.759 87.0048 147.382 86.1143H131.531L131.62 86.2033Z" fill="#2F3942"/>
<path d="M109.443 111.85C109.443 111.85 109.621 111.85 109.71 111.85C110.423 110.425 111.491 109.178 113.005 108.466L119.506 105.26H97.6879C94.571 105.26 89.5841 106.239 86.2 106.863L84.8642 107.13L82.9941 108.02C82.0145 109.089 81.3021 110.336 80.6787 111.672H83.4394C85.8438 111.672 87.892 112.829 89.3169 114.61H97.1536C100.627 114.61 106.415 113.364 109.443 111.939V111.85Z" fill="#2F3942"/>
<path d="M143.554 100.718C143.733 101.697 143.733 102.855 143.109 104.013L200.103 75.6938C200.103 74.5361 200.014 73.3784 199.747 72.2207L196.719 73.6456C192.534 75.6047 185.41 77.1186 180.601 77.1186H173.565C173.565 77.1186 174.278 77.9201 174.634 78.3654C176.059 79.0778 177.039 80.2355 177.395 81.7494C177.751 83.3524 177.395 85.4897 174.723 87.4488C174.1 88.2503 173.298 88.9627 172.23 89.408L156.734 97.0666C155.666 97.6009 154.508 97.8681 153.35 97.8681C152.193 97.8681 151.124 97.6009 150.144 97.0666C148.096 97.9571 145.514 98.7586 142.842 99.382C143.109 99.8273 143.376 100.183 143.465 100.718H143.554Z" fill="#2F3942"/>
<path d="M101.258 126.189C103.039 124.586 105.087 123.072 107.314 121.914C104.019 122.716 100.635 123.339 97.7849 123.339C98.2302 123.695 98.6755 124.051 99.1207 124.497L101.258 126.189Z" fill="#2F3942"/>
<path d="M163.416 77.2974L163.861 77.1193H142.666C142.666 77.1193 141.954 77.1193 141.509 77.0303L140.885 77.3865H163.416V77.2974Z" fill="#2F3942"/>
<path d="M190.126 60.1998H182.2C181.31 60.1998 180.419 60.1107 179.618 59.9326C177.747 60.1107 175.61 60.4669 173.562 60.9122L171.692 61.8918L169.733 62.8714C169.376 65.0977 168.13 67.0569 165.992 68.2146H180.775C184.248 68.2146 190.037 66.9678 193.065 65.543L195.825 64.2072C194.222 62.4261 192.352 61.0903 190.215 60.1107L190.126 60.1998Z" fill="#2F3942"/>
<path d="M250.416 55.303L253.622 53.611L254.958 52.8986C254.958 52.8986 255.047 52.8986 255.136 52.8986C255.759 52.7205 256.472 52.5424 257.095 52.3643C258.342 52.0971 259.678 51.919 260.924 51.7409C262.706 51.5628 264.398 51.4737 266.179 51.4737C266.535 51.4737 266.891 51.4737 267.158 51.5628C272.056 46.3086 278.735 43.0137 286.305 43.0137H252.821C253.088 43.548 253.355 43.9933 253.533 44.6166C254.334 47.9116 252.821 51.2956 249.793 52.8986L244.984 55.4811C246.854 55.214 248.635 55.1249 250.505 55.303H250.416Z" fill="#434C54"/>
<path d="M331.1 108.198L324.866 111.493L316.762 115.678C315.961 116.124 314.981 116.124 314.091 115.678L301.445 110.068L295.389 107.396L303.849 122.714L311.864 119.775C311.864 119.775 312.399 119.419 312.666 119.241L327.627 112.651C329.586 111.76 331.901 111.76 333.861 112.651C334.484 112.918 334.84 113.363 335.374 113.808L332.258 106.951C331.901 107.485 331.545 107.842 331.011 108.198H331.1Z" fill="#434C54"/>
<path d="M291.828 105.797L288.8 104.461C288.266 104.194 287.732 104.194 287.197 104.283L288.266 107.4L291.739 105.886L291.828 105.797Z" fill="#434C54"/>
<path d="M313.026 71.5083C313.026 75.7828 312.046 79.7902 310.443 83.4414C314.718 83.7086 319.705 83.9757 321.753 84.0648L311.423 61.4452C311.423 61.4452 311.067 60.8218 310.889 60.5547C312.224 63.9387 312.937 67.5899 312.937 71.5083H313.026Z" fill="#434C54"/>
<path d="M228.335 139.457L223.705 129.127L213.107 134.381C214.265 136.875 213.909 139.813 211.861 140.793L202.866 145.157H238.933L237.241 140.437L233.59 142.218C231.719 143.108 229.404 141.862 228.335 139.457Z" fill="#434C54"/>
<path d="M191.465 145.158H194.76C194.76 145.158 194.136 144.356 193.958 143.911L191.465 145.158Z" fill="#434C54"/>
<path d="M217.824 66.9681L215.063 68.393C215.063 68.393 214.796 68.6602 214.618 68.7492L207.672 72.1332C207.672 72.1332 207.493 72.1332 207.315 72.1332L200.191 75.6954L143.197 104.014C142.574 105.261 141.238 106.597 138.744 107.844L130.818 111.584C130.818 114.345 129.394 116.927 126.722 118.263L119.776 121.647C118.707 122.181 117.55 122.448 116.392 122.448C114.611 122.448 112.919 121.736 111.583 120.667C110.247 121.202 108.911 121.558 107.397 122.003C105.171 123.161 103.123 124.675 101.342 126.278L124.585 145.513C127.791 147.74 130.017 151.48 130.017 155.665C130.017 155.665 130.017 155.754 130.017 155.843V163.324H148.184C151.835 163.324 154.774 165.906 155.397 169.38H165.549C166.351 167.598 167.776 166.174 169.557 165.372C169.824 165.194 170.18 165.105 170.447 165.016L179.264 162.344C179.264 162.344 180.154 162.166 180.51 162.166C180.866 162.166 181.223 162.077 181.401 162.077C185.23 162.077 188.436 164.927 189.059 168.667C189.059 168.934 189.059 169.201 189.059 169.469H196.718V167.42C196.718 162.611 198.855 158.515 202.328 156.289C202.774 155.932 203.219 155.665 203.664 155.487L214.172 150.678C214.974 150.322 215.775 150.144 216.577 150.055C217.111 149.966 217.646 149.877 218.091 149.877C223.701 149.877 228.065 154.508 228.599 160.83C228.599 161.187 228.599 161.543 228.599 161.899V169.558H234.388V160.296C234.388 154.062 237.683 148.541 242.58 145.78C243.115 145.424 243.738 145.068 244.451 144.801L259.501 138.923C260.213 138.656 260.925 138.478 261.638 138.389C262.35 138.211 263.241 138.122 264.31 138.122C271.701 138.122 277.757 144.088 278.558 151.925C278.558 152.37 278.647 152.905 278.647 153.439V169.558H286.128V142.218C286.128 137.766 287.731 133.758 290.402 130.641L282.476 112.831C281.942 111.584 282.476 110.159 283.723 109.625L288.265 107.576L287.196 104.46C287.196 104.46 286.484 104.549 286.128 104.727L281.141 107.309C279.449 108.2 278.736 110.604 279.538 112.653L281.052 116.393C281.942 118.441 281.23 120.845 279.449 121.736L266.981 128.237C265.289 129.127 263.152 128.237 262.35 126.189L245.341 85.3131L240.71 74.1815L237.594 66.701C236.703 64.6527 237.415 62.2483 239.196 61.3578L245.43 58.0628L250.328 55.4802C248.458 55.3912 246.677 55.4802 244.807 55.6584L240.176 58.1519C239.107 58.7752 237.861 59.0424 236.614 59.0424H234.12L221.119 65.4542L217.735 67.1462L217.824 66.9681ZM247.033 135.717L237.415 140.437L239.107 145.157H203.041L199.568 146.849C198.054 147.561 196.095 146.849 194.848 145.157H191.553L194.046 143.91L191.998 139.28C190.84 136.697 188.347 135.45 186.477 136.341L182.559 138.211C180.688 139.101 180.065 141.951 181.134 144.445L183.182 149.253C184.251 151.747 183.627 154.597 181.757 155.487L169.379 161.454C167.152 162.522 164.214 160.563 163.412 157.357L151.301 106.953C150.766 104.727 151.479 102.59 153.082 101.788L160.829 98.0478L171.249 92.9717L178.907 89.2315C180.51 88.43 182.558 89.2315 183.894 91.1907L212.837 133.402C212.837 133.402 213.104 134.025 213.282 134.293L223.879 129.038L203.13 82.5525C202.061 80.148 202.685 77.4764 204.555 76.5859L217.913 70.085C219.783 69.1945 222.098 70.4412 223.167 72.8457L248.458 129.751C249.527 132.155 248.903 134.827 247.033 135.717Z" fill="#434C54"/>
<path d="M169.647 202.866H170.003C170.003 202.866 169.647 202.688 169.558 202.51C169.558 202.599 169.558 202.688 169.558 202.866H169.647Z" fill="#7999B5"/>
<path d="M148.094 163.235H129.927V169.291H155.308C154.595 165.907 151.746 163.235 148.094 163.235Z" fill="#343E49"/>
<path d="M126.725 169.826H111.408V167.867H104.551L112.388 176.149L113.367 177.218L121.293 185.589L121.738 186.123C121.738 186.123 124.41 188.884 127.972 191.021L126.814 170.004L126.725 169.826Z" fill="#343E49"/>
<path d="M287.908 185.674C286.839 183.359 286.216 180.776 286.216 178.015V169.288H278.735V182.557C280.16 183.002 281.229 184.249 281.407 185.852C281.763 185.852 282.03 185.674 282.387 185.674H287.819H287.908Z" fill="#343E49"/>
<path d="M196.81 169.201H189.152C189.152 169.201 189.152 169.379 189.152 169.468V182.292H196.81V169.201Z" fill="#343E49"/>
<path d="M234.571 169.201H228.782V182.292H234.571V169.201Z" fill="#343E49"/>
<path d="M166.532 192.889C165.463 191.554 164.662 189.862 164.662 187.902V172.585C164.662 171.338 165.018 170.27 165.552 169.201H130.02V169.735H126.814L127.972 190.752C130.109 191.999 132.514 192.978 134.829 192.978H159.675C162.168 192.978 164.306 193.958 166.087 195.472C166.087 194.581 166.265 193.602 166.621 192.8L166.532 192.889Z" fill="#343E49"/>
<path d="M259.32 166.799H253.976V187.994H258.34C258.34 187.994 258.607 187.994 258.696 187.994V186.124C258.696 185.411 258.963 184.699 259.32 184.164V166.71V166.799Z" fill="#343E49"/>
<path d="M278.825 169.203V153.085C278.825 152.55 278.825 152.105 278.736 151.571C277.934 143.734 271.879 137.768 264.487 137.768C263.508 137.768 262.617 137.946 261.816 138.035C261.103 138.124 260.391 138.302 259.678 138.569L244.628 144.447C244.005 144.714 243.381 145.07 242.758 145.426C237.771 148.098 234.565 153.619 234.565 159.942V182.294H240.443C242.58 182.294 244.272 184.075 244.272 186.213V188.35C244.806 188.261 245.341 187.994 245.875 187.994H253.89V166.799H252.198V155.4H278.29V166.799H259.322V184.253C260.034 183.096 261.192 182.294 262.617 182.294H277.756C277.756 182.294 278.469 182.383 278.825 182.472V169.203Z" fill="#343E49"/>
<path d="M214.085 166.44L211.502 167.687V187.991H214.085V166.44Z" fill="#343E49"/>
<path d="M228.782 169.202V161.544C228.782 161.544 228.782 160.831 228.782 160.475C228.247 154.152 223.884 149.521 218.273 149.521C217.917 149.521 217.294 149.521 216.759 149.7C215.958 149.7 215.067 149.967 214.355 150.323L203.847 155.132C203.312 155.399 202.867 155.666 202.511 155.933C199.038 158.16 196.9 162.256 196.9 167.065V182.204H203.223C205.36 182.204 207.052 183.985 207.052 186.122V188.082C207.052 188.082 207.765 187.903 208.121 187.903H211.594V167.51L214.177 166.353V187.903H220.5C220.856 187.903 221.212 188.082 221.568 188.082V186.122C221.568 183.985 223.26 182.204 225.397 182.204H228.871V169.113L228.782 169.202Z" fill="#343E49"/>
<path d="M179.09 172.585L174.637 173.921V186.121H179.09V172.585Z" fill="#343E49"/>
<path d="M189.149 169.468C189.149 169.468 189.149 169.29 189.149 169.201C189.149 168.934 189.149 168.667 189.149 168.4C188.615 164.659 185.409 161.81 181.491 161.81C181.313 161.81 180.957 161.81 180.6 161.899C180.155 161.899 179.71 161.899 179.354 162.077L170.537 164.748C170.537 164.748 169.914 165.016 169.647 165.105C167.777 165.906 166.441 167.331 165.639 169.112C165.105 170.181 164.749 171.249 164.749 172.496V187.813C164.749 189.683 165.55 191.375 166.619 192.8C167.866 189.95 170.715 187.991 174.099 187.991H181.491C182.47 187.991 183.361 188.258 184.251 188.526V186.21C184.251 184.073 185.943 182.292 188.081 182.292H189.238V169.468H189.149ZM174.634 186.121V173.921L179.086 172.585V186.121H174.634Z" fill="#343E49"/>
<path d="M300.377 47.3751C299.308 46.6627 298.151 45.9503 296.904 45.416C293.787 43.9911 290.314 43.1896 286.663 43.1006C286.485 43.1006 286.396 43.1006 286.307 43.1006C278.826 43.1006 272.058 46.3956 267.16 51.6497C268.852 51.6497 270.633 51.8278 272.325 52.095C274.552 52.4512 276.778 53.0746 278.915 53.9651C281.231 54.9447 283.457 56.1024 285.505 57.7053C287.732 59.3974 289.78 61.4456 291.561 63.761C295.39 68.748 297.973 74.6255 300.555 80.503C301.179 81.9279 302.158 82.9965 303.672 83.0856C303.672 83.0856 306.789 83.2637 310.529 83.4418C312.132 79.7906 313.112 75.7832 313.112 71.5086C313.112 67.5903 312.399 63.9391 311.063 60.5551C310.885 60.1098 310.618 59.7536 310.44 59.3083C308.214 54.4104 304.741 50.3139 300.466 47.4642L300.377 47.3751Z" fill="#434C54"/>
<path d="M129.925 163.237V155.757C129.836 162.169 124.938 167.334 118.704 167.69H118.17H117.992H117.814H111.491V169.649H130.014V163.059L129.925 163.237Z" fill="#343E49"/>
<path d="M278.382 166.799V155.4H252.289V166.799H253.981H259.324H278.382Z" fill="#343E49"/>
<path d="M291.831 111.23L288.18 112.833L294.414 126.904C294.414 126.904 295.126 126.28 295.571 126.102C296.195 125.746 296.818 125.39 297.531 125.123L299.133 124.499L291.831 111.23Z" fill="#434C54"/>
<path d="M283.902 109.356C282.655 109.89 282.121 111.315 282.655 112.562L290.581 130.373C291.739 129.037 292.985 127.879 294.499 126.9L288.266 112.829L291.917 111.226L299.219 124.495L303.939 122.714L295.479 107.397L291.917 105.794L288.444 107.308L283.902 109.356Z" fill="#434C54"/>
<path d="M147.388 86.2051C148.1 85.2256 148.902 84.4241 150.059 83.8898L163.417 77.2998H131.625C129.577 77.2998 126.994 77.656 124.501 78.1013C125.302 78.7247 126.015 79.5261 126.549 80.5057C127.618 82.554 127.529 84.7803 126.549 86.7395C128.33 86.3832 130.111 86.2051 131.536 86.2051H147.388Z" fill="#222930"/>
<path d="M174.813 87.4487C177.485 85.4895 177.841 83.3522 177.485 81.7493C177.128 80.2354 176.149 79.0777 174.724 78.3652C175.08 78.8105 175.436 79.0777 175.703 79.5229C177.039 82.1945 176.594 85.3114 174.813 87.4487Z" fill="#222930"/>
<path d="M84.8683 107.044L86.2041 106.776C89.4991 106.153 94.5751 105.174 97.692 105.174H119.51L119.955 104.995C123.696 103.125 128.237 104.639 130.018 108.29C130.553 109.359 130.731 110.428 130.731 111.496L138.657 107.756C141.15 106.598 142.486 105.263 143.109 103.927C143.733 102.769 143.733 101.611 143.555 100.632C143.465 100.097 143.198 99.7413 142.931 99.296C140.349 99.8303 137.766 100.187 135.629 100.187H101.343C96.4453 100.187 94.6642 98.3164 94.0408 96.4463C90.8349 96.8025 87.2727 97.4259 84.5121 97.9602L82.642 98.3164C82.642 98.3164 81.9295 98.4945 81.5733 98.6726L73.8257 102.324C75.8739 102.858 77.655 104.105 78.6346 106.064C79.1689 107.222 79.347 108.379 79.347 109.537L83.0872 107.845L84.9574 106.955L84.8683 107.044Z" fill="#222930"/>
<path d="M169.114 58.4205C169.738 59.5782 169.827 60.914 169.738 62.1608C170.272 61.9827 170.806 61.7155 171.43 61.5374C172.053 61.3593 172.765 61.1812 173.478 61.0031C175.526 60.4688 177.663 60.1126 179.534 60.0235C177.485 59.6673 175.704 58.8658 174.368 57.6191C172.676 57.3519 171.073 56.6395 170.005 55.3037C169.471 54.5912 169.114 53.7898 168.847 52.9883C167.422 53.4335 165.997 53.8788 164.929 54.4131L164.305 54.6803C166.265 55.2146 167.957 56.4614 168.936 58.4205H169.114Z" fill="#222930"/>
<path d="M226.461 58.9541C224.502 59.7556 222.364 60.2009 220.227 60.2009H218.268C218.624 61.5367 218.713 62.9615 218.268 64.2973L222.097 62.5162C224.413 61.4476 225.748 60.2009 226.372 59.0432L226.461 58.9541Z" fill="#222930"/>
<path d="M187.278 43.1907C187.278 43.1907 187.367 43.8141 187.545 44.0812L189.148 41.9439C190.483 40.1629 193.957 38.4709 196.539 38.2928C196.717 38.2928 196.984 38.2037 197.162 38.2037H233.852L233.14 39.2723C233.763 39.0942 234.387 39.0052 235.01 39.0052H244.806C244.806 39.0052 244.984 38.5599 244.984 38.2928C245.429 36.5117 245.34 34.6416 244.45 33.0386C244.45 33.0386 244.361 32.9496 244.272 32.8605C242.758 30.1889 239.641 28.5859 235.723 28.5859H197.073C194.847 28.5859 192.443 29.2093 190.127 30.0998C186.476 31.4356 183.092 33.662 181.133 36.3336L178.55 39.8067H181.4C183.894 39.8067 186.12 41.1425 187.278 43.1907Z" fill="#222930"/>
<path d="M245.076 39.0939H235.013C234.39 39.0939 233.767 39.183 233.143 39.3611C230.917 39.8954 228.958 41.4984 228.067 43.6357L227.266 45.5058L226.286 47.9102C228.067 47.1087 230.204 47.465 231.718 48.8898C233.589 50.7599 233.589 53.7877 231.718 55.6579C230.917 56.4593 230.026 57.0827 229.047 57.7061C230.204 58.4185 231.54 58.8638 232.965 58.8638H236.794C238.041 58.8638 239.288 58.5966 240.357 57.9733L244.987 55.4798L249.796 52.8972C252.824 51.2943 254.338 47.9102 253.536 44.6152C253.358 44.0809 253.091 43.5466 252.824 43.0123C252.824 43.0123 252.824 42.9232 252.824 42.8342C252.29 41.8546 251.488 41.0531 250.598 40.3407C249.351 39.5392 247.926 39.0049 246.323 39.0049H245.255L245.076 39.0939Z" fill="#343E49"/>
<path d="M170.092 55.2158C171.161 56.5516 172.764 57.264 174.456 57.5312C173.922 57.0859 173.387 56.6407 173.031 56.0173C171.428 53.791 171.072 51.0303 171.963 48.3587C172.853 45.8652 175.525 44.5294 178.196 45.4199C180.423 46.1324 181.758 48.3587 181.402 50.585C181.58 50.585 181.937 50.585 182.293 50.585H186.745L187.191 49.8726C188.081 48.5368 188.17 46.9338 187.903 45.4199C187.903 44.9747 187.725 44.5294 187.547 44.0841C187.458 43.817 187.547 43.4608 187.28 43.1936C186.122 41.0563 183.807 39.8096 181.402 39.8096H176.504C173.387 39.8096 170.627 41.9469 169.914 44.8856L168.757 49.6054C168.49 50.7631 168.579 51.8318 168.935 52.9004C169.202 53.7019 169.469 54.5034 170.092 55.2158Z" fill="#343E49"/>
<path d="M153.797 63.9418C154.51 65.3666 154.332 66.9696 153.53 68.2163H165.908C168.046 67.0587 169.293 65.0995 169.649 62.8731C169.649 62.606 169.649 62.3388 169.738 62.1607C169.738 60.914 169.738 59.6672 169.114 58.4205C168.135 56.4613 166.443 55.2146 164.484 54.6802C162.703 54.1459 160.832 54.235 159.051 55.1255L152.105 58.5095C150.769 59.222 149.79 60.2906 149.077 61.4483C151.037 61.1811 152.996 62.0717 153.886 63.8527L153.797 63.9418Z" fill="#343E49"/>
<path d="M109.893 88.5201C110.338 89.4106 110.427 90.3902 110.249 91.2808H121.381L123.162 90.3902C124.765 89.5887 125.923 88.2529 126.635 86.739C127.526 84.7799 127.615 82.5535 126.635 80.5053C126.101 79.5257 125.388 78.7242 124.587 78.1009C123.963 77.6556 123.34 77.2994 122.628 77.0322C120.668 76.3198 118.531 76.2307 116.483 77.2103L109.537 80.5944C107.489 81.5739 106.242 83.355 105.708 85.3142C105.708 85.4923 105.708 85.7595 105.708 85.9376C107.489 85.9376 109.181 86.8281 110.071 88.4311L109.893 88.5201Z" fill="#343E49"/>
<path d="M109.717 111.762C111.943 110.872 114.436 111.762 115.505 113.899C116.574 116.126 115.594 118.797 113.368 119.866C112.833 120.133 112.121 120.311 111.587 120.578C112.922 121.736 114.614 122.36 116.396 122.36C117.553 122.36 118.711 122.092 119.78 121.558L126.726 118.174C129.397 116.838 130.822 114.256 130.822 111.495C130.822 110.426 130.644 109.269 130.11 108.289C128.24 104.638 123.787 103.124 120.047 104.994L119.601 105.172L113.101 108.378C111.587 109.091 110.518 110.337 109.806 111.762H109.717Z" fill="#343E49"/>
<path d="M327.623 112.654L312.662 119.244C312.662 119.244 312.128 119.6 311.861 119.779L314.354 118.799C315.067 118.532 315.868 118.354 316.67 118.265C317.471 118.086 318.362 117.908 319.519 117.908C327.623 117.908 334.302 124.32 335.282 132.78C335.371 133.315 335.46 133.938 335.46 134.561V154.331L336.261 154.153C336.885 153.975 337.508 153.886 338.221 153.797C338.844 153.797 339.556 153.619 340.358 153.619C343.564 153.619 346.503 154.598 349.085 156.201C349.085 155.489 349.174 154.866 348.996 154.242L338.132 117.374C337.686 115.949 336.707 114.792 335.549 113.812C335.104 113.456 334.658 112.921 334.035 112.654C332.076 111.764 329.761 111.764 327.801 112.654H327.623Z" fill="#343E49"/>
<path d="M57.7073 111.495C57.173 111.495 56.7278 111.673 56.1934 111.851C51.2955 114.078 50.8502 116.927 51.2955 118.976H57.4402C57.4402 117.907 57.7073 116.838 58.1526 115.948C57.5292 114.523 57.4402 113.009 57.7073 111.495Z" fill="#222930"/>
<path d="M111.491 120.58C112.114 120.313 112.738 120.135 113.272 119.868C115.498 118.799 116.478 116.127 115.409 113.901C114.341 111.764 111.847 110.873 109.621 111.764C109.532 111.764 109.443 111.764 109.354 111.764C106.326 113.189 100.626 114.435 97.0642 114.435H89.2275C90.2071 115.682 90.9195 117.196 90.9195 118.888C90.9195 119.333 90.7414 119.6 90.6524 120.046C93.1459 120.758 95.4613 121.827 97.5986 123.341C100.448 123.341 103.921 122.717 107.127 121.916C108.641 121.56 110.066 121.114 111.313 120.58H111.491Z" fill="#222930"/>
<path d="M58.2405 116.124C58.2405 116.124 58.2405 115.945 58.2405 115.856C57.7952 116.747 57.5281 117.816 57.5281 118.884H60.8231C59.7544 118.172 58.8639 117.281 58.3296 116.124H58.2405Z" fill="#343E49"/>
<path d="M91.0152 118.887C91.0152 117.195 90.3027 115.681 89.3231 114.434C87.9873 112.653 85.8501 111.495 83.4456 111.495H78.993C78.4586 113.365 77.1228 115.057 75.1637 116.037L69.2861 118.887H83.8909C86.2953 118.887 88.5217 119.332 90.748 120.044C90.748 119.688 91.0152 119.332 91.0152 118.887Z" fill="#343E49"/>
<path d="M58.9493 137.055H60.8194C63.5801 126.635 72.8416 118.888 83.9733 118.888H69.3685L68.2999 119.422C67.2313 119.956 66.0736 120.223 64.9159 120.223C63.402 120.223 61.9771 119.778 60.7304 118.888H35.7954C46.9271 118.888 56.1886 126.635 58.9493 137.055Z" fill="#343E49"/>
<path d="M117.817 143.378C120.31 143.378 122.537 144.09 124.496 145.426L101.253 126.19L99.1155 124.409C104.548 128.951 108.11 135.719 108.11 143.378C108.11 145.96 107.576 148.365 106.863 150.769C108.733 146.405 112.919 143.378 117.906 143.378H117.817Z" fill="#343E49"/>
<path d="M117.639 167.778C111.049 167.689 105.794 162.257 105.794 155.578C105.794 154.687 105.884 153.797 106.062 152.995C104.548 156.646 102.054 159.763 99.1155 162.168L104.459 167.778H117.639Z" fill="#343E49"/>
<path d="M58.9566 137.052C56.1959 126.633 46.9344 118.975 35.8027 118.975C23.7805 118.975 13.9846 127.88 12.1145 139.546C15.0533 138.032 18.3482 137.052 21.9104 137.052H58.9566Z" fill="#343E49"/>
<path d="M106.065 152.995C106.244 152.193 106.511 151.481 106.778 150.679C107.49 148.364 108.025 145.87 108.025 143.288C108.025 135.629 104.463 128.861 99.0303 124.319C98.585 123.963 98.1397 123.518 97.6945 123.162C95.6462 121.648 93.2418 120.668 90.7483 119.867C88.611 119.243 86.2956 118.709 83.8912 118.709C72.7595 118.709 63.498 126.457 60.7373 136.876H65.8133V137.054C71.6909 136.965 77.5684 139.191 81.932 143.822L99.1193 161.989C102.058 159.495 104.552 156.379 106.065 152.816V152.995Z" fill="#343E49"/>
<path d="M118.086 167.775C118.086 167.775 118.442 167.775 118.62 167.775C124.854 167.33 129.752 162.165 129.841 155.842C129.841 155.842 129.841 155.753 129.841 155.664C129.841 151.39 127.704 147.649 124.409 145.512C122.539 144.265 120.223 143.464 117.73 143.464C112.832 143.464 108.557 146.492 106.687 150.855C106.42 151.568 106.153 152.369 105.975 153.171C105.797 153.972 105.708 154.863 105.708 155.753C105.708 162.432 110.962 167.865 117.552 167.954H117.73H117.908L118.086 167.775Z" fill="#343E49"/>
<path d="M190.128 60.2016H199.212C199.746 59.7564 200.191 59.2221 200.904 58.9549L207.85 55.5709C211.59 53.7898 216.132 55.2147 217.913 58.8658C218.18 59.3111 218.18 59.7564 218.269 60.2907H220.228C222.366 60.2907 224.503 59.8454 226.462 59.044C227.353 58.6877 228.154 58.2425 228.955 57.7972C229.935 57.1738 230.826 56.5505 231.627 55.749C233.497 53.8789 233.497 50.851 231.627 48.9809C230.113 47.5561 227.976 47.2889 226.195 48.0013C225.661 48.2685 225.126 48.5357 224.681 48.9809C223.879 49.7824 222.098 50.6729 220.139 50.6729H182.113C182.113 50.6729 181.49 50.6729 181.223 50.6729C181.49 48.4466 180.243 46.2203 178.017 45.5078C175.434 44.6173 172.674 45.9531 171.783 48.4466C170.893 51.1182 171.249 53.8789 172.852 56.1052C173.297 56.6395 173.742 57.1738 174.277 57.6191C175.702 58.7768 177.394 59.6673 179.442 60.0235C180.243 60.2016 181.134 60.2907 182.024 60.2907H189.95L190.128 60.2016Z" fill="#222930"/>
<path d="M207.32 72.2215C207.32 72.2215 207.498 72.2215 207.676 72.2215L214.622 68.8375C214.622 68.8375 214.889 68.5703 215.068 68.4812C216.047 67.8579 216.849 67.0564 217.472 66.1658C217.65 65.8987 217.739 65.6315 217.917 65.3644C218.095 65.0082 218.362 64.6519 218.452 64.2957C218.897 62.9599 218.808 61.6241 218.452 60.1993C218.362 59.754 218.273 59.2197 218.095 58.7744C216.225 55.1232 211.773 53.6093 208.032 55.4794L201.086 58.8635C200.463 59.2197 199.928 59.665 199.394 60.1102C198.325 61.0898 197.613 62.2475 197.257 63.5833L197.524 63.4052C199.75 62.3366 202.511 63.3161 203.58 65.5425C204.648 67.7688 203.669 70.4404 201.442 71.5091L200.73 71.8653C201.888 72.4886 203.134 72.8449 204.47 72.8449C205.45 72.8449 206.518 72.5777 207.498 72.1324L207.32 72.2215Z" fill="#343E49"/>
<path d="M134.739 72.6658C135.362 75.3374 137.678 76.7623 141.507 76.9404C141.863 76.9404 142.219 77.0294 142.665 77.0294H163.859L165.64 76.1389C168.312 74.8031 171.429 75.2484 173.655 77.0294H180.691C185.499 77.0294 192.624 75.5155 196.809 73.5564L199.837 72.1315L200.549 71.7753L201.262 71.4191C203.488 70.3504 204.468 67.6788 203.399 65.4525C202.33 63.2262 199.57 62.3356 197.343 63.3152L197.076 63.4933L195.741 64.1167L192.98 65.4525C189.952 66.8774 184.253 68.1241 180.691 68.1241H153.529C154.331 66.8774 154.509 65.2744 153.796 63.8495C152.906 62.0685 150.947 61.1779 148.987 61.4451C148.542 61.4451 148.186 61.5341 147.741 61.7123L139.637 65.4525C135.986 67.1445 134.828 69.1927 134.65 70.8848C134.65 71.5081 134.65 72.0424 134.739 72.5768V72.6658Z" fill="#222930"/>
<path d="M213.104 134.38C213.104 134.38 212.926 133.757 212.659 133.49L183.716 91.2783C182.38 89.4081 180.332 88.6067 178.729 89.3191L171.071 93.0593L160.651 98.1354L152.904 101.876C151.301 102.677 150.588 104.725 151.123 107.041L163.234 157.445C164.035 160.651 166.885 162.61 169.201 161.541L181.579 155.575C183.449 154.684 184.072 151.924 183.004 149.341L180.956 144.532C179.887 142.039 180.51 139.189 182.38 138.298L186.299 136.428C188.258 135.538 190.662 136.785 191.82 139.367L193.868 143.998C194.046 144.443 194.403 144.888 194.67 145.245C195.917 146.937 197.876 147.649 199.39 146.937L202.863 145.245L211.857 140.881C213.816 139.901 214.262 136.963 213.104 134.469V134.38ZM166.796 127.434V107.486H185.319V127.434H166.796Z" fill="white"/>
<path d="M223.077 72.8483C222.008 70.4439 219.603 69.1971 217.822 70.0877L204.464 76.5886C202.594 77.4791 201.971 80.1507 203.039 82.5551L223.789 129.041L228.42 139.371C229.488 141.776 231.893 143.022 233.674 142.132L237.325 140.351L246.943 135.631C248.813 134.74 249.436 132.069 248.368 129.664L223.077 72.7593V72.8483Z" fill="white"/>
<path d="M310.532 83.4436C306.791 83.2655 303.674 83.0874 303.674 83.0874C302.16 82.9984 301.181 81.9297 300.558 80.5049C297.975 74.6273 295.392 68.7498 291.563 63.7628C289.782 61.4474 287.734 59.3992 285.508 57.7072C283.459 56.1933 281.233 54.9465 278.918 53.9669C276.78 53.0764 274.554 52.453 272.328 52.0968C270.636 51.8297 268.855 51.6516 267.163 51.6516C266.806 51.6516 266.45 51.5625 266.183 51.5625C264.402 51.5625 262.71 51.5625 260.929 51.8297C259.593 52.0078 258.346 52.1859 257.099 52.453C256.476 52.6311 255.764 52.7202 255.14 52.9874C255.14 52.9874 255.051 52.9874 254.962 52.9874L253.626 53.6998L250.42 55.3918L245.523 57.9743L239.289 61.2693C237.597 62.1599 236.884 64.5643 237.686 66.6125L240.803 74.093L245.433 85.2247L262.443 126.1C263.333 128.148 265.381 129.128 267.073 128.148L279.541 121.648C281.233 120.757 281.945 118.353 281.144 116.304L279.63 112.564C278.739 110.516 279.452 108.111 281.233 107.221L286.22 104.638C286.22 104.638 286.932 104.371 287.289 104.371C287.823 104.371 288.357 104.371 288.892 104.549L291.919 105.885L295.482 107.488L301.537 110.16L314.183 115.77C315.073 116.126 316.053 116.126 316.854 115.77L324.958 111.584L331.192 108.29C331.726 108.022 332.082 107.577 332.439 107.043C333.151 105.885 333.418 104.371 332.795 102.857L329.678 95.3768L326.027 86.5605C325.403 85.1356 324.246 84.2451 322.91 84.156C322.91 84.156 322.554 84.156 322.019 84.156C319.971 84.067 314.984 83.7108 310.71 83.5327L310.532 83.4436ZM259.771 71.5105H263.155C263.155 71.5105 263.778 70.8871 264.224 70.709C267.43 69.1951 270.903 69.7294 273.752 71.5105H281.589C290.049 71.5105 296.906 78.2785 296.906 86.5605V87.0948C296.906 94.2191 291.029 99.9185 283.816 99.9185H259.771V71.5105Z" fill="white"/>
<path d="M314.092 141.329L307.591 143.734V174.813H313.914V172.587C313.914 172.587 314.092 171.874 314.092 171.607V141.329Z" fill="#343E49"/>
<path d="M335.374 134.649C335.374 134.026 335.374 133.491 335.196 132.868C334.306 124.408 327.627 117.996 319.434 117.996C318.365 117.996 317.385 118.174 316.584 118.352C315.782 118.441 315.07 118.619 314.269 118.887L311.775 119.866L303.76 122.805L299.04 124.586L297.437 125.209C296.725 125.477 296.102 125.833 295.478 126.189C295.033 126.367 294.766 126.723 294.321 126.99C292.807 127.97 291.56 129.128 290.402 130.464C287.82 133.58 286.128 137.588 286.128 142.041V178.018C286.128 180.779 286.751 183.361 287.82 185.677H307.233V180.333C307.233 177.751 309.282 175.703 311.775 175.703H313.823V174.901H307.5V143.822L314.001 141.417V171.695C314.447 165.373 318.365 159.851 324.243 157.625C324.866 157.358 325.489 157.18 326.113 157.001L335.374 154.508V134.738V134.649Z" fill="#343E49"/>
<path d="M283.812 99.918C291.026 99.918 296.903 94.1295 296.903 87.0943V86.56C296.903 78.278 290.046 71.5099 281.586 71.5099H273.749C275.263 72.4895 276.688 73.8253 277.49 75.6064C278.291 77.3875 277.49 79.6138 275.798 80.4153L270.009 83.1759C268.228 83.9774 266.091 83.1759 265.289 81.3949L262.529 75.4283C261.905 74.0034 262.173 72.4895 263.152 71.4209H259.768V99.8289H283.812V99.918Z" fill="white"/>
<path d="M185.324 107.486H166.801V127.434H185.324V107.486ZM180.426 121.468L177.221 122.893C174.994 123.872 172.323 122.804 171.432 120.488L170.096 117.282C169.117 114.967 170.096 112.295 172.412 111.316L175.618 109.891C177.844 108.911 180.516 109.891 181.406 112.295L182.742 115.501C183.721 117.817 182.742 120.488 180.426 121.468Z" fill="white"/>
<path d="M355.949 166.796C355.148 162.343 352.565 158.603 348.914 156.199C346.42 154.596 343.482 153.616 340.187 153.616C339.385 153.616 338.673 153.616 338.049 153.794C337.426 153.794 336.803 153.972 336.09 154.151L335.289 154.329L326.027 156.822C325.404 157 324.78 157.178 324.157 157.446C318.279 159.761 314.361 165.193 313.916 171.516C313.916 171.872 313.738 172.139 313.738 172.496V175.523H311.689C309.196 175.523 307.148 177.572 307.148 180.154V185.497H315.252C320.684 185.497 325.047 189.772 325.047 195.115C325.047 200.458 320.684 204.733 315.252 204.733H282.213C276.781 204.733 272.417 200.458 272.417 195.115C272.417 190.128 276.335 186.21 281.233 185.675C281.055 184.073 279.986 182.826 278.562 182.38C278.205 182.291 277.849 182.202 277.493 182.202H262.354C260.929 182.202 259.771 183.004 259.059 184.162C258.703 184.785 258.436 185.408 258.436 186.121V187.991C262.71 188.169 266.183 191.642 266.183 195.917C266.183 200.191 262.532 203.931 258.079 203.931H245.701C241.248 203.931 237.597 200.369 237.597 195.917C237.597 192.087 240.447 189.059 244.098 188.258V186.121C244.098 183.983 242.406 182.202 240.269 182.202H225.13C222.992 182.202 221.3 183.983 221.3 186.121V188.08C225.308 188.614 228.425 191.82 228.425 195.828C228.425 200.28 224.773 203.842 220.321 203.842H207.942C203.49 203.842 199.838 200.28 199.838 195.828C199.838 191.82 202.955 188.614 206.963 188.08V186.121C206.963 183.983 205.271 182.202 203.133 182.202H187.994C185.857 182.202 184.165 183.983 184.165 186.121V188.436C187.282 189.505 189.597 192.444 189.597 195.828C189.597 200.28 185.946 203.842 181.493 203.842H174.102C172.677 203.842 171.341 203.397 170.184 202.685H169.827C169.827 202.685 169.827 202.507 169.827 202.328C167.69 200.904 166.087 198.588 166.087 195.828C166.087 195.649 166.176 195.471 166.176 195.382C164.395 193.868 162.258 192.889 159.764 192.889H134.918C132.603 192.889 130.199 191.909 128.061 190.662C124.499 188.614 121.828 185.765 121.828 185.765L121.382 185.23L113.457 176.859L112.477 175.791L104.64 167.509L99.2971 161.898L82.1098 143.731C77.7462 139.101 71.8687 136.874 65.9911 136.963V136.785H21.9097C18.3476 136.785 15.0526 137.765 12.1138 139.279C5.25673 142.752 0.447841 149.787 0.0025739 157.98C0.0025739 158.247 0.0025739 158.603 0.0025739 158.87C0.0025739 158.87 0.0025739 158.959 0.0025739 159.049V190.306C-0.175533 196.095 1.78364 202.061 6.05821 206.514C10.3328 211.056 16.1212 213.282 21.8207 213.282L94.2211 213.371V213.193C95.824 213.371 97.516 213.371 99.119 213.193C99.6533 213.193 100.099 213.282 100.633 213.282H159.497H310.888C311.155 213.282 311.511 213.371 311.868 213.371H347.133C350.161 213.371 352.565 210.878 352.565 207.85V197.787C354.791 195.026 356.216 191.464 356.216 187.546V169.112C356.216 168.221 356.127 167.33 355.949 166.44V166.796Z" fill="#304760"/>
<path d="M282.478 185.678C282.478 185.678 281.855 185.856 281.499 185.856C276.512 186.39 272.683 190.309 272.683 195.296C272.683 200.639 277.046 204.913 282.478 204.913H315.517C320.95 204.913 325.313 200.639 325.313 195.296C325.313 189.952 320.95 185.678 315.517 185.678H282.478Z" fill="#7999B5"/>
<path d="M220.411 187.99H208.033C208.033 187.99 207.32 188.168 206.964 188.168C202.957 188.703 199.84 191.909 199.84 195.916C199.84 200.369 203.491 203.931 207.944 203.931H220.322C224.775 203.931 228.426 200.369 228.426 195.916C228.426 191.909 225.309 188.703 221.302 188.168C220.945 188.168 220.678 187.99 220.233 187.99H220.411Z" fill="#7999B5"/>
<path d="M181.401 187.99H174.009C170.625 187.99 167.776 189.949 166.529 192.799C166.173 193.601 165.995 194.491 165.995 195.471C165.995 195.649 165.906 195.827 165.906 195.916C165.906 198.677 167.419 200.992 169.646 202.417C169.824 202.506 169.913 202.595 170.091 202.773C171.249 203.396 172.585 203.931 174.009 203.931H181.401C185.853 203.931 189.505 200.369 189.505 195.916C189.505 192.443 187.278 189.593 184.072 188.525C183.182 188.257 182.291 187.99 181.312 187.99H181.401Z" fill="#7999B5"/>
<path d="M253.98 187.99H245.965C245.342 187.99 244.897 188.168 244.362 188.346C240.711 189.148 237.861 192.176 237.861 196.005C237.861 200.458 241.513 204.02 245.965 204.02H258.344C262.796 204.02 266.447 200.458 266.447 196.005C266.447 191.552 262.974 188.346 258.7 188.079C258.522 188.079 258.433 188.079 258.344 188.079H253.98V187.99Z" fill="#7999B5"/>
<path d="M156.825 97.0689L172.32 89.4103C173.299 88.876 174.101 88.2526 174.813 87.4512C176.594 85.3139 177.129 82.197 175.704 79.5254C175.437 79.0801 175.081 78.7239 174.724 78.3677C174.368 77.9224 174.012 77.4772 173.656 77.121C171.429 75.4289 168.312 74.8946 165.641 76.2304L163.86 77.121L163.415 77.2991L150.057 83.889C148.899 84.4233 148.097 85.3139 147.385 86.2044C146.762 87.0949 146.316 88.0745 146.138 89.1432C146.227 89.1432 146.405 89.1432 146.494 89.0541C148.721 87.9855 151.481 88.9651 152.55 91.1914C153.619 93.4177 152.639 96.0893 150.413 97.158C150.413 97.158 150.324 97.158 150.235 97.158C151.214 97.6032 152.283 97.9595 153.441 97.9595C154.598 97.9595 155.756 97.6923 156.825 97.158V97.0689Z" fill="#343E49"/>
<path d="M93.7762 95.9096C93.7762 95.9096 93.9544 96.3548 94.0434 96.5329C94.6668 98.314 96.4478 100.273 101.346 100.273H135.631C137.769 100.273 140.44 99.917 142.934 99.3827C145.605 98.8483 148.188 98.0469 150.236 97.0673C150.236 97.0673 150.325 97.0673 150.414 97.0673C152.641 95.9986 153.62 93.327 152.551 91.1007C151.483 88.8743 148.811 87.9838 146.496 88.9634C146.407 88.9634 146.229 88.9634 146.14 89.0525C143.379 90.2102 138.57 91.2788 135.631 91.2788H110.251C110.429 90.3883 110.251 89.4087 109.895 88.5181C109.093 86.8261 107.312 85.9356 105.531 86.0246C104.997 86.0246 104.374 86.2028 103.839 86.4699L98.7632 88.8743L98.407 89.0525C93.8653 91.1897 93.42 93.9504 93.7762 95.9096Z" fill="#222930"/>
<path d="M58.1524 115.861C58.1524 115.861 58.1524 116.039 58.1524 116.128C58.7758 117.286 59.6663 118.176 60.6459 118.889C61.8926 119.69 63.3175 120.224 64.8314 120.224C65.9891 120.224 67.1468 119.957 68.2154 119.423L69.2841 118.889L75.1616 116.039C77.1208 115.059 78.3675 113.456 78.9909 111.497C79.169 110.874 79.2581 110.25 79.2581 109.627C79.2581 108.469 79.169 107.223 78.5456 106.154C77.566 104.195 75.6959 102.948 73.7367 102.414C73.1134 102.236 72.579 102.236 71.9557 102.146C70.798 102.146 69.6403 102.325 68.4826 102.859L61.5364 106.243C60.3787 106.777 59.5773 107.668 58.8648 108.647C58.2415 109.538 57.8852 110.428 57.6181 111.497C57.3509 112.922 57.44 114.436 58.0633 115.95L58.1524 115.861Z" fill="#343E49"/>
<path d="M262.53 75.5168L265.291 81.4834C266.092 83.2644 268.229 84.0659 270.01 83.2644L275.799 80.5038C277.58 79.7023 278.381 77.476 277.491 75.6949C276.689 73.8248 275.265 72.578 273.751 71.5984C270.99 69.8174 267.428 69.283 264.222 70.7969C263.777 70.9751 263.42 71.2422 263.153 71.5984C262.174 72.6671 261.907 74.181 262.53 75.6058V75.5168Z" fill="#55616B"/>
<path d="M182.734 115.591L181.398 112.385C180.418 110.069 177.836 109.001 175.609 109.98L172.403 111.405C170.177 112.385 169.108 115.056 170.088 117.372L171.424 120.578C172.403 122.893 174.986 123.962 177.212 122.982L180.418 121.557C182.645 120.578 183.713 117.906 182.734 115.591Z" fill="#55616B"/>
</g>
<defs>
<clipPath id="clip0_908_693">
<rect width="356.214" height="213.728" fill="white"/>
</clipPath>
</defs>
</svg>
